<svg width="24" height="24" viewBox="0 0 24 24" fill="none" xmlns="http://www.w3.org/2000/svg">
<g clip-path="url(#clip0_0_519)">
<path d="M9.87381 11.2803C10.3719 11.0298 10.7484 10.7508 11.0064 10.4492C11.4654 9.9062 11.692 9.18614 11.692 8.29357C11.692 7.425 11.4654 6.68244 11.0124 6.05988C10.2563 5.0458 8.97674 4.52676 7.16759 4.49976H0V19.1305H6.68305C7.43611 19.1305 8.13367 19.066 8.77872 18.9339C9.42377 18.8004 9.98182 18.5559 10.4544 18.1989C10.8744 17.8884 11.2254 17.5028 11.5044 17.0483C11.9455 16.3612 12.166 15.5827 12.166 14.7156C12.166 13.8755 11.9725 13.16 11.5885 12.5719C11.1999 11.9839 10.6299 11.5533 9.87381 11.2803ZM2.95674 7.04096H6.18501C6.89457 7.04096 7.47961 7.11747 7.93865 7.26898C8.46969 7.4895 8.73522 7.93804 8.73522 8.62209C8.73522 9.23564 8.5327 9.66468 8.13217 9.9062C7.72863 10.1477 7.20509 10.2692 6.56304 10.2692H2.95674V7.04096ZM8.06166 16.3342C7.70463 16.5067 7.20209 16.5922 6.55854 16.5922H2.95674V12.6904H6.60804C7.24409 12.6949 7.73913 12.7789 8.09316 12.9364C8.72322 13.2215 9.03674 13.7435 9.03674 14.5071C9.03674 15.4071 8.71271 16.0132 8.06166 16.3342ZM15.3373 5.18231H21.6933V7.00346H15.3373V5.18231ZM23.9015 12.3694C23.7694 11.5218 23.4784 10.7763 23.0254 10.1327C22.5288 9.40366 21.8988 8.86961 21.1322 8.53209C20.3687 8.19306 19.5091 8.02355 18.552 8.02505C16.9454 8.02505 15.6403 8.52759 14.6307 9.52517C13.6241 10.5258 13.1201 11.9644 13.1201 13.8395C13.1201 15.8392 13.6766 17.2838 14.7957 18.1704C15.9103 19.0584 17.1974 19.501 18.6585 19.501C20.4272 19.501 21.8028 18.9744 22.7854 17.9244C23.4139 17.2613 23.7694 16.6087 23.8475 15.9682H20.9192C20.7497 16.2847 20.5532 16.5322 20.3282 16.7123C19.9201 17.0423 19.3891 17.2073 18.738 17.2073C18.1185 17.2073 17.5934 17.0708 17.1554 16.7993C16.4323 16.3642 16.0543 15.6022 16.0063 14.5176H23.9975C24.0095 13.583 23.9795 12.8644 23.9015 12.3694ZM16.0783 12.6499C16.1833 11.9464 16.4383 11.3883 16.8434 10.9758C17.2484 10.5648 17.8215 10.3577 18.555 10.3562C19.2316 10.3562 19.7971 10.5498 20.2577 10.9383C20.7122 11.3298 20.9687 11.8984 21.0212 12.6499H16.0783Z" fill="white"/>
</g>
<defs>
<clipPath id="clip0_0_519">
<rect width="24" height="24" fill="white"/>
</clipPath>
</defs>
</svg>
