<svg width="387" height="8" viewBox="0 0 387 8" fill="none" xmlns="http://www.w3.org/2000/svg">
<path d="M6.00242 7.99901C6.05185 8.00182 6.10031 7.98258 6.13766 7.94531C6.17501 7.90804 6.19835 7.85563 6.20279 7.79906V3.48013C6.2006 3.45251 6.19368 3.42566 6.1824 3.40113C6.17113 3.37661 6.15573 3.35489 6.1371 3.33722C6.11847 3.31956 6.09698 3.30631 6.07386 3.29824C6.05074 3.29016 6.02646 3.28742 6.00242 3.29018H1.55941C1.54555 3.29018 1.53225 3.28386 1.52245 3.27261C1.51264 3.26136 1.50714 3.2461 1.50714 3.23019V1.49062C1.50699 1.47367 1.5122 1.45723 1.52182 1.44436C1.53143 1.43149 1.54479 1.42306 1.55941 1.42064H12.7802C12.7802 1.42064 12.8324 1.42064 12.8324 1.49062V3.23019C12.8324 3.2461 12.8269 3.26136 12.8171 3.27261C12.8073 3.28386 12.794 3.29018 12.7802 3.29018H8.34588C8.29636 3.28449 8.24686 3.30113 8.20784 3.33658C8.16881 3.37203 8.14334 3.42351 8.1368 3.48013V7.79906C8.13899 7.82799 8.14614 7.85613 8.15786 7.88187C8.16957 7.90761 8.18561 7.93043 8.20505 7.94902C8.22448 7.96761 8.24694 7.9816 8.27111 7.99018C8.29528 7.99876 8.32069 8.00176 8.34588 7.99901H22.2847C22.3342 8.00182 22.3826 7.98258 22.42 7.94531C22.4573 7.90804 22.4807 7.85563 22.4851 7.79906V3.48013C22.4829 3.45251 22.476 3.42566 22.4647 3.40113C22.4534 3.37661 22.438 3.35489 22.4194 3.33722C22.4008 3.31956 22.3793 3.30631 22.3562 3.29824C22.3331 3.29016 22.3088 3.28742 22.2847 3.29018H17.8417C17.8279 3.29018 17.8146 3.28386 17.8048 3.27261C17.795 3.26136 17.7895 3.2461 17.7895 3.23019V1.49062C17.7893 1.47367 17.7945 1.45723 17.8041 1.44436C17.8137 1.43149 17.8271 1.42306 17.8417 1.42064H29.1061C29.1222 1.42064 29.1377 1.42801 29.1492 1.44113C29.1606 1.45426 29.167 1.47206 29.167 1.49062V3.23019C29.1649 3.24697 29.1576 3.2623 29.1464 3.27333C29.1351 3.28436 29.1208 3.29035 29.1061 3.29018H24.6718C24.6477 3.28742 24.6234 3.29016 24.6003 3.29824C24.5772 3.30631 24.5557 3.31956 24.5371 3.33722C24.5184 3.35489 24.503 3.37661 24.4918 3.40113C24.4805 3.42566 24.4736 3.45251 24.4714 3.48013V7.79906C24.4758 7.85563 24.4992 7.90804 24.5365 7.94531C24.5739 7.98258 24.6223 8.00182 24.6718 7.99901H38.6106C38.6358 8.00176 38.6612 7.99876 38.6854 7.99018C38.7095 7.9816 38.732 7.96761 38.7514 7.94902C38.7709 7.93043 38.7869 7.90761 38.7986 7.88187C38.8103 7.85613 38.8175 7.82799 38.8197 7.79906V3.48013C38.8131 3.42351 38.7877 3.37203 38.7486 3.33658C38.7096 3.30113 38.6601 3.28449 38.6106 3.29018H34.2199C34.206 3.29018 34.1927 3.28386 34.1829 3.27261C34.1731 3.26136 34.1676 3.2461 34.1676 3.23019V1.49062C34.1676 1.49062 34.1676 1.42064 34.2199 1.42064H45.4406C45.4553 1.42306 45.4686 1.43149 45.4782 1.44436C45.4878 1.45723 45.4931 1.47367 45.4929 1.49062V3.23019C45.4929 3.2461 45.4874 3.26136 45.4776 3.27261C45.4678 3.28386 45.4545 3.29018 45.4406 3.29018H40.9976C40.9736 3.28742 40.9493 3.29016 40.9262 3.29824C40.9031 3.30631 40.8816 3.31956 40.8629 3.33722C40.8443 3.35489 40.8289 3.37661 40.8176 3.40113C40.8064 3.42566 40.7994 3.45251 40.7973 3.48013V7.79906C40.8017 7.85563 40.825 7.90804 40.8624 7.94531C40.8997 7.98258 40.9482 8.00182 40.9976 7.99901H54.9887C55.0382 8.00182 55.0866 7.98258 55.124 7.94531C55.1613 7.90804 55.1847 7.85563 55.1891 7.79906V3.48013C55.1826 3.42537 55.1584 3.37542 55.1213 3.34022C55.0841 3.30503 55.0368 3.28716 54.9887 3.29018H50.5283C50.5237 3.28106 50.5213 3.27071 50.5213 3.26018C50.5213 3.24965 50.5237 3.23931 50.5283 3.23019V1.49062C50.523 1.47998 50.5201 1.46791 50.5201 1.45563C50.5201 1.44334 50.523 1.43128 50.5283 1.42064H61.7665C61.7811 1.42306 61.7945 1.43149 61.8041 1.44436C61.8137 1.45723 61.8189 1.47367 61.8188 1.49062V3.23019C61.8188 3.23807 61.8174 3.24587 61.8148 3.25315C61.8122 3.26042 61.8083 3.26704 61.8035 3.27261C61.7986 3.27818 61.7929 3.28259 61.7865 3.28561C61.7802 3.28862 61.7734 3.29018 61.7665 3.29018H57.3235C57.2754 3.28716 57.2281 3.30503 57.191 3.34022C57.1538 3.37542 57.1296 3.42537 57.1231 3.48013V7.79906C57.1276 7.85563 57.1509 7.90804 57.1883 7.94531C57.2256 7.98258 57.2741 8.00182 57.3235 7.99901H71.3146C71.3641 8.00182 71.4125 7.98258 71.4499 7.94531C71.4872 7.90804 71.5105 7.85563 71.515 7.79906V3.48013C71.5128 3.45251 71.5059 3.42566 71.4946 3.40113C71.4833 3.37661 71.4679 3.35489 71.4493 3.33722C71.4307 3.31956 71.4092 3.30631 71.3861 3.29824C71.3629 3.29016 71.3387 3.28742 71.3146 3.29018H66.8716C66.8577 3.29018 66.8445 3.28386 66.8347 3.27261C66.8249 3.26136 66.8193 3.2461 66.8193 3.23019V1.49062C66.8192 1.47367 66.8244 1.45723 66.834 1.44436C66.8436 1.43149 66.857 1.42306 66.8716 1.42064H78.0924C78.0924 1.42064 78.1447 1.42064 78.1447 1.49062V3.23019C78.1447 3.2461 78.1391 3.26136 78.1293 3.27261C78.1195 3.28386 78.1062 3.29018 78.0924 3.29018H73.6581C73.6086 3.28449 73.5591 3.30113 73.52 3.33658C73.481 3.37203 73.4555 3.42351 73.449 3.48013V7.79906C73.4512 7.82799 73.4583 7.85613 73.4701 7.88187C73.4818 7.90761 73.4978 7.93043 73.5173 7.94902C73.5367 7.96761 73.5591 7.9816 73.5833 7.99018C73.6075 7.99876 73.6329 8.00176 73.6581 7.99901H87.5969C87.6464 8.00182 87.6948 7.98258 87.7322 7.94531C87.7695 7.90804 87.7929 7.85563 87.7973 7.79906V3.48013C87.7951 3.45251 87.7882 3.42566 87.7769 3.40113C87.7656 3.37661 87.7503 3.35489 87.7316 3.33722C87.713 3.31956 87.6915 3.30631 87.6684 3.29824C87.6453 3.29016 87.621 3.28742 87.5969 3.29018H83.1975C83.1836 3.29018 83.1703 3.28386 83.1605 3.27261C83.1507 3.26136 83.1452 3.2461 83.1452 3.23019V1.49062C83.1451 1.47367 83.1503 1.45723 83.1599 1.44436C83.1695 1.43149 83.1829 1.42306 83.1975 1.42064H94.427C94.4416 1.42306 94.4549 1.43149 94.4646 1.44436C94.4742 1.45723 94.4794 1.47367 94.4792 1.49062V3.23019C94.4792 3.2461 94.4737 3.26136 94.4639 3.27261C94.4541 3.28386 94.4408 3.29018 94.427 3.29018H89.984C89.9599 3.28742 89.9356 3.29016 89.9125 3.29824C89.8894 3.30631 89.8679 3.31956 89.8493 3.33722C89.8306 3.35489 89.8152 3.37661 89.804 3.40113C89.7927 3.42566 89.7858 3.45251 89.7836 3.48013V7.79906C89.788 7.85563 89.8114 7.90804 89.8487 7.94531C89.8861 7.98258 89.9345 8.00182 89.984 7.99901H103.923C103.948 8.00176 103.973 7.99876 103.998 7.99018C104.022 7.9816 104.044 7.96761 104.064 7.94902C104.083 7.93043 104.099 7.90761 104.111 7.88187C104.123 7.85613 104.13 7.82799 104.132 7.79906V3.48013C104.125 3.42351 104.1 3.37203 104.061 3.33658C104.022 3.30113 103.972 3.28449 103.923 3.29018H99.4885C99.4746 3.29018 99.4613 3.28386 99.4515 3.27261C99.4417 3.26136 99.4362 3.2461 99.4362 3.23019V1.49062C99.4362 1.49062 99.4362 1.42064 99.4885 1.42064H110.709C110.724 1.42306 110.737 1.43149 110.747 1.44436C110.756 1.45723 110.762 1.47367 110.762 1.49062V3.23019C110.762 3.2461 110.756 3.26136 110.746 3.27261C110.736 3.28386 110.723 3.29018 110.709 3.29018H106.284C106.26 3.28742 106.235 3.29016 106.212 3.29824C106.189 3.30631 106.168 3.31956 106.149 3.33722C106.13 3.35489 106.115 3.37661 106.104 3.40113C106.092 3.42566 106.086 3.45251 106.083 3.48013V7.79906C106.088 7.85563 106.111 7.90804 106.148 7.94531C106.186 7.98258 106.234 8.00182 106.284 7.99901H120.275C120.324 8.00182 120.373 7.98258 120.41 7.94531C120.447 7.90804 120.471 7.85563 120.475 7.79906V3.48013C120.469 3.42537 120.444 3.37542 120.407 3.34022C120.37 3.30503 120.323 3.28716 120.275 3.29018H115.867C115.853 3.29018 115.839 3.28386 115.83 3.27261C115.82 3.26136 115.814 3.2461 115.814 3.23019V1.49062C115.814 1.49062 115.814 1.42064 115.867 1.42064H127.087C127.102 1.42306 127.115 1.43149 127.125 1.44436C127.135 1.45723 127.14 1.47367 127.14 1.49062V3.23019C127.14 3.2461 127.134 3.26136 127.124 3.27261C127.115 3.28386 127.101 3.29018 127.087 3.29018H122.644C122.596 3.28716 122.549 3.30503 122.512 3.34022C122.475 3.37542 122.451 3.42537 122.444 3.48013V7.79906C122.448 7.85563 122.472 7.90804 122.509 7.94531C122.547 7.98258 122.595 8.00182 122.644 7.99901H128.42C128.47 8.00182 128.518 7.98258 128.556 7.94531C128.593 7.90804 128.616 7.85563 128.621 7.79906V6.79931C128.619 6.77169 128.612 6.74484 128.6 6.72032C128.589 6.69579 128.574 6.67407 128.555 6.6564C128.536 6.63874 128.515 6.62549 128.492 6.61742C128.469 6.60934 128.444 6.6066 128.42 6.60936H123.977C123.963 6.60694 123.949 6.59851 123.94 6.58563C123.93 6.57276 123.925 6.55633 123.925 6.53937V4.76981C123.925 4.7539 123.931 4.73864 123.94 4.72739C123.95 4.71614 123.963 4.70982 123.977 4.70982H128.42C128.444 4.71258 128.469 4.70984 128.492 4.70176C128.515 4.69369 128.536 4.68044 128.555 4.66278C128.574 4.64512 128.589 4.62339 128.6 4.59887C128.612 4.57434 128.619 4.54749 128.621 4.51987V0.200938C128.616 0.144368 128.593 0.0919617 128.556 0.0546914C128.518 0.0174212 128.47 -0.00182321 128.42 0.000987442H114.481C114.432 -0.00182321 114.384 0.0174212 114.346 0.0546914C114.309 0.0919617 114.286 0.144368 114.281 0.200938V4.51987C114.283 4.54749 114.29 4.57434 114.301 4.59887C114.313 4.62339 114.328 4.64512 114.347 4.66278C114.365 4.68044 114.387 4.69369 114.41 4.70176C114.433 4.70984 114.457 4.71258 114.481 4.70982H118.924C118.938 4.70982 118.952 4.71614 118.961 4.72739C118.971 4.73864 118.977 4.7539 118.977 4.76981V6.50938C118.977 6.52633 118.972 6.54277 118.962 6.55564C118.952 6.56851 118.939 6.57694 118.924 6.57936H107.695C107.695 6.57936 107.643 6.57936 107.643 6.50938V4.76981C107.643 4.7539 107.648 4.73864 107.658 4.72739C107.668 4.71614 107.681 4.70982 107.695 4.70982H112.129C112.179 4.71551 112.228 4.69887 112.267 4.66342C112.306 4.62797 112.332 4.57649 112.338 4.51987V0.200938C112.336 0.17201 112.329 0.143865 112.317 0.118127C112.306 0.0923892 112.29 0.0695676 112.27 0.0509787C112.251 0.0323899 112.228 0.018402 112.204 0.00982181C112.18 0.00124164 112.154 -0.00176088 112.129 0.000987442H98.1469C98.0975 -0.00182321 98.049 0.0174212 98.0117 0.0546914C97.9743 0.0919617 97.951 0.144368 97.9465 0.200938V4.51987C97.9487 4.54749 97.9556 4.57434 97.9669 4.59887C97.9782 4.62339 97.9936 4.64512 98.0122 4.66278C98.0308 4.68044 98.0523 4.69369 98.0754 4.70176C98.0986 4.70984 98.1229 4.71258 98.1469 4.70982H102.59C102.604 4.70982 102.617 4.71614 102.627 4.72739C102.637 4.73864 102.642 4.7539 102.642 4.76981V6.50938C102.642 6.52633 102.637 6.54277 102.628 6.55564C102.618 6.56851 102.605 6.57694 102.59 6.57936H91.3604C91.3458 6.57694 91.3324 6.56851 91.3228 6.55564C91.3132 6.54277 91.308 6.52633 91.3082 6.50938V4.76981C91.3082 4.7539 91.3137 4.73864 91.3235 4.72739C91.3333 4.71614 91.3466 4.70982 91.3604 4.70982H95.8296C95.8536 4.71258 95.8779 4.70984 95.901 4.70176C95.9241 4.69369 95.9456 4.68044 95.9642 4.66278C95.9829 4.64512 95.9983 4.62339 96.0096 4.59887C96.0208 4.57434 96.0278 4.54749 96.0299 4.51987V0.200938C96.0255 0.144368 96.0022 0.0919617 95.9648 0.0546914C95.9275 0.0174212 95.879 -0.00182321 95.8296 0.000987442H81.8907C81.8655 -0.00176088 81.8401 0.00124164 81.8159 0.00982181C81.7918 0.018402 81.7693 0.0323899 81.7499 0.0509787C81.7304 0.0695676 81.7144 0.0923892 81.7027 0.118127C81.691 0.143865 81.6838 0.17201 81.6816 0.200938V4.51987C81.6882 4.57649 81.7136 4.62797 81.7527 4.66342C81.7917 4.69887 81.8412 4.71551 81.8907 4.70982H86.2466C86.2614 4.70965 86.2757 4.71564 86.2869 4.72667C86.2981 4.7377 86.3055 4.75303 86.3076 4.76981V6.50938C86.3076 6.51857 86.306 6.52767 86.3029 6.53616C86.2999 6.54465 86.2954 6.55237 86.2897 6.55887C86.2841 6.56536 86.2773 6.57052 86.2699 6.57404C86.2625 6.57755 86.2546 6.57936 86.2466 6.57936H75.0345C75.0199 6.57694 75.0066 6.56851 74.997 6.55564C74.9873 6.54277 74.9821 6.52633 74.9823 6.50938V4.76981C74.9823 4.7539 74.9878 4.73864 74.9976 4.72739C75.0074 4.71614 75.0207 4.70982 75.0345 4.70982H79.4776C79.5016 4.71258 79.5259 4.70984 79.549 4.70176C79.5721 4.69369 79.5936 4.68044 79.6122 4.66278C79.6309 4.64512 79.6463 4.62339 79.6575 4.59887C79.6688 4.57434 79.6757 4.54749 79.6779 4.51987V0.200938C79.6735 0.144368 79.6501 0.0919617 79.6128 0.0546914C79.5755 0.0174212 79.527 -0.00182321 79.4776 0.000987442H65.4864C65.437 -0.00182321 65.3885 0.0174212 65.3512 0.0546914C65.3138 0.0919617 65.2905 0.144368 65.2861 0.200938V4.51987C65.2926 4.57463 65.3168 4.62458 65.3539 4.65978C65.391 4.69497 65.4383 4.71284 65.4864 4.70982H69.9294C69.9363 4.70982 69.9431 4.71138 69.9494 4.71439C69.9558 4.71741 69.9616 4.72182 69.9664 4.72739C69.9713 4.73296 69.9751 4.73958 69.9777 4.74685C69.9804 4.75413 69.9817 4.76193 69.9817 4.76981V6.50938C69.9817 6.50938 69.9817 6.57936 69.9294 6.57936H58.7087C58.6941 6.57694 58.6807 6.56851 58.6711 6.55564C58.6615 6.54277 58.6563 6.52633 58.6564 6.50938V4.76981C58.6564 4.7539 58.6619 4.73864 58.6717 4.72739C58.6815 4.71614 58.6948 4.70982 58.7087 4.70982H63.1517C63.1998 4.71284 63.2471 4.69497 63.2842 4.65978C63.3213 4.62458 63.3456 4.57463 63.3521 4.51987V0.200938C63.3476 0.144368 63.3243 0.0919617 63.2869 0.0546914C63.2496 0.0174212 63.2011 -0.00182321 63.1517 0.000987442H49.1606C49.1111 -0.00182321 49.0627 0.0174212 49.0253 0.0546914C48.988 0.0919617 48.9646 0.144368 48.9602 0.200938V4.51987C48.9624 4.54749 48.9693 4.57434 48.9806 4.59887C48.9919 4.62339 49.0072 4.64512 49.0259 4.66278C49.0445 4.68044 49.066 4.69369 49.0891 4.70176C49.1122 4.70984 49.1365 4.71258 49.1606 4.70982H53.6036C53.6174 4.70982 53.6307 4.71614 53.6405 4.72739C53.6503 4.73864 53.6558 4.7539 53.6558 4.76981V6.50938C53.656 6.52633 53.6508 6.54277 53.6412 6.55564C53.6316 6.56851 53.6182 6.57694 53.6036 6.57936H42.3828C42.3828 6.57936 42.3305 6.57936 42.3305 6.50938V4.76981C42.3305 4.7539 42.336 4.73864 42.3458 4.72739C42.3556 4.71614 42.3689 4.70982 42.3828 4.70982H46.8171C46.8429 4.71553 46.8695 4.71506 46.8952 4.70846C46.9209 4.70185 46.9451 4.68924 46.9664 4.67142C46.9876 4.6536 47.0055 4.63094 47.0187 4.60487C47.032 4.5788 47.0405 4.54986 47.0436 4.51987V0.200938C47.0414 0.17201 47.0343 0.143865 47.0225 0.118127C47.0108 0.0923892 46.9948 0.0695676 46.9754 0.0509787C46.9559 0.0323899 46.9335 0.018402 46.9093 0.00982181C46.8851 0.00124164 46.8597 -0.00176088 46.8345 0.000987442H32.8347C32.7853 -0.00182321 32.7368 0.0174212 32.6994 0.0546914C32.6621 0.0919617 32.6388 0.144368 32.6343 0.200938V4.51987C32.6365 4.54749 32.6434 4.57434 32.6547 4.59887C32.666 4.62339 32.6814 4.64512 32.7 4.66278C32.7186 4.68044 32.7401 4.69369 32.7632 4.70176C32.7864 4.70984 32.8106 4.71258 32.8347 4.70982H37.2777C37.2916 4.70982 37.3049 4.71614 37.3147 4.72739C37.3245 4.73864 37.33 4.7539 37.33 4.76981V6.50938C37.3301 6.52633 37.3249 6.54277 37.3153 6.55564C37.3057 6.56851 37.2923 6.57694 37.2777 6.57936H26.0482C26.0336 6.57694 26.0202 6.56851 26.0106 6.55564C26.001 6.54277 25.9958 6.52633 25.9959 6.50938V4.76981C25.9959 4.7539 26.0015 4.73864 26.0113 4.72739C26.0211 4.71614 26.0344 4.70982 26.0482 4.70982H30.4912C30.5153 4.71258 30.5396 4.70984 30.5627 4.70176C30.5858 4.69369 30.6073 4.68044 30.6259 4.66278C30.6445 4.64512 30.6599 4.62339 30.6712 4.59887C30.6825 4.57434 30.6894 4.54749 30.6916 4.51987V0.200938C30.6872 0.144368 30.6638 0.0919617 30.6265 0.0546914C30.5891 0.0174212 30.5407 -0.00182321 30.4912 0.000987442H16.5524C16.5272 -0.00176088 16.5018 0.00124164 16.4776 0.00982181C16.4534 0.018402 16.431 0.0323899 16.4115 0.0509787C16.3921 0.0695676 16.3761 0.0923892 16.3644 0.118127C16.3526 0.143865 16.3455 0.17201 16.3433 0.200938V4.51987C16.3498 4.57649 16.3753 4.62797 16.4143 4.66342C16.4534 4.69887 16.5029 4.71551 16.5524 4.70982H20.9083C20.9221 4.70982 20.9354 4.71614 20.9452 4.72739C20.955 4.73864 20.9605 4.7539 20.9605 4.76981V6.50938C20.9605 6.50938 20.9605 6.57936 20.9083 6.57936H9.72234C9.70772 6.57694 9.69437 6.56851 9.68475 6.55564C9.67514 6.54277 9.66992 6.52633 9.67007 6.50938V4.76981C9.67007 4.76193 9.67143 4.75413 9.67405 4.74685C9.67668 4.73958 9.68053 4.73296 9.68538 4.72739C9.69024 4.72182 9.696 4.71741 9.70234 4.71439C9.70868 4.71138 9.71548 4.70982 9.72234 4.70982H14.1654C14.1894 4.71258 14.2137 4.70984 14.2368 4.70176C14.2599 4.69369 14.2814 4.68044 14.3 4.66278C14.3187 4.64512 14.3341 4.62339 14.3453 4.59887C14.3566 4.57434 14.3635 4.54749 14.3657 4.51987V0.200938C14.3613 0.144368 14.3379 0.0919617 14.3006 0.0546914C14.2632 0.0174212 14.2148 -0.00182321 14.1654 0.000987442H0.200371C0.150937 -0.00182321 0.102473 0.0174212 0.0651242 0.0546914C0.0277756 0.0919617 0.00443892 0.144368 7.88534e-08 0.200938V4.51987C0.00218198 4.54749 0.00910995 4.57434 0.0203839 4.59887C0.0316578 4.62339 0.0470543 4.64512 0.0656843 4.66278C0.0843143 4.68044 0.105809 4.69369 0.128926 4.70176C0.152043 4.70984 0.176326 4.71258 0.200371 4.70982H4.64338C4.65724 4.70982 4.67054 4.71614 4.68034 4.72739C4.69014 4.73864 4.69565 4.7539 4.69565 4.76981V6.50938C4.6958 6.52633 4.69058 6.54277 4.68097 6.55564C4.67136 6.56851 4.658 6.57694 4.64338 6.57936H0.217795C0.189613 6.57801 0.161485 6.58322 0.135104 6.59468C0.108723 6.60613 0.0846336 6.62359 0.0642863 6.64601C0.0439389 6.66842 0.0277542 6.69533 0.0167063 6.72511C0.00565833 6.7549 -2.44165e-05 6.78694 7.88534e-08 6.8193V7.99901" fill="#9C7339"/>
<path d="M135.002 7.99901C135.052 8.00182 135.1 7.98258 135.138 7.94531C135.175 7.90804 135.198 7.85563 135.203 7.79906V3.48013C135.201 3.45251 135.194 3.42566 135.182 3.40113C135.171 3.37661 135.156 3.35489 135.137 3.33722C135.118 3.31956 135.097 3.30631 135.074 3.29824C135.051 3.29016 135.026 3.28742 135.002 3.29018H130.559C130.546 3.29018 130.532 3.28386 130.522 3.27261C130.513 3.26136 130.507 3.2461 130.507 3.23019V1.49062C130.507 1.47367 130.512 1.45723 130.522 1.44436C130.531 1.43149 130.545 1.42306 130.559 1.42064H141.78C141.78 1.42064 141.832 1.42064 141.832 1.49062V3.23019C141.832 3.2461 141.827 3.26136 141.817 3.27261C141.807 3.28386 141.794 3.29018 141.78 3.29018H137.346C137.296 3.28449 137.247 3.30113 137.208 3.33658C137.169 3.37203 137.143 3.42351 137.137 3.48013V7.79906C137.139 7.82799 137.146 7.85613 137.158 7.88187C137.17 7.90761 137.186 7.93043 137.205 7.94902C137.224 7.96761 137.247 7.9816 137.271 7.99018C137.295 7.99876 137.321 8.00176 137.346 7.99901H151.285C151.334 8.00182 151.383 7.98258 151.42 7.94531C151.457 7.90804 151.481 7.85563 151.485 7.79906V3.48013C151.483 3.45251 151.476 3.42566 151.465 3.40113C151.453 3.37661 151.438 3.35489 151.419 3.33722C151.401 3.31956 151.379 3.30631 151.356 3.29824C151.333 3.29016 151.309 3.28742 151.285 3.29018H146.842C146.828 3.29018 146.815 3.28386 146.805 3.27261C146.795 3.26136 146.789 3.2461 146.789 3.23019V1.49062C146.789 1.47367 146.795 1.45723 146.804 1.44436C146.814 1.43149 146.827 1.42306 146.842 1.42064H158.106C158.122 1.42064 158.138 1.42801 158.149 1.44113C158.161 1.45426 158.167 1.47206 158.167 1.49062V3.23019C158.165 3.24697 158.158 3.2623 158.146 3.27333C158.135 3.28436 158.121 3.29035 158.106 3.29018H153.672C153.648 3.28742 153.623 3.29016 153.6 3.29824C153.577 3.30631 153.556 3.31956 153.537 3.33722C153.518 3.35489 153.503 3.37661 153.492 3.40113C153.48 3.42566 153.474 3.45251 153.471 3.48013V7.79906C153.476 7.85563 153.499 7.90804 153.537 7.94531C153.574 7.98258 153.622 8.00182 153.672 7.99901H167.611C167.636 8.00176 167.661 7.99876 167.685 7.99018C167.71 7.9816 167.732 7.96761 167.751 7.94902C167.771 7.93043 167.787 7.90761 167.799 7.88187C167.81 7.85613 167.818 7.82799 167.82 7.79906V3.48013C167.813 3.42351 167.788 3.37203 167.749 3.33658C167.71 3.30113 167.66 3.28449 167.611 3.29018H163.22C163.206 3.29018 163.193 3.28386 163.183 3.27261C163.173 3.26136 163.168 3.2461 163.168 3.23019V1.49062C163.168 1.49062 163.168 1.42064 163.22 1.42064H174.441C174.455 1.42306 174.469 1.43149 174.478 1.44436C174.488 1.45723 174.493 1.47367 174.493 1.49062V3.23019C174.493 3.2461 174.487 3.26136 174.478 3.27261C174.468 3.28386 174.455 3.29018 174.441 3.29018H169.998C169.974 3.28742 169.949 3.29016 169.926 3.29824C169.903 3.30631 169.882 3.31956 169.863 3.33722C169.844 3.35489 169.829 3.37661 169.818 3.40113C169.806 3.42566 169.799 3.45251 169.797 3.48013V7.79906C169.802 7.85563 169.825 7.90804 169.862 7.94531C169.9 7.98258 169.948 8.00182 169.998 7.99901H183.989C184.038 8.00182 184.087 7.98258 184.124 7.94531C184.161 7.90804 184.185 7.85563 184.189 7.79906V3.48013C184.183 3.42537 184.158 3.37542 184.121 3.34022C184.084 3.30503 184.037 3.28716 183.989 3.29018H179.528C179.524 3.28106 179.521 3.27071 179.521 3.26018C179.521 3.24965 179.524 3.23931 179.528 3.23019V1.49062C179.523 1.47998 179.52 1.46791 179.52 1.45563C179.52 1.44334 179.523 1.43128 179.528 1.42064H190.767C190.781 1.42306 190.794 1.43149 190.804 1.44436C190.814 1.45723 190.819 1.47367 190.819 1.49062V3.23019C190.819 3.23807 190.817 3.24587 190.815 3.25315C190.812 3.26042 190.808 3.26704 190.803 3.27261C190.799 3.27818 190.793 3.28259 190.787 3.28561C190.78 3.28862 190.773 3.29018 190.767 3.29018H186.324C186.275 3.28716 186.228 3.30503 186.191 3.34022C186.154 3.37542 186.13 3.42537 186.123 3.48013V7.79906C186.128 7.85563 186.151 7.90804 186.188 7.94531C186.226 7.98258 186.274 8.00182 186.324 7.99901H200.315C200.364 8.00182 200.413 7.98258 200.45 7.94531C200.487 7.90804 200.511 7.85563 200.515 7.79906V3.48013C200.513 3.45251 200.506 3.42566 200.495 3.40113C200.483 3.37661 200.468 3.35489 200.449 3.33722C200.431 3.31956 200.409 3.30631 200.386 3.29824C200.363 3.29016 200.339 3.28742 200.315 3.29018H195.872C195.858 3.29018 195.844 3.28386 195.835 3.27261C195.825 3.26136 195.819 3.2461 195.819 3.23019V1.49062C195.819 1.47367 195.824 1.45723 195.834 1.44436C195.844 1.43149 195.857 1.42306 195.872 1.42064H207.092C207.092 1.42064 207.145 1.42064 207.145 1.49062V3.23019C207.145 3.2461 207.139 3.26136 207.129 3.27261C207.12 3.28386 207.106 3.29018 207.092 3.29018H202.658C202.609 3.28449 202.559 3.30113 202.52 3.33658C202.481 3.37203 202.456 3.42351 202.449 3.48013V7.79906C202.451 7.82799 202.458 7.85613 202.47 7.88187C202.482 7.90761 202.498 7.93043 202.517 7.94902C202.537 7.96761 202.559 7.9816 202.583 7.99018C202.607 7.99876 202.633 8.00176 202.658 7.99901H216.597C216.646 8.00182 216.695 7.98258 216.732 7.94531C216.77 7.90804 216.793 7.85563 216.797 7.79906V3.48013C216.795 3.45251 216.788 3.42566 216.777 3.40113C216.766 3.37661 216.75 3.35489 216.732 3.33722C216.713 3.31956 216.691 3.30631 216.668 3.29824C216.645 3.29016 216.621 3.28742 216.597 3.29018H212.197C212.184 3.29018 212.17 3.28386 212.161 3.27261C212.151 3.26136 212.145 3.2461 212.145 3.23019V1.49062C212.145 1.47367 212.15 1.45723 212.16 1.44436C212.169 1.43149 212.183 1.42306 212.197 1.42064H223.427C223.442 1.42306 223.455 1.43149 223.465 1.44436C223.474 1.45723 223.479 1.47367 223.479 1.49062V3.23019C223.479 3.2461 223.474 3.26136 223.464 3.27261C223.454 3.28386 223.441 3.29018 223.427 3.29018H218.984C218.96 3.28742 218.936 3.29016 218.913 3.29824C218.889 3.30631 218.868 3.31956 218.849 3.33722C218.831 3.35489 218.815 3.37661 218.804 3.40113C218.793 3.42566 218.786 3.45251 218.784 3.48013V7.79906C218.788 7.85563 218.811 7.90804 218.849 7.94531C218.886 7.98258 218.935 8.00182 218.984 7.99901H232.923C232.948 8.00176 232.973 7.99876 232.998 7.99018C233.022 7.9816 233.044 7.96761 233.064 7.94902C233.083 7.93043 233.099 7.90761 233.111 7.88187C233.123 7.85613 233.13 7.82799 233.132 7.79906V3.48013C233.125 3.42351 233.1 3.37203 233.061 3.33658C233.022 3.30113 232.972 3.28449 232.923 3.29018H228.489C228.475 3.29018 228.461 3.28386 228.452 3.27261C228.442 3.26136 228.436 3.2461 228.436 3.23019V1.49062C228.436 1.49062 228.436 1.42064 228.489 1.42064H239.709C239.724 1.42306 239.737 1.43149 239.747 1.44436C239.757 1.45723 239.762 1.47367 239.762 1.49062V3.23019C239.762 3.2461 239.756 3.26136 239.746 3.27261C239.736 3.28386 239.723 3.29018 239.709 3.29018H235.284C235.26 3.28742 235.235 3.29016 235.212 3.29824C235.189 3.30631 235.168 3.31956 235.149 3.33722C235.13 3.35489 235.115 3.37661 235.104 3.40113C235.092 3.42566 235.085 3.45251 235.083 3.48013V7.79906C235.088 7.85563 235.111 7.90804 235.148 7.94531C235.186 7.98258 235.234 8.00182 235.284 7.99901H249.275C249.324 8.00182 249.373 7.98258 249.41 7.94531C249.447 7.90804 249.471 7.85563 249.475 7.79906V3.48013C249.469 3.42537 249.444 3.37542 249.407 3.34022C249.37 3.30503 249.323 3.28716 249.275 3.29018H244.867C244.853 3.29018 244.839 3.28386 244.83 3.27261C244.82 3.26136 244.814 3.2461 244.814 3.23019V1.49062C244.814 1.49062 244.814 1.42064 244.867 1.42064H256.087C256.102 1.42306 256.115 1.43149 256.125 1.44436C256.135 1.45723 256.14 1.47367 256.14 1.49062V3.23019C256.14 3.2461 256.134 3.26136 256.124 3.27261C256.115 3.28386 256.101 3.29018 256.087 3.29018H251.644C251.596 3.28716 251.549 3.30503 251.512 3.34022C251.475 3.37542 251.451 3.42537 251.444 3.48013V7.79906C251.448 7.85563 251.472 7.90804 251.509 7.94531C251.547 7.98258 251.595 8.00182 251.644 7.99901H257.42C257.47 8.00182 257.518 7.98258 257.556 7.94531C257.593 7.90804 257.616 7.85563 257.621 7.79906V6.79931C257.619 6.77169 257.612 6.74484 257.6 6.72032C257.589 6.69579 257.574 6.67407 257.555 6.6564C257.536 6.63874 257.515 6.62549 257.492 6.61742C257.469 6.60934 257.444 6.6066 257.42 6.60936H252.977C252.963 6.60694 252.949 6.59851 252.94 6.58563C252.93 6.57276 252.925 6.55633 252.925 6.53937V4.76981C252.925 4.7539 252.931 4.73864 252.94 4.72739C252.95 4.71614 252.963 4.70982 252.977 4.70982H257.42C257.444 4.71258 257.469 4.70984 257.492 4.70176C257.515 4.69369 257.536 4.68044 257.555 4.66278C257.574 4.64512 257.589 4.62339 257.6 4.59887C257.612 4.57434 257.619 4.54749 257.621 4.51987V0.200938C257.616 0.144368 257.593 0.0919617 257.556 0.0546914C257.518 0.0174212 257.47 -0.00182321 257.42 0.000987442H243.481C243.432 -0.00182321 243.384 0.0174212 243.346 0.0546914C243.309 0.0919617 243.286 0.144368 243.281 0.200938V4.51987C243.283 4.54749 243.29 4.57434 243.301 4.59887C243.313 4.62339 243.328 4.64512 243.347 4.66278C243.365 4.68044 243.387 4.69369 243.41 4.70176C243.433 4.70984 243.457 4.71258 243.481 4.70982H247.924C247.938 4.70982 247.952 4.71614 247.961 4.72739C247.971 4.73864 247.977 4.7539 247.977 4.76981V6.50938C247.977 6.52633 247.972 6.54277 247.962 6.55564C247.952 6.56851 247.939 6.57694 247.924 6.57936H236.695C236.695 6.57936 236.643 6.57936 236.643 6.50938V4.76981C236.643 4.7539 236.648 4.73864 236.658 4.72739C236.668 4.71614 236.681 4.70982 236.695 4.70982H241.129C241.179 4.71551 241.228 4.69887 241.267 4.66342C241.306 4.62797 241.332 4.57649 241.338 4.51987V0.200938C241.336 0.17201 241.329 0.143865 241.317 0.118127C241.306 0.0923892 241.29 0.0695676 241.27 0.0509787C241.251 0.0323899 241.228 0.018402 241.204 0.00982181C241.18 0.00124164 241.154 -0.00176088 241.129 0.000987442H227.147C227.097 -0.00182321 227.049 0.0174212 227.012 0.0546914C226.974 0.0919617 226.951 0.144368 226.947 0.200938V4.51987C226.949 4.54749 226.956 4.57434 226.967 4.59887C226.978 4.62339 226.994 4.64512 227.012 4.66278C227.031 4.68044 227.052 4.69369 227.075 4.70176C227.099 4.70984 227.123 4.71258 227.147 4.70982H231.59C231.604 4.70982 231.617 4.71614 231.627 4.72739C231.637 4.73864 231.642 4.7539 231.642 4.76981V6.50938C231.642 6.52633 231.637 6.54277 231.628 6.55564C231.618 6.56851 231.605 6.57694 231.59 6.57936H220.36C220.346 6.57694 220.332 6.56851 220.323 6.55564C220.313 6.54277 220.308 6.52633 220.308 6.50938V4.76981C220.308 4.7539 220.314 4.73864 220.323 4.72739C220.333 4.71614 220.347 4.70982 220.36 4.70982H224.83C224.854 4.71258 224.878 4.70984 224.901 4.70176C224.924 4.69369 224.946 4.68044 224.964 4.66278C224.983 4.64512 224.998 4.62339 225.01 4.59887C225.021 4.57434 225.028 4.54749 225.03 4.51987V0.200938C225.025 0.144368 225.002 0.0919617 224.965 0.0546914C224.927 0.0174212 224.879 -0.00182321 224.83 0.000987442H210.891C210.866 -0.00176088 210.84 0.00124164 210.816 0.00982181C210.792 0.018402 210.769 0.0323899 210.75 0.0509787C210.73 0.0695676 210.714 0.0923892 210.703 0.118127C210.691 0.143865 210.684 0.17201 210.682 0.200938V4.51987C210.688 4.57649 210.714 4.62797 210.753 4.66342C210.792 4.69887 210.841 4.71551 210.891 4.70982H215.247C215.261 4.70965 215.276 4.71564 215.287 4.72667C215.298 4.7377 215.305 4.75303 215.308 4.76981V6.50938C215.308 6.51857 215.306 6.52767 215.303 6.53616C215.3 6.54465 215.295 6.55237 215.29 6.55887C215.284 6.56536 215.277 6.57052 215.27 6.57404C215.263 6.57755 215.255 6.57936 215.247 6.57936H204.035C204.02 6.57694 204.007 6.56851 203.997 6.55564C203.987 6.54277 203.982 6.52633 203.982 6.50938V4.76981C203.982 4.7539 203.988 4.73864 203.998 4.72739C204.007 4.71614 204.021 4.70982 204.035 4.70982H208.478C208.502 4.71258 208.526 4.70984 208.549 4.70176C208.572 4.69369 208.594 4.68044 208.612 4.66278C208.631 4.64512 208.646 4.62339 208.658 4.59887C208.669 4.57434 208.676 4.54749 208.678 4.51987V0.200938C208.673 0.144368 208.65 0.0919617 208.613 0.0546914C208.575 0.0174212 208.527 -0.00182321 208.478 0.000987442H194.486C194.437 -0.00182321 194.389 0.0174212 194.351 0.0546914C194.314 0.0919617 194.291 0.144368 194.286 0.200938V4.51987C194.293 4.57463 194.317 4.62458 194.354 4.65978C194.391 4.69497 194.438 4.71284 194.486 4.70982H198.929C198.936 4.70982 198.943 4.71138 198.949 4.71439C198.956 4.71741 198.962 4.72182 198.966 4.72739C198.971 4.73296 198.975 4.73958 198.978 4.74685C198.98 4.75413 198.982 4.76193 198.982 4.76981V6.50938C198.982 6.50938 198.982 6.57936 198.929 6.57936H187.709C187.694 6.57694 187.681 6.56851 187.671 6.55564C187.661 6.54277 187.656 6.52633 187.656 6.50938V4.76981C187.656 4.7539 187.662 4.73864 187.672 4.72739C187.682 4.71614 187.695 4.70982 187.709 4.70982H192.152C192.2 4.71284 192.247 4.69497 192.284 4.65978C192.321 4.62458 192.346 4.57463 192.352 4.51987V0.200938C192.348 0.144368 192.324 0.0919617 192.287 0.0546914C192.25 0.0174212 192.201 -0.00182321 192.152 0.000987442H178.161C178.111 -0.00182321 178.063 0.0174212 178.025 0.0546914C177.988 0.0919617 177.965 0.144368 177.96 0.200938V4.51987C177.962 4.54749 177.969 4.57434 177.981 4.59887C177.992 4.62339 178.007 4.64512 178.026 4.66278C178.045 4.68044 178.066 4.69369 178.089 4.70176C178.112 4.70984 178.137 4.71258 178.161 4.70982H182.604C182.617 4.70982 182.631 4.71614 182.641 4.72739C182.65 4.73864 182.656 4.7539 182.656 4.76981V6.50938C182.656 6.52633 182.651 6.54277 182.641 6.55564C182.632 6.56851 182.618 6.57694 182.604 6.57936H171.383C171.383 6.57936 171.331 6.57936 171.331 6.50938V4.76981C171.331 4.7539 171.336 4.73864 171.346 4.72739C171.356 4.71614 171.369 4.70982 171.383 4.70982H175.817C175.843 4.71553 175.87 4.71506 175.895 4.70846C175.921 4.70185 175.945 4.68924 175.966 4.67142C175.988 4.6536 176.005 4.63094 176.019 4.60487C176.032 4.5788 176.04 4.54986 176.044 4.51987V0.200938C176.041 0.17201 176.034 0.143865 176.023 0.118127C176.011 0.0923892 175.995 0.0695676 175.975 0.0509787C175.956 0.0323899 175.933 0.018402 175.909 0.00982181C175.885 0.00124164 175.86 -0.00176088 175.835 0.000987442H161.835C161.785 -0.00182321 161.737 0.0174212 161.699 0.0546914C161.662 0.0919617 161.639 0.144368 161.634 0.200938V4.51987C161.637 4.54749 161.643 4.57434 161.655 4.59887C161.666 4.62339 161.681 4.64512 161.7 4.66278C161.719 4.68044 161.74 4.69369 161.763 4.70176C161.786 4.70984 161.811 4.71258 161.835 4.70982H166.278C166.292 4.70982 166.305 4.71614 166.315 4.72739C166.324 4.73864 166.33 4.7539 166.33 4.76981V6.50938C166.33 6.52633 166.325 6.54277 166.315 6.55564C166.306 6.56851 166.292 6.57694 166.278 6.57936H155.048C155.034 6.57694 155.02 6.56851 155.011 6.55564C155.001 6.54277 154.996 6.52633 154.996 6.50938V4.76981C154.996 4.7539 155.001 4.73864 155.011 4.72739C155.021 4.71614 155.034 4.70982 155.048 4.70982H159.491C159.515 4.71258 159.54 4.70984 159.563 4.70176C159.586 4.69369 159.607 4.68044 159.626 4.66278C159.645 4.64512 159.66 4.62339 159.671 4.59887C159.682 4.57434 159.689 4.54749 159.692 4.51987V0.200938C159.687 0.144368 159.664 0.0919617 159.626 0.0546914C159.589 0.0174212 159.541 -0.00182321 159.491 0.000987442H145.552C145.527 -0.00176088 145.502 0.00124164 145.478 0.00982181C145.453 0.018402 145.431 0.0323899 145.412 0.0509787C145.392 0.0695676 145.376 0.0923892 145.364 0.118127C145.353 0.143865 145.345 0.17201 145.343 0.200938V4.51987C145.35 4.57649 145.375 4.62797 145.414 4.66342C145.453 4.69887 145.503 4.71551 145.552 4.70982H149.908C149.922 4.70982 149.935 4.71614 149.945 4.72739C149.955 4.73864 149.961 4.7539 149.961 4.76981V6.50938C149.961 6.50938 149.961 6.57936 149.908 6.57936H138.722C138.708 6.57694 138.694 6.56851 138.685 6.55564C138.675 6.54277 138.67 6.52633 138.67 6.50938V4.76981C138.67 4.76193 138.671 4.75413 138.674 4.74685C138.677 4.73958 138.681 4.73296 138.685 4.72739C138.69 4.72182 138.696 4.71741 138.702 4.71439C138.709 4.71138 138.715 4.70982 138.722 4.70982H143.165C143.189 4.71258 143.214 4.70984 143.237 4.70176C143.26 4.69369 143.281 4.68044 143.3 4.66278C143.319 4.64512 143.334 4.62339 143.345 4.59887C143.357 4.57434 143.364 4.54749 143.366 4.51987V0.200938C143.361 0.144368 143.338 0.0919617 143.301 0.0546914C143.263 0.0174212 143.215 -0.00182321 143.165 0.000987442H129.2C129.151 -0.00182321 129.102 0.0174212 129.065 0.0546914C129.028 0.0919617 129.004 0.144368 129 0.200938V4.51987C129.002 4.54749 129.009 4.57434 129.02 4.59887C129.032 4.62339 129.047 4.64512 129.066 4.66278C129.084 4.68044 129.106 4.69369 129.129 4.70176C129.152 4.70984 129.176 4.71258 129.2 4.70982H133.643C133.657 4.70982 133.671 4.71614 133.68 4.72739C133.69 4.73864 133.696 4.7539 133.696 4.76981V6.50938C133.696 6.52633 133.691 6.54277 133.681 6.55564C133.671 6.56851 133.658 6.57694 133.643 6.57936H129.218C129.19 6.57801 129.161 6.58322 129.135 6.59468C129.109 6.60613 129.085 6.62359 129.064 6.64601C129.044 6.66842 129.028 6.69533 129.017 6.72511C129.006 6.7549 129 6.78694 129 6.8193V7.99901" fill="#9C7339"/>
<path d="M264.002 7.99901C264.052 8.00182 264.1 7.98258 264.138 7.94531C264.175 7.90804 264.198 7.85563 264.203 7.79906V3.48013C264.201 3.45251 264.194 3.42566 264.182 3.40113C264.171 3.37661 264.156 3.35489 264.137 3.33722C264.118 3.31956 264.097 3.30631 264.074 3.29824C264.051 3.29016 264.026 3.28742 264.002 3.29018H259.559C259.546 3.29018 259.532 3.28386 259.522 3.27261C259.513 3.26136 259.507 3.2461 259.507 3.23019V1.49062C259.507 1.47367 259.512 1.45723 259.522 1.44436C259.531 1.43149 259.545 1.42306 259.559 1.42064H270.78C270.78 1.42064 270.832 1.42064 270.832 1.49062V3.23019C270.832 3.2461 270.827 3.26136 270.817 3.27261C270.807 3.28386 270.794 3.29018 270.78 3.29018H266.346C266.296 3.28449 266.247 3.30113 266.208 3.33658C266.169 3.37203 266.143 3.42351 266.137 3.48013V7.79906C266.139 7.82799 266.146 7.85613 266.158 7.88187C266.17 7.90761 266.186 7.93043 266.205 7.94902C266.224 7.96761 266.247 7.9816 266.271 7.99018C266.295 7.99876 266.321 8.00176 266.346 7.99901H280.285C280.334 8.00182 280.383 7.98258 280.42 7.94531C280.457 7.90804 280.481 7.85563 280.485 7.79906V3.48013C280.483 3.45251 280.476 3.42566 280.465 3.40113C280.453 3.37661 280.438 3.35489 280.419 3.33722C280.401 3.31956 280.379 3.30631 280.356 3.29824C280.333 3.29016 280.309 3.28742 280.285 3.29018H275.842C275.828 3.29018 275.815 3.28386 275.805 3.27261C275.795 3.26136 275.789 3.2461 275.789 3.23019V1.49062C275.789 1.47367 275.795 1.45723 275.804 1.44436C275.814 1.43149 275.827 1.42306 275.842 1.42064H287.106C287.122 1.42064 287.138 1.42801 287.149 1.44113C287.161 1.45426 287.167 1.47206 287.167 1.49062V3.23019C287.165 3.24697 287.158 3.2623 287.146 3.27333C287.135 3.28436 287.121 3.29035 287.106 3.29018H282.672C282.648 3.28742 282.623 3.29016 282.6 3.29824C282.577 3.30631 282.556 3.31956 282.537 3.33722C282.518 3.35489 282.503 3.37661 282.492 3.40113C282.48 3.42566 282.474 3.45251 282.471 3.48013V7.79906C282.476 7.85563 282.499 7.90804 282.536 7.94531C282.574 7.98258 282.622 8.00182 282.672 7.99901H296.611C296.636 8.00176 296.661 7.99876 296.685 7.99018C296.71 7.9816 296.732 7.96761 296.751 7.94902C296.771 7.93043 296.787 7.90761 296.799 7.88187C296.81 7.85613 296.818 7.82799 296.82 7.79906V3.48013C296.813 3.42351 296.788 3.37203 296.749 3.33658C296.71 3.30113 296.66 3.28449 296.611 3.29018H292.22C292.206 3.29018 292.193 3.28386 292.183 3.27261C292.173 3.26136 292.168 3.2461 292.168 3.23019V1.49062C292.168 1.49062 292.168 1.42064 292.22 1.42064H303.441C303.455 1.42306 303.469 1.43149 303.478 1.44436C303.488 1.45723 303.493 1.47367 303.493 1.49062V3.23019C303.493 3.2461 303.487 3.26136 303.478 3.27261C303.468 3.28386 303.455 3.29018 303.441 3.29018H298.998C298.974 3.28742 298.949 3.29016 298.926 3.29824C298.903 3.30631 298.882 3.31956 298.863 3.33722C298.844 3.35489 298.829 3.37661 298.818 3.40113C298.806 3.42566 298.799 3.45251 298.797 3.48013V7.79906C298.802 7.85563 298.825 7.90804 298.862 7.94531C298.9 7.98258 298.948 8.00182 298.998 7.99901H312.989C313.038 8.00182 313.087 7.98258 313.124 7.94531C313.161 7.90804 313.185 7.85563 313.189 7.79906V3.48013C313.183 3.42537 313.158 3.37542 313.121 3.34022C313.084 3.30503 313.037 3.28716 312.989 3.29018H308.528C308.524 3.28106 308.521 3.27071 308.521 3.26018C308.521 3.24965 308.524 3.23931 308.528 3.23019V1.49062C308.523 1.47998 308.52 1.46791 308.52 1.45563C308.52 1.44334 308.523 1.43128 308.528 1.42064H319.767C319.781 1.42306 319.794 1.43149 319.804 1.44436C319.814 1.45723 319.819 1.47367 319.819 1.49062V3.23019C319.819 3.23807 319.817 3.24587 319.815 3.25315C319.812 3.26042 319.808 3.26704 319.803 3.27261C319.799 3.27818 319.793 3.28259 319.786 3.28561C319.78 3.28862 319.773 3.29018 319.767 3.29018H315.323C315.275 3.28716 315.228 3.30503 315.191 3.34022C315.154 3.37542 315.13 3.42537 315.123 3.48013V7.79906C315.128 7.85563 315.151 7.90804 315.188 7.94531C315.226 7.98258 315.274 8.00182 315.323 7.99901H329.315C329.364 8.00182 329.413 7.98258 329.45 7.94531C329.487 7.90804 329.511 7.85563 329.515 7.79906V3.48013C329.513 3.45251 329.506 3.42566 329.495 3.40113C329.483 3.37661 329.468 3.35489 329.449 3.33722C329.431 3.31956 329.409 3.30631 329.386 3.29824C329.363 3.29016 329.339 3.28742 329.315 3.29018H324.872C324.858 3.29018 324.844 3.28386 324.835 3.27261C324.825 3.26136 324.819 3.2461 324.819 3.23019V1.49062C324.819 1.47367 324.824 1.45723 324.834 1.44436C324.844 1.43149 324.857 1.42306 324.872 1.42064H336.092C336.092 1.42064 336.145 1.42064 336.145 1.49062V3.23019C336.145 3.2461 336.139 3.26136 336.129 3.27261C336.12 3.28386 336.106 3.29018 336.092 3.29018H331.658C331.609 3.28449 331.559 3.30113 331.52 3.33658C331.481 3.37203 331.456 3.42351 331.449 3.48013V7.79906C331.451 7.82799 331.458 7.85613 331.47 7.88187C331.482 7.90761 331.498 7.93043 331.517 7.94902C331.537 7.96761 331.559 7.9816 331.583 7.99018C331.607 7.99876 331.633 8.00176 331.658 7.99901H345.597C345.646 8.00182 345.695 7.98258 345.732 7.94531C345.77 7.90804 345.793 7.85563 345.797 7.79906V3.48013C345.795 3.45251 345.788 3.42566 345.777 3.40113C345.766 3.37661 345.75 3.35489 345.732 3.33722C345.713 3.31956 345.692 3.30631 345.668 3.29824C345.645 3.29016 345.621 3.28742 345.597 3.29018H341.197C341.184 3.29018 341.17 3.28386 341.161 3.27261C341.151 3.26136 341.145 3.2461 341.145 3.23019V1.49062C341.145 1.47367 341.15 1.45723 341.16 1.44436C341.169 1.43149 341.183 1.42306 341.197 1.42064H352.427C352.442 1.42306 352.455 1.43149 352.465 1.44436C352.474 1.45723 352.479 1.47367 352.479 1.49062V3.23019C352.479 3.2461 352.474 3.26136 352.464 3.27261C352.454 3.28386 352.441 3.29018 352.427 3.29018H347.984C347.96 3.28742 347.936 3.29016 347.913 3.29824C347.889 3.30631 347.868 3.31956 347.849 3.33722C347.831 3.35489 347.815 3.37661 347.804 3.40113C347.793 3.42566 347.786 3.45251 347.784 3.48013V7.79906C347.788 7.85563 347.811 7.90804 347.849 7.94531C347.886 7.98258 347.935 8.00182 347.984 7.99901H361.923C361.948 8.00176 361.973 7.99876 361.998 7.99018C362.022 7.9816 362.044 7.96761 362.064 7.94902C362.083 7.93043 362.099 7.90761 362.111 7.88187C362.123 7.85613 362.13 7.82799 362.132 7.79906V3.48013C362.125 3.42351 362.1 3.37203 362.061 3.33658C362.022 3.30113 361.972 3.28449 361.923 3.29018H357.489C357.475 3.29018 357.461 3.28386 357.452 3.27261C357.442 3.26136 357.436 3.2461 357.436 3.23019V1.49062C357.436 1.49062 357.436 1.42064 357.489 1.42064H368.709C368.724 1.42306 368.737 1.43149 368.747 1.44436C368.757 1.45723 368.762 1.47367 368.762 1.49062V3.23019C368.762 3.2461 368.756 3.26136 368.746 3.27261C368.736 3.28386 368.723 3.29018 368.709 3.29018H364.284C364.26 3.28742 364.235 3.29016 364.212 3.29824C364.189 3.30631 364.168 3.31956 364.149 3.33722C364.13 3.35489 364.115 3.37661 364.104 3.40113C364.092 3.42566 364.085 3.45251 364.083 3.48013V7.79906C364.088 7.85563 364.111 7.90804 364.148 7.94531C364.186 7.98258 364.234 8.00182 364.284 7.99901H378.275C378.324 8.00182 378.373 7.98258 378.41 7.94531C378.447 7.90804 378.471 7.85563 378.475 7.79906V3.48013C378.469 3.42537 378.444 3.37542 378.407 3.34022C378.37 3.30503 378.323 3.28716 378.275 3.29018H373.867C373.853 3.29018 373.84 3.28386 373.83 3.27261C373.82 3.26136 373.814 3.2461 373.814 3.23019V1.49062C373.814 1.49062 373.814 1.42064 373.867 1.42064H385.087C385.102 1.42306 385.115 1.43149 385.125 1.44436C385.135 1.45723 385.14 1.47367 385.14 1.49062V3.23019C385.14 3.2461 385.134 3.26136 385.124 3.27261C385.115 3.28386 385.101 3.29018 385.087 3.29018H380.644C380.596 3.28716 380.549 3.30503 380.512 3.34022C380.475 3.37542 380.451 3.42537 380.444 3.48013V7.79906C380.448 7.85563 380.472 7.90804 380.509 7.94531C380.547 7.98258 380.595 8.00182 380.644 7.99901H386.42C386.47 8.00182 386.518 7.98258 386.556 7.94531C386.593 7.90804 386.616 7.85563 386.621 7.79906V6.79931C386.619 6.77169 386.612 6.74484 386.6 6.72032C386.589 6.69579 386.574 6.67407 386.555 6.6564C386.536 6.63874 386.515 6.62549 386.492 6.61742C386.469 6.60934 386.444 6.6066 386.42 6.60936H381.977C381.963 6.60694 381.949 6.59851 381.94 6.58563C381.93 6.57276 381.925 6.55633 381.925 6.53937V4.76981C381.925 4.7539 381.931 4.73864 381.94 4.72739C381.95 4.71614 381.963 4.70982 381.977 4.70982H386.42C386.444 4.71258 386.469 4.70984 386.492 4.70176C386.515 4.69369 386.536 4.68044 386.555 4.66278C386.574 4.64512 386.589 4.62339 386.6 4.59887C386.612 4.57434 386.619 4.54749 386.621 4.51987V0.200938C386.616 0.144368 386.593 0.0919617 386.556 0.0546914C386.518 0.0174212 386.47 -0.00182321 386.42 0.000987442H372.481C372.432 -0.00182321 372.384 0.0174212 372.346 0.0546914C372.309 0.0919617 372.286 0.144368 372.281 0.200938V4.51987C372.283 4.54749 372.29 4.57434 372.302 4.59887C372.313 4.62339 372.328 4.64512 372.347 4.66278C372.365 4.68044 372.387 4.69369 372.41 4.70176C372.433 4.70984 372.457 4.71258 372.481 4.70982H376.924C376.938 4.70982 376.952 4.71614 376.961 4.72739C376.971 4.73864 376.977 4.7539 376.977 4.76981V6.50938C376.977 6.52633 376.972 6.54277 376.962 6.55564C376.952 6.56851 376.939 6.57694 376.924 6.57936H365.695C365.695 6.57936 365.643 6.57936 365.643 6.50938V4.76981C365.643 4.7539 365.648 4.73864 365.658 4.72739C365.668 4.71614 365.681 4.70982 365.695 4.70982H370.129C370.179 4.71551 370.228 4.69887 370.267 4.66342C370.306 4.62797 370.332 4.57649 370.338 4.51987V0.200938C370.336 0.17201 370.329 0.143865 370.317 0.118127C370.306 0.0923892 370.29 0.0695676 370.27 0.0509787C370.251 0.0323899 370.228 0.018402 370.204 0.00982181C370.18 0.00124164 370.154 -0.00176088 370.129 0.000987442H356.147C356.097 -0.00182321 356.049 0.0174212 356.012 0.0546914C355.974 0.0919617 355.951 0.144368 355.947 0.200938V4.51987C355.949 4.54749 355.956 4.57434 355.967 4.59887C355.978 4.62339 355.994 4.64512 356.012 4.66278C356.031 4.68044 356.052 4.69369 356.075 4.70176C356.099 4.70984 356.123 4.71258 356.147 4.70982H360.59C360.604 4.70982 360.617 4.71614 360.627 4.72739C360.637 4.73864 360.642 4.7539 360.642 4.76981V6.50938C360.642 6.52633 360.637 6.54277 360.628 6.55564C360.618 6.56851 360.605 6.57694 360.59 6.57936H349.36C349.346 6.57694 349.332 6.56851 349.323 6.55564C349.313 6.54277 349.308 6.52633 349.308 6.50938V4.76981C349.308 4.7539 349.314 4.73864 349.323 4.72739C349.333 4.71614 349.347 4.70982 349.36 4.70982H353.83C353.854 4.71258 353.878 4.70984 353.901 4.70176C353.924 4.69369 353.946 4.68044 353.964 4.66278C353.983 4.64512 353.998 4.62339 354.01 4.59887C354.021 4.57434 354.028 4.54749 354.03 4.51987V0.200938C354.025 0.144368 354.002 0.0919617 353.965 0.0546914C353.927 0.0174212 353.879 -0.00182321 353.83 0.000987442H339.891C339.866 -0.00176088 339.84 0.00124164 339.816 0.00982181C339.792 0.018402 339.769 0.0323899 339.75 0.0509787C339.73 0.0695676 339.714 0.0923892 339.703 0.118127C339.691 0.143865 339.684 0.17201 339.682 0.200938V4.51987C339.688 4.57649 339.714 4.62797 339.753 4.66342C339.792 4.69887 339.841 4.71551 339.891 4.70982H344.247C344.261 4.70965 344.276 4.71564 344.287 4.72667C344.298 4.7377 344.305 4.75303 344.308 4.76981V6.50938C344.308 6.51857 344.306 6.52767 344.303 6.53616C344.3 6.54465 344.295 6.55237 344.29 6.55887C344.284 6.56536 344.277 6.57052 344.27 6.57404C344.263 6.57755 344.255 6.57936 344.247 6.57936H333.035C333.02 6.57694 333.007 6.56851 332.997 6.55564C332.987 6.54277 332.982 6.52633 332.982 6.50938V4.76981C332.982 4.7539 332.988 4.73864 332.998 4.72739C333.007 4.71614 333.021 4.70982 333.035 4.70982H337.478C337.502 4.71258 337.526 4.70984 337.549 4.70176C337.572 4.69369 337.594 4.68044 337.612 4.66278C337.631 4.64512 337.646 4.62339 337.658 4.59887C337.669 4.57434 337.676 4.54749 337.678 4.51987V0.200938C337.673 0.144368 337.65 0.0919617 337.613 0.0546914C337.575 0.0174212 337.527 -0.00182321 337.478 0.000987442H323.486C323.437 -0.00182321 323.389 0.0174212 323.351 0.0546914C323.314 0.0919617 323.291 0.144368 323.286 0.200938V4.51987C323.293 4.57463 323.317 4.62458 323.354 4.65978C323.391 4.69497 323.438 4.71284 323.486 4.70982H327.929C327.936 4.70982 327.943 4.71138 327.949 4.71439C327.956 4.71741 327.962 4.72182 327.966 4.72739C327.971 4.73296 327.975 4.73958 327.978 4.74685C327.98 4.75413 327.982 4.76193 327.982 4.76981V6.50938C327.982 6.50938 327.982 6.57936 327.929 6.57936H316.709C316.694 6.57694 316.681 6.56851 316.671 6.55564C316.661 6.54277 316.656 6.52633 316.656 6.50938V4.76981C316.656 4.7539 316.662 4.73864 316.672 4.72739C316.682 4.71614 316.695 4.70982 316.709 4.70982H321.152C321.2 4.71284 321.247 4.69497 321.284 4.65978C321.321 4.62458 321.346 4.57463 321.352 4.51987V0.200938C321.348 0.144368 321.324 0.0919617 321.287 0.0546914C321.25 0.0174212 321.201 -0.00182321 321.152 0.000987442H307.161C307.111 -0.00182321 307.063 0.0174212 307.025 0.0546914C306.988 0.0919617 306.965 0.144368 306.96 0.200938V4.51987C306.962 4.54749 306.969 4.57434 306.981 4.59887C306.992 4.62339 307.007 4.64512 307.026 4.66278C307.045 4.68044 307.066 4.69369 307.089 4.70176C307.112 4.70984 307.137 4.71258 307.161 4.70982H311.604C311.617 4.70982 311.631 4.71614 311.641 4.72739C311.65 4.73864 311.656 4.7539 311.656 4.76981V6.50938C311.656 6.52633 311.651 6.54277 311.641 6.55564C311.632 6.56851 311.618 6.57694 311.604 6.57936H300.383C300.383 6.57936 300.331 6.57936 300.331 6.50938V4.76981C300.331 4.7539 300.336 4.73864 300.346 4.72739C300.356 4.71614 300.369 4.70982 300.383 4.70982H304.817C304.843 4.71553 304.87 4.71506 304.895 4.70846C304.921 4.70185 304.945 4.68924 304.966 4.67142C304.988 4.6536 305.005 4.63094 305.019 4.60487C305.032 4.5788 305.04 4.54986 305.044 4.51987V0.200938C305.041 0.17201 305.034 0.143865 305.023 0.118127C305.011 0.0923892 304.995 0.0695676 304.975 0.0509787C304.956 0.0323899 304.933 0.018402 304.909 0.00982181C304.885 0.00124164 304.86 -0.00176088 304.835 0.000987442H290.835C290.785 -0.00182321 290.737 0.0174212 290.699 0.0546914C290.662 0.0919617 290.639 0.144368 290.634 0.200938V4.51987C290.637 4.54749 290.643 4.57434 290.655 4.59887C290.666 4.62339 290.681 4.64512 290.7 4.66278C290.719 4.68044 290.74 4.69369 290.763 4.70176C290.786 4.70984 290.811 4.71258 290.835 4.70982H295.278C295.292 4.70982 295.305 4.71614 295.315 4.72739C295.324 4.73864 295.33 4.7539 295.33 4.76981V6.50938C295.33 6.52633 295.325 6.54277 295.315 6.55564C295.306 6.56851 295.292 6.57694 295.278 6.57936H284.048C284.034 6.57694 284.02 6.56851 284.011 6.55564C284.001 6.54277 283.996 6.52633 283.996 6.50938V4.76981C283.996 4.7539 284.001 4.73864 284.011 4.72739C284.021 4.71614 284.034 4.70982 284.048 4.70982H288.491C288.515 4.71258 288.54 4.70984 288.563 4.70176C288.586 4.69369 288.607 4.68044 288.626 4.66278C288.645 4.64512 288.66 4.62339 288.671 4.59887C288.682 4.57434 288.689 4.54749 288.692 4.51987V0.200938C288.687 0.144368 288.664 0.0919617 288.626 0.0546914C288.589 0.0174212 288.541 -0.00182321 288.491 0.000987442H274.552C274.527 -0.00176088 274.502 0.00124164 274.478 0.00982181C274.453 0.018402 274.431 0.0323899 274.412 0.0509787C274.392 0.0695676 274.376 0.0923892 274.364 0.118127C274.353 0.143865 274.345 0.17201 274.343 0.200938V4.51987C274.35 4.57649 274.375 4.62797 274.414 4.66342C274.453 4.69887 274.503 4.71551 274.552 4.70982H278.908C278.922 4.70982 278.935 4.71614 278.945 4.72739C278.955 4.73864 278.961 4.7539 278.961 4.76981V6.50938C278.961 6.50938 278.961 6.57936 278.908 6.57936H267.722C267.708 6.57694 267.694 6.56851 267.685 6.55564C267.675 6.54277 267.67 6.52633 267.67 6.50938V4.76981C267.67 4.76193 267.671 4.75413 267.674 4.74685C267.677 4.73958 267.681 4.73296 267.685 4.72739C267.69 4.72182 267.696 4.71741 267.702 4.71439C267.709 4.71138 267.715 4.70982 267.722 4.70982H272.165C272.189 4.71258 272.214 4.70984 272.237 4.70176C272.26 4.69369 272.281 4.68044 272.3 4.66278C272.319 4.64512 272.334 4.62339 272.345 4.59887C272.357 4.57434 272.364 4.54749 272.366 4.51987V0.200938C272.361 0.144368 272.338 0.0919617 272.301 0.0546914C272.263 0.0174212 272.215 -0.00182321 272.165 0.000987442H258.2C258.151 -0.00182321 258.102 0.0174212 258.065 0.0546914C258.028 0.0919617 258.004 0.144368 258 0.200938V4.51987C258.002 4.54749 258.009 4.57434 258.02 4.59887C258.032 4.62339 258.047 4.64512 258.066 4.66278C258.084 4.68044 258.106 4.69369 258.129 4.70176C258.152 4.70984 258.176 4.71258 258.2 4.70982H262.643C262.657 4.70982 262.671 4.71614 262.68 4.72739C262.69 4.73864 262.696 4.7539 262.696 4.76981V6.50938C262.696 6.52633 262.691 6.54277 262.681 6.55564C262.671 6.56851 262.658 6.57694 262.643 6.57936H258.218C258.19 6.57801 258.161 6.58322 258.135 6.59468C258.109 6.60613 258.085 6.62359 258.064 6.64601C258.044 6.66842 258.028 6.69533 258.017 6.72511C258.006 6.7549 258 6.78694 258 6.8193V7.99901" fill="#9C7339"/>
</svg>
