<svg width="295" height="8" viewBox="0 0 295 8" fill="none" xmlns="http://www.w3.org/2000/svg">
<path d="M6.89 8.00099C6.94674 8.0038 7.00237 7.98455 7.04525 7.94727C7.08812 7.90999 7.1149 7.85757 7.12 7.80099V3.48099C7.1175 3.45336 7.10954 3.42651 7.0966 3.40197C7.08366 3.37744 7.06599 3.35571 7.0446 3.33805C7.02322 3.32038 6.99855 3.30713 6.97201 3.29905C6.94547 3.29097 6.9176 3.28823 6.89 3.29099H1.79C1.77409 3.29099 1.75883 3.28467 1.74757 3.27341C1.73632 3.26216 1.73 3.2469 1.73 3.23099V1.49099C1.72983 1.47403 1.73581 1.45759 1.74685 1.44471C1.75788 1.43184 1.77322 1.42341 1.79 1.42099H14.67C14.67 1.42099 14.73 1.42099 14.73 1.49099V3.23099C14.73 3.2469 14.7237 3.26216 14.7124 3.27341C14.7012 3.28467 14.6859 3.29099 14.67 3.29099H9.58C9.52316 3.2853 9.46633 3.30194 9.42154 3.3374C9.37675 3.37286 9.34751 3.42436 9.34 3.48099V7.80099C9.34251 7.82992 9.35072 7.85807 9.36417 7.88382C9.37761 7.90956 9.39602 7.93239 9.41834 7.95098C9.44065 7.96958 9.46642 7.98357 9.49417 7.99215C9.52192 8.00073 9.55109 8.00374 9.58 8.00099H25.58C25.6367 8.0038 25.6924 7.98455 25.7352 7.94727C25.7781 7.90999 25.8049 7.85757 25.81 7.80099V3.48099C25.8075 3.45336 25.7995 3.42651 25.7866 3.40197C25.7737 3.37744 25.756 3.35571 25.7346 3.33805C25.7132 3.32038 25.6885 3.30713 25.662 3.29905C25.6355 3.29097 25.6076 3.28823 25.58 3.29099H20.48C20.4641 3.29099 20.4488 3.28467 20.4376 3.27341C20.4263 3.26216 20.42 3.2469 20.42 3.23099V1.49099C20.4198 1.47403 20.4258 1.45759 20.4368 1.44471C20.4479 1.43184 20.4632 1.42341 20.48 1.42099H33.41C33.4286 1.42099 33.4464 1.42836 33.4595 1.44149C33.4726 1.45462 33.48 1.47242 33.48 1.49099V3.23099C33.4776 3.24777 33.4691 3.2631 33.4563 3.27414C33.4434 3.28517 33.427 3.29116 33.41 3.29099H28.32C28.2924 3.28823 28.2645 3.29097 28.238 3.29905C28.2115 3.30713 28.1868 3.32038 28.1654 3.33805C28.144 3.35571 28.1263 3.37744 28.1134 3.40197C28.1005 3.42651 28.0925 3.45336 28.09 3.48099V7.80099C28.0951 7.85757 28.1219 7.90999 28.1648 7.94727C28.2076 7.98455 28.2633 8.0038 28.32 8.00099H44.32C44.3489 8.00374 44.3781 8.00073 44.4058 7.99215C44.4336 7.98357 44.4594 7.96958 44.4817 7.95098C44.504 7.93239 44.5224 7.90956 44.5358 7.88382C44.5493 7.85807 44.5575 7.82992 44.56 7.80099V3.48099C44.5525 3.42436 44.5233 3.37286 44.4785 3.3374C44.4337 3.30194 44.3768 3.2853 44.32 3.29099H39.28C39.2641 3.29099 39.2488 3.28467 39.2376 3.27341C39.2263 3.26216 39.22 3.2469 39.22 3.23099V1.49099C39.22 1.49099 39.22 1.42099 39.28 1.42099H52.16C52.1768 1.42341 52.1921 1.43184 52.2032 1.44471C52.2142 1.45759 52.2202 1.47403 52.22 1.49099V3.23099C52.22 3.2469 52.2137 3.26216 52.2024 3.27341C52.1912 3.28467 52.1759 3.29099 52.16 3.29099H47.06C47.0324 3.28823 47.0045 3.29097 46.978 3.29905C46.9515 3.30713 46.9268 3.32038 46.9054 3.33805C46.884 3.35571 46.8663 3.37744 46.8534 3.40197C46.8405 3.42651 46.8325 3.45336 46.83 3.48099V7.80099C46.8351 7.85757 46.8619 7.90999 46.9048 7.94727C46.9476 7.98455 47.0033 8.0038 47.06 8.00099H63.12C63.1767 8.0038 63.2324 7.98455 63.2752 7.94727C63.3181 7.90999 63.3449 7.85757 63.35 7.80099V3.48099C63.3425 3.42621 63.3147 3.37625 63.2721 3.34105C63.2295 3.30584 63.1752 3.28797 63.12 3.29099H58C57.9947 3.28187 57.992 3.27152 57.992 3.26099C57.992 3.25046 57.9947 3.24011 58 3.23099V1.49099C57.9939 1.48035 57.9906 1.46828 57.9906 1.45599C57.9906 1.4437 57.9939 1.43163 58 1.42099H70.9C70.9168 1.42341 70.9321 1.43184 70.9432 1.44471C70.9542 1.45759 70.9602 1.47403 70.96 1.49099V3.23099C70.96 3.23887 70.9584 3.24667 70.9554 3.25395C70.9524 3.26123 70.948 3.26784 70.9424 3.27341C70.9369 3.27899 70.9302 3.28341 70.923 3.28642C70.9157 3.28944 70.9079 3.29099 70.9 3.29099H65.8C65.7448 3.28797 65.6905 3.30584 65.6479 3.34105C65.6053 3.37625 65.5775 3.42621 65.57 3.48099V7.80099C65.5751 7.85757 65.6019 7.90999 65.6448 7.94727C65.6876 7.98455 65.7433 8.0038 65.8 8.00099H81.86C81.9167 8.0038 81.9724 7.98455 82.0152 7.94727C82.0581 7.90999 82.0849 7.85757 82.09 7.80099V3.48099C82.0875 3.45336 82.0795 3.42651 82.0666 3.40197C82.0537 3.37744 82.036 3.35571 82.0146 3.33805C81.9932 3.32038 81.9685 3.30713 81.942 3.29905C81.9155 3.29097 81.8876 3.28823 81.86 3.29099H76.76C76.7441 3.29099 76.7288 3.28467 76.7176 3.27341C76.7063 3.26216 76.7 3.2469 76.7 3.23099V1.49099C76.6998 1.47403 76.7058 1.45759 76.7169 1.44471C76.7279 1.43184 76.7432 1.42341 76.76 1.42099H89.64C89.64 1.42099 89.7 1.42099 89.7 1.49099V3.23099C89.7 3.2469 89.6937 3.26216 89.6824 3.27341C89.6712 3.28467 89.6559 3.29099 89.64 3.29099H84.55C84.4932 3.2853 84.4363 3.30194 84.3915 3.3374C84.3467 3.37286 84.3175 3.42436 84.31 3.48099V7.80099C84.3125 7.82992 84.3207 7.85807 84.3342 7.88382C84.3476 7.90956 84.366 7.93239 84.3883 7.95098C84.4106 7.96958 84.4364 7.98357 84.4642 7.99215C84.4919 8.00073 84.5211 8.00374 84.55 8.00099H100.55C100.607 8.0038 100.662 7.98455 100.705 7.94727C100.748 7.90999 100.775 7.85757 100.78 7.80099V3.48099C100.777 3.45336 100.77 3.42651 100.757 3.40197C100.744 3.37744 100.726 3.35571 100.705 3.33805C100.683 3.32038 100.659 3.30713 100.632 3.29905C100.605 3.29097 100.578 3.28823 100.55 3.29099H95.5C95.4841 3.29099 95.4688 3.28467 95.4576 3.27341C95.4463 3.26216 95.44 3.2469 95.44 3.23099V1.49099C95.4398 1.47403 95.4458 1.45759 95.4568 1.44471C95.4679 1.43184 95.4832 1.42341 95.5 1.42099H108.39C108.407 1.42341 108.422 1.43184 108.433 1.44471C108.444 1.45759 108.45 1.47403 108.45 1.49099V3.23099C108.45 3.2469 108.444 3.26216 108.432 3.27341C108.421 3.28467 108.406 3.29099 108.39 3.29099H103.29C103.262 3.28823 103.235 3.29097 103.208 3.29905C103.181 3.30713 103.157 3.32038 103.135 3.33805C103.114 3.35571 103.096 3.37744 103.083 3.40197C103.07 3.42651 103.062 3.45336 103.06 3.48099V7.80099C103.065 7.85757 103.092 7.90999 103.135 7.94727C103.178 7.98455 103.233 8.0038 103.29 8.00099H119.29C119.319 8.00374 119.348 8.00073 119.376 7.99215C119.404 7.98357 119.429 7.96958 119.452 7.95098C119.474 7.93239 119.492 7.90956 119.506 7.88382C119.519 7.85807 119.527 7.82992 119.53 7.80099V3.48099C119.522 3.42436 119.493 3.37286 119.448 3.3374C119.404 3.30194 119.347 3.2853 119.29 3.29099H114.2C114.184 3.29099 114.169 3.28467 114.158 3.27341C114.146 3.26216 114.14 3.2469 114.14 3.23099V1.49099C114.14 1.49099 114.14 1.42099 114.2 1.42099H127.08C127.097 1.42341 127.112 1.43184 127.123 1.44471C127.134 1.45759 127.14 1.47403 127.14 1.49099V3.23099C127.14 3.2469 127.134 3.26216 127.122 3.27341C127.111 3.28467 127.096 3.29099 127.08 3.29099H122C121.972 3.28823 121.945 3.29097 121.918 3.29905C121.891 3.30713 121.867 3.32038 121.845 3.33805C121.824 3.35571 121.806 3.37744 121.793 3.40197C121.78 3.42651 121.772 3.45336 121.77 3.48099V7.80099C121.775 7.85757 121.802 7.90999 121.845 7.94727C121.888 7.98455 121.943 8.0038 122 8.00099H138.06C138.117 8.0038 138.172 7.98455 138.215 7.94727C138.258 7.90999 138.285 7.85757 138.29 7.80099V3.48099C138.283 3.42621 138.255 3.37625 138.212 3.34105C138.17 3.30584 138.115 3.28797 138.06 3.29099H133C132.984 3.29099 132.969 3.28467 132.958 3.27341C132.946 3.26216 132.94 3.2469 132.94 3.23099V1.49099C132.94 1.49099 132.94 1.42099 133 1.42099H145.88C145.897 1.42341 145.912 1.43184 145.923 1.44471C145.934 1.45759 145.94 1.47403 145.94 1.49099V3.23099C145.94 3.2469 145.934 3.26216 145.922 3.27341C145.911 3.28467 145.896 3.29099 145.88 3.29099H140.78C140.725 3.28797 140.67 3.30584 140.628 3.34105C140.585 3.37625 140.557 3.42621 140.55 3.48099V7.80099C140.555 7.85757 140.582 7.90999 140.625 7.94727C140.668 7.98455 140.723 8.0038 140.78 8.00099H147.41C147.467 8.0038 147.522 7.98455 147.565 7.94727C147.608 7.90999 147.635 7.85757 147.64 7.80099V6.80099C147.637 6.77336 147.63 6.74651 147.617 6.72197C147.604 6.69744 147.586 6.67571 147.565 6.65805C147.543 6.64038 147.519 6.62713 147.492 6.61905C147.465 6.61097 147.438 6.60823 147.41 6.61099H142.31C142.293 6.60857 142.278 6.60013 142.267 6.58726C142.256 6.57439 142.25 6.55794 142.25 6.54099V4.77099C142.25 4.75507 142.256 4.73981 142.268 4.72856C142.279 4.71731 142.294 4.71099 142.31 4.71099H147.41C147.438 4.71374 147.465 4.711 147.492 4.70293C147.519 4.69485 147.543 4.68159 147.565 4.66393C147.586 4.64626 147.604 4.62454 147.617 4.6C147.63 4.57547 147.637 4.54861 147.64 4.52099V0.200988C147.635 0.144404 147.608 0.0919844 147.565 0.0547049C147.522 0.0174255 147.467 -0.00182367 147.41 0.000987686H131.41C131.353 -0.00182367 131.298 0.0174255 131.255 0.0547049C131.212 0.0919844 131.185 0.144404 131.18 0.200988V4.52099C131.182 4.54861 131.19 4.57547 131.203 4.6C131.216 4.62454 131.234 4.64626 131.255 4.66393C131.277 4.68159 131.301 4.69485 131.328 4.70293C131.355 4.711 131.382 4.71374 131.41 4.71099H136.51C136.526 4.71099 136.541 4.71731 136.552 4.72856C136.564 4.73981 136.57 4.75507 136.57 4.77099V6.51099C136.57 6.52794 136.564 6.54439 136.553 6.55726C136.542 6.57014 136.527 6.57857 136.51 6.58099H123.62C123.62 6.58099 123.56 6.58099 123.56 6.51099V4.77099C123.56 4.75507 123.566 4.73981 123.578 4.72856C123.589 4.71731 123.604 4.71099 123.62 4.71099H128.71C128.767 4.71668 128.824 4.70003 128.868 4.66457C128.913 4.62911 128.942 4.57762 128.95 4.52099V0.200988C128.947 0.172053 128.939 0.143901 128.926 0.118156C128.912 0.0924121 128.894 0.0695847 128.872 0.0509913C128.849 0.0323979 128.824 0.0184065 128.796 0.00982423C128.768 0.00124195 128.739 -0.00176132 128.71 0.000987686H112.66C112.603 -0.00182367 112.548 0.0174255 112.505 0.0547049C112.462 0.0919844 112.435 0.144404 112.43 0.200988V4.52099C112.433 4.54861 112.44 4.57547 112.453 4.6C112.466 4.62454 112.484 4.64626 112.505 4.66393C112.527 4.68159 112.551 4.69485 112.578 4.70293C112.605 4.711 112.632 4.71374 112.66 4.71099H117.76C117.776 4.71099 117.791 4.71731 117.802 4.72856C117.814 4.73981 117.82 4.75507 117.82 4.77099V6.51099C117.82 6.52794 117.814 6.54439 117.803 6.55726C117.792 6.57014 117.777 6.57857 117.76 6.58099H104.87C104.853 6.57857 104.838 6.57014 104.827 6.55726C104.816 6.54439 104.81 6.52794 104.81 6.51099V4.77099C104.81 4.75507 104.816 4.73981 104.828 4.72856C104.839 4.71731 104.854 4.71099 104.87 4.71099H110C110.028 4.71374 110.055 4.711 110.082 4.70293C110.109 4.69485 110.133 4.68159 110.155 4.66393C110.176 4.64626 110.194 4.62454 110.207 4.6C110.22 4.57547 110.228 4.54861 110.23 4.52099V0.200988C110.225 0.144404 110.198 0.0919844 110.155 0.0547049C110.112 0.0174255 110.057 -0.00182367 110 0.000987686H94C93.9711 -0.00176132 93.9419 0.00124195 93.9142 0.00982423C93.8864 0.0184065 93.8606 0.0323979 93.8383 0.0509913C93.816 0.0695847 93.7976 0.0924121 93.7842 0.118156C93.7707 0.143901 93.7625 0.172053 93.76 0.200988V4.52099C93.7675 4.57762 93.7967 4.62911 93.8415 4.66457C93.8863 4.70003 93.9432 4.71668 94 4.71099H99C99.017 4.71081 99.0334 4.7168 99.0463 4.72784C99.0591 4.73887 99.0676 4.7542 99.07 4.77099V6.51099C99.07 6.52018 99.0682 6.52928 99.0647 6.53778C99.0612 6.54627 99.056 6.55398 99.0495 6.56048C99.043 6.56699 99.0353 6.57214 99.0268 6.57566C99.0183 6.57918 99.0092 6.58099 99 6.58099H86.13C86.1132 6.57857 86.0979 6.57014 86.0868 6.55726C86.0758 6.54439 86.0698 6.52794 86.07 6.51099V4.77099C86.07 4.75507 86.0763 4.73981 86.0876 4.72856C86.0988 4.71731 86.1141 4.71099 86.13 4.71099H91.23C91.2576 4.71374 91.2855 4.711 91.312 4.70293C91.3385 4.69485 91.3632 4.68159 91.3846 4.66393C91.406 4.64626 91.4237 4.62454 91.4366 4.6C91.4495 4.57547 91.4575 4.54861 91.46 4.52099V0.200988C91.4549 0.144404 91.4281 0.0919844 91.3852 0.0547049C91.3424 0.0174255 91.2867 -0.00182367 91.23 0.000987686H75.17C75.1133 -0.00182367 75.0576 0.0174255 75.0148 0.0547049C74.9719 0.0919844 74.9451 0.144404 74.94 0.200988V4.52099C74.9475 4.57576 74.9753 4.62572 75.0179 4.66093C75.0605 4.69613 75.1148 4.71401 75.17 4.71099H80.27C80.2779 4.71099 80.2857 4.71254 80.293 4.71555C80.3002 4.71857 80.3069 4.72299 80.3124 4.72856C80.318 4.73413 80.3224 4.74075 80.3254 4.74803C80.3284 4.75531 80.33 4.76311 80.33 4.77099V6.51099C80.33 6.51099 80.33 6.58099 80.27 6.58099H67.39C67.3732 6.57857 67.3579 6.57014 67.3468 6.55726C67.3358 6.54439 67.3298 6.52794 67.33 6.51099V4.77099C67.33 4.75507 67.3363 4.73981 67.3476 4.72856C67.3588 4.71731 67.3741 4.71099 67.39 4.71099H72.49C72.5452 4.71401 72.5995 4.69613 72.6421 4.66093C72.6847 4.62572 72.7125 4.57576 72.72 4.52099V0.200988C72.7149 0.144404 72.6881 0.0919844 72.6452 0.0547049C72.6024 0.0174255 72.5467 -0.00182367 72.49 0.000987686H56.43C56.3733 -0.00182367 56.3176 0.0174255 56.2748 0.0547049C56.2319 0.0919844 56.2051 0.144404 56.2 0.200988V4.52099C56.2025 4.54861 56.2105 4.57547 56.2234 4.6C56.2363 4.62454 56.254 4.64626 56.2754 4.66393C56.2968 4.68159 56.3215 4.69485 56.348 4.70293C56.3745 4.711 56.4024 4.71374 56.43 4.71099H61.53C61.5459 4.71099 61.5612 4.71731 61.5724 4.72856C61.5837 4.73981 61.59 4.75507 61.59 4.77099V6.51099C61.5902 6.52794 61.5842 6.54439 61.5732 6.55726C61.5621 6.57014 61.5468 6.57857 61.53 6.58099H48.65C48.65 6.58099 48.59 6.58099 48.59 6.51099V4.77099C48.59 4.75507 48.5963 4.73981 48.6076 4.72856C48.6188 4.71731 48.6341 4.71099 48.65 4.71099H53.74C53.7697 4.71669 53.8002 4.71623 53.8297 4.70962C53.8592 4.70301 53.887 4.6904 53.9114 4.67257C53.9357 4.65475 53.9562 4.63209 53.9715 4.60601C53.9867 4.57993 53.9964 4.55099 54 4.52099V0.200988C53.9975 0.172053 53.9893 0.143901 53.9758 0.118156C53.9624 0.0924121 53.944 0.0695847 53.9217 0.0509913C53.8994 0.0323979 53.8736 0.0184065 53.8458 0.00982423C53.8181 0.00124195 53.7889 -0.00176132 53.76 0.000987686H37.69C37.6333 -0.00182367 37.5776 0.0174255 37.5348 0.0547049C37.4919 0.0919844 37.4651 0.144404 37.46 0.200988V4.52099C37.4625 4.54861 37.4705 4.57547 37.4834 4.6C37.4963 4.62454 37.514 4.64626 37.5354 4.66393C37.5568 4.68159 37.5815 4.69485 37.608 4.70293C37.6345 4.711 37.6624 4.71374 37.69 4.71099H42.79C42.8059 4.71099 42.8212 4.71731 42.8324 4.72856C42.8437 4.73981 42.85 4.75507 42.85 4.77099V6.51099C42.8502 6.52794 42.8442 6.54439 42.8332 6.55726C42.8221 6.57014 42.8068 6.57857 42.79 6.58099H29.9C29.8832 6.57857 29.8679 6.57014 29.8568 6.55726C29.8458 6.54439 29.8398 6.52794 29.84 6.51099V4.77099C29.84 4.75507 29.8463 4.73981 29.8576 4.72856C29.8688 4.71731 29.8841 4.71099 29.9 4.71099H35C35.0276 4.71374 35.0555 4.711 35.082 4.70293C35.1085 4.69485 35.1332 4.68159 35.1546 4.66393C35.176 4.64626 35.1937 4.62454 35.2066 4.6C35.2195 4.57547 35.2275 4.54861 35.23 4.52099V0.200988C35.2249 0.144404 35.1981 0.0919844 35.1552 0.0547049C35.1124 0.0174255 35.0567 -0.00182367 35 0.000987686H19C18.9711 -0.00176132 18.9419 0.00124195 18.9142 0.00982423C18.8864 0.0184065 18.8606 0.0323979 18.8383 0.0509913C18.816 0.0695847 18.7976 0.0924121 18.7842 0.118156C18.7707 0.143901 18.7625 0.172053 18.76 0.200988V4.52099C18.7675 4.57762 18.7967 4.62911 18.8415 4.66457C18.8863 4.70003 18.9432 4.71668 19 4.71099H24C24.0159 4.71099 24.0312 4.71731 24.0424 4.72856C24.0537 4.73981 24.06 4.75507 24.06 4.77099V6.51099C24.06 6.51099 24.06 6.58099 24 6.58099H11.16C11.1432 6.57857 11.1279 6.57014 11.1168 6.55726C11.1058 6.54439 11.0998 6.52794 11.1 6.51099V4.77099C11.1 4.76311 11.1016 4.75531 11.1046 4.74803C11.1076 4.74075 11.112 4.73413 11.1176 4.72856C11.1231 4.72299 11.1298 4.71857 11.137 4.71555C11.1443 4.71254 11.1521 4.71099 11.16 4.71099H16.26C16.2876 4.71374 16.3155 4.711 16.342 4.70293C16.3685 4.69485 16.3932 4.68159 16.4146 4.66393C16.436 4.64626 16.4537 4.62454 16.4666 4.6C16.4795 4.57547 16.4875 4.54861 16.49 4.52099V0.200988C16.4849 0.144404 16.4581 0.0919844 16.4152 0.0547049C16.3724 0.0174255 16.3167 -0.00182367 16.26 0.000987686H0.23C0.173257 -0.00182367 0.117626 0.0174255 0.0747542 0.0547049C0.0318828 0.0919844 0.00509531 0.144404 9.05135e-08 0.200988V4.52099C0.00250464 4.54861 0.010457 4.57547 0.0233981 4.6C0.0363391 4.62454 0.0540123 4.64626 0.0753972 4.66393C0.096782 4.68159 0.121455 4.69485 0.147991 4.70293C0.174526 4.711 0.202399 4.71374 0.23 4.71099H5.33C5.34591 4.71099 5.36117 4.71731 5.37243 4.72856C5.38368 4.73981 5.39 4.75507 5.39 4.77099V6.51099C5.39017 6.52794 5.38419 6.54439 5.37315 6.55726C5.36212 6.57014 5.34678 6.57857 5.33 6.58099H0.25C0.217652 6.57964 0.185364 6.58485 0.155082 6.5963C0.1248 6.60776 0.0971485 6.62522 0.0737924 6.64765C0.0504362 6.67007 0.0318583 6.69698 0.0191767 6.72677C0.00649503 6.75656 -2.8027e-05 6.78861 9.05135e-08 6.82099V8.00099" fill="white" fill-opacity="0.15"/>
<path d="M154.89 8.00099C154.947 8.0038 155.002 7.98455 155.045 7.94727C155.088 7.90999 155.115 7.85757 155.12 7.80099V3.48099C155.117 3.45336 155.11 3.42651 155.097 3.40197C155.084 3.37744 155.066 3.35571 155.045 3.33805C155.023 3.32038 154.999 3.30713 154.972 3.29905C154.945 3.29097 154.918 3.28823 154.89 3.29099H149.79C149.774 3.29099 149.759 3.28467 149.748 3.27341C149.736 3.26216 149.73 3.2469 149.73 3.23099V1.49099C149.73 1.47403 149.736 1.45759 149.747 1.44471C149.758 1.43184 149.773 1.42341 149.79 1.42099H162.67C162.67 1.42099 162.73 1.42099 162.73 1.49099V3.23099C162.73 3.2469 162.724 3.26216 162.712 3.27341C162.701 3.28467 162.686 3.29099 162.67 3.29099H157.58C157.523 3.2853 157.466 3.30194 157.422 3.3374C157.377 3.37286 157.348 3.42436 157.34 3.48099V7.80099C157.342 7.82992 157.351 7.85807 157.364 7.88382C157.378 7.90956 157.396 7.93239 157.418 7.95098C157.441 7.96958 157.466 7.98357 157.494 7.99215C157.522 8.00073 157.551 8.00374 157.58 8.00099H173.58C173.637 8.0038 173.692 7.98455 173.735 7.94727C173.778 7.90999 173.805 7.85757 173.81 7.80099V3.48099C173.807 3.45336 173.8 3.42651 173.787 3.40197C173.774 3.37744 173.756 3.35571 173.735 3.33805C173.713 3.32038 173.689 3.30713 173.662 3.29905C173.635 3.29097 173.608 3.28823 173.58 3.29099H168.48C168.464 3.29099 168.449 3.28467 168.438 3.27341C168.426 3.26216 168.42 3.2469 168.42 3.23099V1.49099C168.42 1.47403 168.426 1.45759 168.437 1.44471C168.448 1.43184 168.463 1.42341 168.48 1.42099H181.41C181.429 1.42099 181.446 1.42836 181.46 1.44149C181.473 1.45462 181.48 1.47242 181.48 1.49099V3.23099C181.478 3.24777 181.469 3.2631 181.456 3.27414C181.443 3.28517 181.427 3.29116 181.41 3.29099H176.32C176.292 3.28823 176.265 3.29097 176.238 3.29905C176.211 3.30713 176.187 3.32038 176.165 3.33805C176.144 3.35571 176.126 3.37744 176.113 3.40197C176.1 3.42651 176.092 3.45336 176.09 3.48099V7.80099C176.095 7.85757 176.122 7.90999 176.165 7.94727C176.208 7.98455 176.263 8.0038 176.32 8.00099H192.32C192.349 8.00374 192.378 8.00073 192.406 7.99215C192.434 7.98357 192.459 7.96958 192.482 7.95098C192.504 7.93239 192.522 7.90956 192.536 7.88382C192.549 7.85807 192.557 7.82992 192.56 7.80099V3.48099C192.552 3.42436 192.523 3.37286 192.478 3.3374C192.434 3.30194 192.377 3.2853 192.32 3.29099H187.28C187.264 3.29099 187.249 3.28467 187.238 3.27341C187.226 3.26216 187.22 3.2469 187.22 3.23099V1.49099C187.22 1.49099 187.22 1.42099 187.28 1.42099H200.16C200.177 1.42341 200.192 1.43184 200.203 1.44471C200.214 1.45759 200.22 1.47403 200.22 1.49099V3.23099C200.22 3.2469 200.214 3.26216 200.202 3.27341C200.191 3.28467 200.176 3.29099 200.16 3.29099H195.06C195.032 3.28823 195.005 3.29097 194.978 3.29905C194.951 3.30713 194.927 3.32038 194.905 3.33805C194.884 3.35571 194.866 3.37744 194.853 3.40197C194.84 3.42651 194.833 3.45336 194.83 3.48099V7.80099C194.835 7.85757 194.862 7.90999 194.905 7.94727C194.948 7.98455 195.003 8.0038 195.06 8.00099H211.12C211.177 8.0038 211.232 7.98455 211.275 7.94727C211.318 7.90999 211.345 7.85757 211.35 7.80099V3.48099C211.343 3.42621 211.315 3.37625 211.272 3.34105C211.23 3.30584 211.175 3.28797 211.12 3.29099H206C205.995 3.28187 205.992 3.27152 205.992 3.26099C205.992 3.25046 205.995 3.24011 206 3.23099V1.49099C205.994 1.48035 205.991 1.46828 205.991 1.45599C205.991 1.4437 205.994 1.43163 206 1.42099H218.9C218.917 1.42341 218.932 1.43184 218.943 1.44471C218.954 1.45759 218.96 1.47403 218.96 1.49099V3.23099C218.96 3.23887 218.958 3.24667 218.955 3.25395C218.952 3.26123 218.948 3.26784 218.942 3.27341C218.937 3.27899 218.93 3.28341 218.923 3.28642C218.916 3.28944 218.908 3.29099 218.9 3.29099H213.8C213.745 3.28797 213.69 3.30584 213.648 3.34105C213.605 3.37625 213.577 3.42621 213.57 3.48099V7.80099C213.575 7.85757 213.602 7.90999 213.645 7.94727C213.688 7.98455 213.743 8.0038 213.8 8.00099H229.86C229.917 8.0038 229.972 7.98455 230.015 7.94727C230.058 7.90999 230.085 7.85757 230.09 7.80099V3.48099C230.087 3.45336 230.08 3.42651 230.067 3.40197C230.054 3.37744 230.036 3.35571 230.015 3.33805C229.993 3.32038 229.969 3.30713 229.942 3.29905C229.915 3.29097 229.888 3.28823 229.86 3.29099H224.76C224.744 3.29099 224.729 3.28467 224.718 3.27341C224.706 3.26216 224.7 3.2469 224.7 3.23099V1.49099C224.7 1.47403 224.706 1.45759 224.717 1.44471C224.728 1.43184 224.743 1.42341 224.76 1.42099H237.64C237.64 1.42099 237.7 1.42099 237.7 1.49099V3.23099C237.7 3.2469 237.694 3.26216 237.682 3.27341C237.671 3.28467 237.656 3.29099 237.64 3.29099H232.55C232.493 3.2853 232.436 3.30194 232.392 3.3374C232.347 3.37286 232.318 3.42436 232.31 3.48099V7.80099C232.312 7.82992 232.321 7.85807 232.334 7.88382C232.348 7.90956 232.366 7.93239 232.388 7.95098C232.411 7.96958 232.436 7.98357 232.464 7.99215C232.492 8.00073 232.521 8.00374 232.55 8.00099H248.55C248.607 8.0038 248.662 7.98455 248.705 7.94727C248.748 7.90999 248.775 7.85757 248.78 7.80099V3.48099C248.777 3.45336 248.77 3.42651 248.757 3.40197C248.744 3.37744 248.726 3.35571 248.705 3.33805C248.683 3.32038 248.659 3.30713 248.632 3.29905C248.605 3.29097 248.578 3.28823 248.55 3.29099H243.5C243.484 3.29099 243.469 3.28467 243.458 3.27341C243.446 3.26216 243.44 3.2469 243.44 3.23099V1.49099C243.44 1.47403 243.446 1.45759 243.457 1.44471C243.468 1.43184 243.483 1.42341 243.5 1.42099H256.39C256.407 1.42341 256.422 1.43184 256.433 1.44471C256.444 1.45759 256.45 1.47403 256.45 1.49099V3.23099C256.45 3.2469 256.444 3.26216 256.432 3.27341C256.421 3.28467 256.406 3.29099 256.39 3.29099H251.29C251.262 3.28823 251.235 3.29097 251.208 3.29905C251.181 3.30713 251.157 3.32038 251.135 3.33805C251.114 3.35571 251.096 3.37744 251.083 3.40197C251.07 3.42651 251.062 3.45336 251.06 3.48099V7.80099C251.065 7.85757 251.092 7.90999 251.135 7.94727C251.178 7.98455 251.233 8.0038 251.29 8.00099H267.29C267.319 8.00374 267.348 8.00073 267.376 7.99215C267.404 7.98357 267.429 7.96958 267.452 7.95098C267.474 7.93239 267.492 7.90956 267.506 7.88382C267.519 7.85807 267.527 7.82992 267.53 7.80099V3.48099C267.522 3.42436 267.493 3.37286 267.448 3.3374C267.404 3.30194 267.347 3.2853 267.29 3.29099H262.2C262.184 3.29099 262.169 3.28467 262.158 3.27341C262.146 3.26216 262.14 3.2469 262.14 3.23099V1.49099C262.14 1.49099 262.14 1.42099 262.2 1.42099H275.08C275.097 1.42341 275.112 1.43184 275.123 1.44471C275.134 1.45759 275.14 1.47403 275.14 1.49099V3.23099C275.14 3.2469 275.134 3.26216 275.122 3.27341C275.111 3.28467 275.096 3.29099 275.08 3.29099H270C269.972 3.28823 269.945 3.29097 269.918 3.29905C269.891 3.30713 269.867 3.32038 269.845 3.33805C269.824 3.35571 269.806 3.37744 269.793 3.40197C269.78 3.42651 269.772 3.45336 269.77 3.48099V7.80099C269.775 7.85757 269.802 7.90999 269.845 7.94727C269.888 7.98455 269.943 8.0038 270 8.00099H286.06C286.117 8.0038 286.172 7.98455 286.215 7.94727C286.258 7.90999 286.285 7.85757 286.29 7.80099V3.48099C286.283 3.42621 286.255 3.37625 286.212 3.34105C286.169 3.30584 286.115 3.28797 286.06 3.29099H281C280.984 3.29099 280.969 3.28467 280.958 3.27341C280.946 3.26216 280.94 3.2469 280.94 3.23099V1.49099C280.94 1.49099 280.94 1.42099 281 1.42099H293.88C293.897 1.42341 293.912 1.43184 293.923 1.44471C293.934 1.45759 293.94 1.47403 293.94 1.49099V3.23099C293.94 3.2469 293.934 3.26216 293.922 3.27341C293.911 3.28467 293.896 3.29099 293.88 3.29099H288.78C288.725 3.28797 288.671 3.30584 288.628 3.34105C288.585 3.37625 288.557 3.42621 288.55 3.48099V7.80099C288.555 7.85757 288.582 7.90999 288.625 7.94727C288.668 7.98455 288.723 8.0038 288.78 8.00099H295.41C295.467 8.0038 295.522 7.98455 295.565 7.94727C295.608 7.90999 295.635 7.85757 295.64 7.80099V6.80099C295.638 6.77336 295.63 6.74651 295.617 6.72197C295.604 6.69744 295.586 6.67571 295.565 6.65805C295.543 6.64038 295.519 6.62713 295.492 6.61905C295.465 6.61097 295.438 6.60823 295.41 6.61099H290.31C290.293 6.60857 290.278 6.60013 290.267 6.58726C290.256 6.57439 290.25 6.55794 290.25 6.54099V4.77099C290.25 4.75507 290.256 4.73981 290.268 4.72856C290.279 4.71731 290.294 4.71099 290.31 4.71099H295.41C295.438 4.71374 295.465 4.711 295.492 4.70293C295.519 4.69485 295.543 4.68159 295.565 4.66393C295.586 4.64626 295.604 4.62454 295.617 4.6C295.63 4.57547 295.638 4.54861 295.64 4.52099V0.200988C295.635 0.144404 295.608 0.0919844 295.565 0.0547049C295.522 0.0174255 295.467 -0.00182367 295.41 0.000987686H279.41C279.353 -0.00182367 279.298 0.0174255 279.255 0.0547049C279.212 0.0919844 279.185 0.144404 279.18 0.200988V4.52099C279.182 4.54861 279.19 4.57547 279.203 4.6C279.216 4.62454 279.234 4.64626 279.255 4.66393C279.277 4.68159 279.301 4.69485 279.328 4.70293C279.355 4.711 279.382 4.71374 279.41 4.71099H284.51C284.526 4.71099 284.541 4.71731 284.552 4.72856C284.564 4.73981 284.57 4.75507 284.57 4.77099V6.51099C284.57 6.52794 284.564 6.54439 284.553 6.55726C284.542 6.57014 284.527 6.57857 284.51 6.58099H271.62C271.62 6.58099 271.56 6.58099 271.56 6.51099V4.77099C271.56 4.75507 271.566 4.73981 271.578 4.72856C271.589 4.71731 271.604 4.71099 271.62 4.71099H276.71C276.767 4.71668 276.824 4.70003 276.868 4.66457C276.913 4.62911 276.943 4.57762 276.95 4.52099V0.200988C276.948 0.172053 276.939 0.143901 276.926 0.118156C276.912 0.0924121 276.894 0.0695847 276.872 0.0509913C276.849 0.0323979 276.824 0.0184065 276.796 0.00982423C276.768 0.00124195 276.739 -0.00176132 276.71 0.000987686H260.66C260.603 -0.00182367 260.548 0.0174255 260.505 0.0547049C260.462 0.0919844 260.435 0.144404 260.43 0.200988V4.52099C260.432 4.54861 260.44 4.57547 260.453 4.6C260.466 4.62454 260.484 4.64626 260.505 4.66393C260.527 4.68159 260.551 4.69485 260.578 4.70293C260.605 4.711 260.632 4.71374 260.66 4.71099H265.76C265.776 4.71099 265.791 4.71731 265.802 4.72856C265.814 4.73981 265.82 4.75507 265.82 4.77099V6.51099C265.82 6.52794 265.814 6.54439 265.803 6.55726C265.792 6.57014 265.777 6.57857 265.76 6.58099H252.87C252.853 6.57857 252.838 6.57014 252.827 6.55726C252.816 6.54439 252.81 6.52794 252.81 6.51099V4.77099C252.81 4.75507 252.816 4.73981 252.828 4.72856C252.839 4.71731 252.854 4.71099 252.87 4.71099H258C258.028 4.71374 258.055 4.711 258.082 4.70293C258.109 4.69485 258.133 4.68159 258.155 4.66393C258.176 4.64626 258.194 4.62454 258.207 4.6C258.22 4.57547 258.228 4.54861 258.23 4.52099V0.200988C258.225 0.144404 258.198 0.0919844 258.155 0.0547049C258.112 0.0174255 258.057 -0.00182367 258 0.000987686H242C241.971 -0.00176132 241.942 0.00124195 241.914 0.00982423C241.886 0.0184065 241.861 0.0323979 241.838 0.0509913C241.816 0.0695847 241.798 0.0924121 241.784 0.118156C241.771 0.143901 241.763 0.172053 241.76 0.200988V4.52099C241.768 4.57762 241.797 4.62911 241.842 4.66457C241.886 4.70003 241.943 4.71668 242 4.71099H247C247.017 4.71081 247.033 4.7168 247.046 4.72784C247.059 4.73887 247.068 4.7542 247.07 4.77099V6.51099C247.07 6.52018 247.068 6.52928 247.065 6.53778C247.061 6.54627 247.056 6.55398 247.049 6.56048C247.043 6.56699 247.035 6.57214 247.027 6.57566C247.018 6.57918 247.009 6.58099 247 6.58099H234.13C234.113 6.57857 234.098 6.57014 234.087 6.55726C234.076 6.54439 234.07 6.52794 234.07 6.51099V4.77099C234.07 4.75507 234.076 4.73981 234.088 4.72856C234.099 4.71731 234.114 4.71099 234.13 4.71099H239.23C239.258 4.71374 239.285 4.711 239.312 4.70293C239.339 4.69485 239.363 4.68159 239.385 4.66393C239.406 4.64626 239.424 4.62454 239.437 4.6C239.45 4.57547 239.457 4.54861 239.46 4.52099V0.200988C239.455 0.144404 239.428 0.0919844 239.385 0.0547049C239.342 0.0174255 239.287 -0.00182367 239.23 0.000987686H223.17C223.113 -0.00182367 223.058 0.0174255 223.015 0.0547049C222.972 0.0919844 222.945 0.144404 222.94 0.200988V4.52099C222.947 4.57576 222.975 4.62572 223.018 4.66093C223.061 4.69613 223.115 4.71401 223.17 4.71099H228.27C228.278 4.71099 228.286 4.71254 228.293 4.71555C228.3 4.71857 228.307 4.72299 228.312 4.72856C228.318 4.73413 228.322 4.74075 228.325 4.74803C228.328 4.75531 228.33 4.76311 228.33 4.77099V6.51099C228.33 6.51099 228.33 6.58099 228.27 6.58099H215.39C215.373 6.57857 215.358 6.57014 215.347 6.55726C215.336 6.54439 215.33 6.52794 215.33 6.51099V4.77099C215.33 4.75507 215.336 4.73981 215.348 4.72856C215.359 4.71731 215.374 4.71099 215.39 4.71099H220.49C220.545 4.71401 220.6 4.69613 220.642 4.66093C220.685 4.62572 220.713 4.57576 220.72 4.52099V0.200988C220.715 0.144404 220.688 0.0919844 220.645 0.0547049C220.602 0.0174255 220.547 -0.00182367 220.49 0.000987686H204.43C204.373 -0.00182367 204.318 0.0174255 204.275 0.0547049C204.232 0.0919844 204.205 0.144404 204.2 0.200988V4.52099C204.202 4.54861 204.21 4.57547 204.223 4.6C204.236 4.62454 204.254 4.64626 204.275 4.66393C204.297 4.68159 204.321 4.69485 204.348 4.70293C204.375 4.711 204.402 4.71374 204.43 4.71099H209.53C209.546 4.71099 209.561 4.71731 209.572 4.72856C209.584 4.73981 209.59 4.75507 209.59 4.77099V6.51099C209.59 6.52794 209.584 6.54439 209.573 6.55726C209.562 6.57014 209.547 6.57857 209.53 6.58099H196.65C196.65 6.58099 196.59 6.58099 196.59 6.51099V4.77099C196.59 4.75507 196.596 4.73981 196.608 4.72856C196.619 4.71731 196.634 4.71099 196.65 4.71099H201.74C201.77 4.71669 201.8 4.71623 201.83 4.70962C201.859 4.70301 201.887 4.6904 201.911 4.67257C201.936 4.65475 201.956 4.63209 201.971 4.60601C201.987 4.57993 201.996 4.55099 202 4.52099V0.200988C201.997 0.172053 201.989 0.143901 201.976 0.118156C201.962 0.0924121 201.944 0.0695847 201.922 0.0509913C201.899 0.0323979 201.874 0.0184065 201.846 0.00982423C201.818 0.00124195 201.789 -0.00176132 201.76 0.000987686H185.69C185.633 -0.00182367 185.578 0.0174255 185.535 0.0547049C185.492 0.0919844 185.465 0.144404 185.46 0.200988V4.52099C185.462 4.54861 185.47 4.57547 185.483 4.6C185.496 4.62454 185.514 4.64626 185.535 4.66393C185.557 4.68159 185.581 4.69485 185.608 4.70293C185.635 4.711 185.662 4.71374 185.69 4.71099H190.79C190.806 4.71099 190.821 4.71731 190.832 4.72856C190.844 4.73981 190.85 4.75507 190.85 4.77099V6.51099C190.85 6.52794 190.844 6.54439 190.833 6.55726C190.822 6.57014 190.807 6.57857 190.79 6.58099H177.9C177.883 6.57857 177.868 6.57014 177.857 6.55726C177.846 6.54439 177.84 6.52794 177.84 6.51099V4.77099C177.84 4.75507 177.846 4.73981 177.858 4.72856C177.869 4.71731 177.884 4.71099 177.9 4.71099H183C183.028 4.71374 183.055 4.711 183.082 4.70293C183.109 4.69485 183.133 4.68159 183.155 4.66393C183.176 4.64626 183.194 4.62454 183.207 4.6C183.22 4.57547 183.227 4.54861 183.23 4.52099V0.200988C183.225 0.144404 183.198 0.0919844 183.155 0.0547049C183.112 0.0174255 183.057 -0.00182367 183 0.000987686H167C166.971 -0.00176132 166.942 0.00124195 166.914 0.00982423C166.886 0.0184065 166.861 0.0323979 166.838 0.0509913C166.816 0.0695847 166.798 0.0924121 166.784 0.118156C166.771 0.143901 166.763 0.172053 166.76 0.200988V4.52099C166.768 4.57762 166.797 4.62911 166.842 4.66457C166.886 4.70003 166.943 4.71668 167 4.71099H172C172.016 4.71099 172.031 4.71731 172.042 4.72856C172.054 4.73981 172.06 4.75507 172.06 4.77099V6.51099C172.06 6.51099 172.06 6.58099 172 6.58099H159.16C159.143 6.57857 159.128 6.57014 159.117 6.55726C159.106 6.54439 159.1 6.52794 159.1 6.51099V4.77099C159.1 4.76311 159.102 4.75531 159.105 4.74803C159.108 4.74075 159.112 4.73413 159.118 4.72856C159.123 4.72299 159.13 4.71857 159.137 4.71555C159.144 4.71254 159.152 4.71099 159.16 4.71099H164.26C164.288 4.71374 164.315 4.711 164.342 4.70293C164.369 4.69485 164.393 4.68159 164.415 4.66393C164.436 4.64626 164.454 4.62454 164.467 4.6C164.48 4.57547 164.487 4.54861 164.49 4.52099V0.200988C164.485 0.144404 164.458 0.0919844 164.415 0.0547049C164.372 0.0174255 164.317 -0.00182367 164.26 0.000987686H148.23C148.173 -0.00182367 148.118 0.0174255 148.075 0.0547049C148.032 0.0919844 148.005 0.144404 148 0.200988V4.52099C148.003 4.54861 148.01 4.57547 148.023 4.6C148.036 4.62454 148.054 4.64626 148.075 4.66393C148.097 4.68159 148.121 4.69485 148.148 4.70293C148.175 4.711 148.202 4.71374 148.23 4.71099H153.33C153.346 4.71099 153.361 4.71731 153.372 4.72856C153.384 4.73981 153.39 4.75507 153.39 4.77099V6.51099C153.39 6.52794 153.384 6.54439 153.373 6.55726C153.362 6.57014 153.347 6.57857 153.33 6.58099H148.25C148.218 6.57964 148.185 6.58485 148.155 6.5963C148.125 6.60776 148.097 6.62522 148.074 6.64765C148.05 6.67007 148.032 6.69698 148.019 6.72677C148.007 6.75656 148 6.78861 148 6.82099V8.00099" fill="white" fill-opacity="0.15"/>
</svg>
