<svg width="34" height="34" viewBox="0 0 34 34" fill="none" xmlns="http://www.w3.org/2000/svg">
<path d="M33.4469 0.55316C32.7094 -0.184387 31.5135 -0.184387 30.776 0.55316L17 14.3292L3.22401 0.55316C2.48648 -0.184387 1.29069 -0.184387 0.553161 0.55316C-0.184387 1.29069 -0.184387 2.48648 0.553161 3.22401L14.3292 17L0.553199 30.7759C-0.184349 31.5135 -0.184349 32.7092 0.553199 33.4469C1.29073 34.1844 2.48652 34.1844 3.22405 33.4469L17 19.6708L30.776 33.4469C31.5135 34.1844 32.7094 34.1844 33.4469 33.4469C34.1844 32.7092 34.1844 31.5135 33.4469 30.7761L19.6708 17L33.4469 3.22401C34.1844 2.48648 34.1844 1.29069 33.4469 0.55316Z" fill="white"/>
</svg>
