<svg width="179" height="41" viewBox="0 0 179 41" fill="none" xmlns="http://www.w3.org/2000/svg">
<path d="M5.53606 31L0.281929 11.9057H3.48567L7.74023 28.437H6.9457L11.354 11.9057H14.5065L18.9149 28.437H18.0947L22.3749 11.9057H25.553L20.3245 31H16.9157L12.4818 14.725H13.3788L8.9192 31H5.53606ZM33.1306 31.3076C31.7466 31.3076 30.5164 30.9915 29.4399 30.3593C28.3806 29.71 27.5519 28.8385 26.9538 27.745C26.3558 26.6344 26.0568 25.3956 26.0568 24.0287C26.0568 22.6276 26.3558 21.3888 26.9538 20.3123C27.569 19.2359 28.3891 18.3901 29.4143 17.775C30.4395 17.1428 31.6014 16.8267 32.9 16.8267C33.9423 16.8267 34.8735 17.0061 35.6936 17.3649C36.5138 17.7237 37.2058 18.2192 37.7697 18.8514C38.3335 19.4665 38.7607 20.1756 39.0512 20.9787C39.3587 21.7818 39.5125 22.6361 39.5125 23.5417C39.5125 23.7638 39.5039 23.9945 39.4869 24.2337C39.4698 24.4729 39.4356 24.695 39.3843 24.9001H28.3379V22.5934H37.744L36.36 23.6442C36.5309 22.807 36.4711 22.0637 36.1806 21.4144C35.9072 20.748 35.4801 20.2269 34.8991 19.851C34.3353 19.458 33.6689 19.2615 32.9 19.2615C32.1311 19.2615 31.4476 19.458 30.8496 19.851C30.2516 20.2269 29.7902 20.7737 29.4656 21.4913C29.1409 22.1919 29.0128 23.0462 29.0811 24.0543C28.9957 24.9941 29.1238 25.8142 29.4656 26.5148C29.8244 27.2153 30.3199 27.7621 30.9521 28.1551C31.6014 28.5481 32.3361 28.7446 33.1563 28.7446C33.9935 28.7446 34.7026 28.5566 35.2836 28.1807C35.8816 27.8048 36.3515 27.3178 36.6932 26.7198L39.0512 27.8732C38.7778 28.5224 38.3506 29.1119 37.7697 29.6416C37.2058 30.1542 36.5223 30.5643 35.7193 30.8719C34.9333 31.1623 34.0704 31.3076 33.1306 31.3076ZM49.746 31.3076C48.6696 31.3076 47.6871 31.0854 46.7986 30.6412C45.9272 30.1969 45.2523 29.5562 44.7738 28.7189L45.107 28.1807V31H42.339V11.5982H45.2352V20.0048L44.7738 19.3384C45.2864 18.5524 45.9699 17.9373 46.8242 17.493C47.6786 17.0488 48.6525 16.8267 49.746 16.8267C51.0617 16.8267 52.2407 17.1428 53.283 17.775C54.3423 18.4072 55.171 19.2701 55.7691 20.3636C56.3842 21.4571 56.6917 22.6874 56.6917 24.0543C56.6917 25.4212 56.3842 26.6515 55.7691 27.745C55.171 28.8385 54.3509 29.71 53.3086 30.3593C52.2663 30.9915 51.0788 31.3076 49.746 31.3076ZM49.4641 28.6164C50.2843 28.6164 51.0104 28.4199 51.6426 28.0269C52.2748 27.6339 52.7704 27.0957 53.1292 26.4122C53.5051 25.7117 53.693 24.9257 53.693 24.0543C53.693 23.1829 53.5051 22.4054 53.1292 21.722C52.7704 21.0385 52.2748 20.5003 51.6426 20.1073C51.0104 19.7143 50.2843 19.5178 49.4641 19.5178C48.661 19.5178 47.9348 19.7143 47.2856 20.1073C46.6534 20.5003 46.1493 21.0385 45.7734 21.722C45.4146 22.4054 45.2352 23.1829 45.2352 24.0543C45.2352 24.9257 45.4146 25.7117 45.7734 26.4122C46.1493 27.0957 46.6534 27.6339 47.2856 28.0269C47.9348 28.4199 48.661 28.6164 49.4641 28.6164ZM90.8706 31V11.5982H93.7668V31H90.8706ZM98.3832 36.6642C98.0414 36.6642 97.6997 36.63 97.358 36.5617C97.0333 36.5104 96.7343 36.425 96.4609 36.3054V33.8193C96.666 33.8705 96.9137 33.9133 97.2042 33.9474C97.4947 33.9987 97.7766 34.0243 98.05 34.0243C98.853 34.0243 99.4425 33.8449 99.8184 33.4861C100.211 33.1444 100.562 32.6061 100.869 31.8714L101.792 29.7698L101.741 32.2046L95.7433 17.1342H98.8445L103.278 28.6933H102.228L106.636 17.1342H109.763L103.637 32.5122C103.313 33.3323 102.903 34.05 102.407 34.6651C101.929 35.2973 101.356 35.7842 100.69 36.126C100.041 36.4848 99.2717 36.6642 98.3832 36.6642ZM111.745 31V17.1342H114.513V20.1329L114.154 19.6716C114.445 18.7318 114.974 18.0227 115.743 17.5443C116.512 17.0659 117.392 16.8267 118.383 16.8267C119.494 16.8267 120.476 17.1257 121.331 17.7237C122.202 18.3047 122.783 19.0821 123.073 20.056L122.253 20.1329C122.663 19.0223 123.287 18.1936 124.124 17.6468C124.979 17.1001 125.952 16.8267 127.046 16.8267C128.003 16.8267 128.866 17.0488 129.635 17.493C130.421 17.9373 131.044 18.5524 131.506 19.3384C131.967 20.1244 132.198 21.0214 132.198 22.0295V31H129.301V22.8241C129.301 22.1235 129.173 21.534 128.917 21.0556C128.678 20.5601 128.336 20.1842 127.892 19.9279C127.465 19.6545 126.961 19.5178 126.38 19.5178C125.799 19.5178 125.286 19.6545 124.842 19.9279C124.398 20.1842 124.047 20.5601 123.791 21.0556C123.535 21.5511 123.407 22.1406 123.407 22.8241V31H120.536V22.8241C120.536 22.1235 120.408 21.534 120.152 21.0556C119.912 20.5601 119.571 20.1842 119.126 19.9279C118.699 19.6545 118.187 19.5178 117.589 19.5178C117.008 19.5178 116.495 19.6545 116.051 19.9279C115.607 20.1842 115.256 20.5601 115 21.0556C114.761 21.5511 114.641 22.1406 114.641 22.8241V31H111.745ZM135.297 36.126V17.1342H138.065V20.0048L137.732 19.3384C138.245 18.5524 138.928 17.9373 139.783 17.493C140.637 17.0488 141.611 16.8267 142.704 16.8267C144.02 16.8267 145.199 17.1428 146.241 17.775C147.301 18.4072 148.129 19.2701 148.727 20.3636C149.343 21.4571 149.65 22.6874 149.65 24.0543C149.65 25.4212 149.343 26.6515 148.727 27.745C148.129 28.8385 147.309 29.71 146.267 30.3593C145.225 30.9915 144.037 31.3076 142.704 31.3076C141.628 31.3076 140.646 31.0854 139.757 30.6412C138.886 30.1969 138.211 29.5562 137.732 28.7189L138.194 28.1807V36.126H135.297ZM142.423 28.6164C143.243 28.6164 143.969 28.4199 144.601 28.0269C145.233 27.6339 145.729 27.0957 146.088 26.4122C146.464 25.7117 146.651 24.9257 146.651 24.0543C146.651 23.1829 146.464 22.4054 146.088 21.722C145.729 21.0385 145.233 20.5003 144.601 20.1073C143.969 19.7143 143.243 19.5178 142.423 19.5178C141.619 19.5178 140.893 19.7143 140.244 20.1073C139.612 20.5003 139.108 21.0385 138.732 21.722C138.373 22.4054 138.194 23.1829 138.194 24.0543C138.194 24.9257 138.373 25.7117 138.732 26.4122C139.108 27.0957 139.612 27.6339 140.244 28.0269C140.893 28.4199 141.619 28.6164 142.423 28.6164ZM157.414 31.3076C156.372 31.3076 155.458 31.0769 154.672 30.6156C153.886 30.1371 153.271 29.4793 152.826 28.642C152.399 27.7877 152.186 26.8052 152.186 25.6946V17.1342H155.082V25.4383C155.082 26.0705 155.21 26.6258 155.466 27.1043C155.722 27.5827 156.081 27.9586 156.543 28.232C157.004 28.4883 157.534 28.6164 158.132 28.6164C158.747 28.6164 159.285 28.4797 159.746 28.2063C160.208 27.933 160.566 27.5485 160.823 27.053C161.096 26.5575 161.233 25.9765 161.233 25.3102V17.1342H164.103V31H161.361V28.2832L161.669 28.642C161.344 29.4964 160.806 30.1542 160.054 30.6156C159.302 31.0769 158.422 31.3076 157.414 31.3076ZM172.611 31.3076C171.193 31.3076 169.945 30.9573 168.869 30.2567C167.81 29.5562 167.066 28.6164 166.639 27.4374L168.869 26.3866C169.245 27.1726 169.757 27.7963 170.407 28.2576C171.073 28.7189 171.808 28.9496 172.611 28.9496C173.294 28.9496 173.85 28.7958 174.277 28.4883C174.704 28.1807 174.918 27.7621 174.918 27.2324C174.918 26.8907 174.824 26.6173 174.636 26.4122C174.448 26.1901 174.209 26.0107 173.918 25.874C173.645 25.7373 173.363 25.6348 173.072 25.5665L170.894 24.9513C169.698 24.6096 168.801 24.097 168.203 23.4136C167.622 22.713 167.331 21.9014 167.331 20.9787C167.331 20.1415 167.545 19.4153 167.972 18.8002C168.399 18.168 168.989 17.681 169.74 17.3393C170.492 16.9975 171.338 16.8267 172.278 16.8267C173.542 16.8267 174.67 17.1428 175.661 17.775C176.652 18.3901 177.352 19.253 177.763 20.3636L175.533 21.4144C175.259 20.748 174.824 20.2184 174.226 19.8254C173.645 19.4324 172.987 19.2359 172.252 19.2359C171.62 19.2359 171.116 19.3897 170.74 19.6972C170.364 19.9877 170.176 20.3721 170.176 20.8506C170.176 21.1752 170.262 21.4486 170.432 21.6707C170.603 21.8758 170.825 22.0466 171.099 22.1833C171.372 22.3029 171.654 22.4054 171.945 22.4909L174.2 23.1573C175.345 23.4819 176.225 23.9945 176.84 24.695C177.455 25.3785 177.763 26.1987 177.763 27.1555C177.763 27.9757 177.54 28.7019 177.096 29.3341C176.669 29.9492 176.071 30.4361 175.302 30.795C174.533 31.1367 173.636 31.3076 172.611 31.3076Z" fill="white"/>
<g clip-path="url(#clip0_14_378)">
<path d="M81.0226 28.2106H85.94L87.1693 25.752V30.6693H79.7933V26.5547C82.3122 25.4692 84.096 22.7672 84.096 19.6053C84.096 15.4871 81.0694 12.2625 77.3346 12.2625C73.5999 12.2625 70.5733 15.4858 70.5733 19.6053C70.5733 22.7672 72.3571 25.4692 74.876 26.5547V30.6693H67.5V25.752L68.7293 28.2106H73.6467V27.5849C70.0423 26.3089 67.5 23.2171 67.5 19.6053C67.5 14.8527 71.9035 11 77.3346 11C82.7658 11 87.1693 14.8527 87.1693 19.6053C87.1693 23.2171 84.627 26.3076 81.0226 27.5849V28.2106Z" fill="#181818"/>
</g>
<defs>
<clipPath id="clip0_14_378">
<rect width="19.6693" height="19.6693" fill="white" transform="translate(67.5 11)"/>
</clipPath>
</defs>
</svg>
