<?xml version="1.0" standalone="no"?>
<!DOCTYPE svg PUBLIC "-//W3C//DTD SVG 1.1//EN" "http://www.w3.org/Graphics/SVG/1.1/DTD/svg11.dtd" >
<svg xmlns="http://www.w3.org/2000/svg" xmlns:xlink="http://www.w3.org/1999/xlink" version="1.1">
<metadata>
Created by FontForge 20201107 at Sun Feb 11 20:33:04 2024
 By 
Eotype
</metadata>
<defs>
<font id="GanoraRegular" horiz-adv-x="1656" >
  <font-face 
    font-family="Ganora"
    font-weight="400"
    font-stretch="normal"
    units-per-em="2048"
    panose-1="0 0 0 0 0 0 0 0 0 0"
    ascent="1638"
    descent="-410"
    x-height="1029"
    cap-height="1434"
    bbox="-231 -411.84 4259 1822.56"
    underline-thickness="0"
    underline-position="0"
    unicode-range="U+000A-FB01"
  />
<missing-glyph horiz-adv-x="1079" 
d="M102 1434h875v-1434h-875v1434zM160 1393l379 -633l381 633h-760zM514 717l-369 614v-1231zM541 674l-379 -631h758zM565 717l371 -621v1239z" />
    <glyph glyph-name=".notdef" horiz-adv-x="1079" 
d="M102 1434h875v-1434h-875v1434zM160 1393l379 -633l381 633h-760zM514 717l-369 614v-1231zM541 674l-379 -631h758zM565 717l371 -621v1239z" />
    <glyph glyph-name=".null" horiz-adv-x="0" 
 />
    <glyph glyph-name=".null" horiz-adv-x="0" 
 />
    <glyph glyph-name="nonmarkingreturn" horiz-adv-x="682" 
 />
    <glyph glyph-name="controlLF" unicode="&#xa;" horiz-adv-x="0" 
 />
    <glyph glyph-name="controlCR" unicode="&#xd;" horiz-adv-x="0" 
 />
    <glyph glyph-name="space" unicode=" " horiz-adv-x="712" 
 />
    <glyph glyph-name="exclam" unicode="!" horiz-adv-x="696" 
d="M404 265q62 0 106.5 -39t44.5 -93q0 -55 -44.5 -94t-106.5 -39q-64 0 -108.5 39t-44.5 94q0 53 45 92.5t108 39.5zM321 1278q0 59 -41.5 101t-101.5 42h-63v20h369v-20l-70 -1059h-22z" />
    <glyph glyph-name="quotedbl" unicode="&#x22;" horiz-adv-x="862" 
d="M263 1414q62 0 106.5 -38t44.5 -93q0 -22 -7 -39q-20 -73 -99 -127.5t-156 -54.5l-39 65q3 0 35.5 -0.5t44 0t40 2.5t43.5 6.5t33.5 12.5t29.5 20q-35 -16 -76 -16q-62 0 -106 38t-44 93t44 93t106 38zM601 1414q62 0 106.5 -38t44.5 -93q0 -20 -8 -39
q-20 -73 -99 -127.5t-156 -54.5l-39 65q3 0 35.5 -0.5t44 0t40 2.5t43.5 6.5t33.5 12.5t29.5 20q-35 -16 -75 -16q-64 0 -107.5 38t-43.5 93t43.5 93t107.5 38z" />
    <glyph glyph-name="numbersign" unicode="#" horiz-adv-x="1501" 
d="M1368 946h-252q-31 -114 -68 -265h262l-5 -22h-262q-49 -204 -101.5 -356.5t-141.5 -301.5h-175q89 149 141.5 301.5t101.5 356.5h-263q-49 -204 -101.5 -356.5t-141.5 -301.5h-175q89 149 141.5 301.5t101.5 356.5h-301l5 22h301q55 226 66 265h-309l5 22h311
q78 277 194 466h175q-112 -190 -194 -466h262q77 272 192 466h178q-121 -205 -195 -466h253zM873 681q63 257 65 265h-260q-40 -147 -65 -265h260z" />
    <glyph glyph-name="dollar" unicode="$" horiz-adv-x="1421" 
d="M735 778q186 -118 246 -165q165 -128 175 -247q4 -53 -20 -108q-36 -84 -125 -140t-211 -61h-77q-78 2 -217 22l-21 -39t-22 -39h-22q13 21 46 80q-26 4 -82 14t-81 13.5t-61.5 8t-58 4t-35.5 -5.5l-44 160q45 0 101 -15.5t96 -33t102 -46.5t90 -41q87 187 170 518
q-186 118 -246 165q-165 128 -175 247q-4 53 20 108q36 85 124.5 142t210.5 62h78q95 -3 216 -24q33 59 44 77h22q-13 -21 -46 -80q29 -4 82.5 -13t80.5 -12.5t62 -7.5t57 -3.5t36 5.5l46 -163q-58 0 -123.5 21.5t-152.5 62.5t-115 52q-87 -187 -170 -518zM885 1303
q-157 51 -278 53.5t-173 -52t-50.5 -130t89 -180t245.5 -203.5q29 114 46.5 178t51 160.5t69.5 173.5zM533 132q221 -82 369 -38q107 31 128 116q27 109 -97 249q-85 95 -230 188q-82 -325 -170 -515z" />
    <glyph glyph-name="percent" unicode="%" horiz-adv-x="2142" 
d="M1952 693q93 -155 33 -336t-237 -282q-117 -66 -246 -71t-238 49.5t-170 157.5q-65 116 -53.5 234t82 221t178.5 163q116 66 244.5 71t237 -49.5t169.5 -157.5zM1733 100q126 69 153.5 223t-60.5 299q-88 146 -237.5 200t-275.5 -15q-81 -47 -122 -133.5t-33.5 -190.5
t63.5 -199q88 -148 237 -201.5t275 17.5zM1444 1441l-14 -32l-720 -1409l-19 10l722 1409h-610q77 -22 140.5 -69.5t102.5 -115.5q93 -157 33 -337.5t-237 -281.5q-117 -66 -246 -70.5t-238 50t-170 156.5q-65 116 -53.5 234.5t82 222t178.5 163.5q129 70 264 70h785z
M919 1162q-43 73 -105.5 124.5t-131 76t-141 21t-134.5 -37.5q-81 -47 -122.5 -133t-34 -190t63.5 -199q88 -148 237.5 -202t275.5 17q83 45 124.5 132t33.5 191.5t-66 199.5z" />
    <glyph glyph-name="ampersand" unicode="&#x26;" horiz-adv-x="1566" 
d="M1441 859q-113 13 -280 -34q71 -87 100 -186t16.5 -190.5t-59.5 -175.5t-119.5 -145.5t-172 -96t-209.5 -30.5q-125 5 -232 53t-179 122.5t-115 168t-51 190t24.5 188.5t100.5 164t188 115.5t276 43.5l-489 369v20q87 0 229 -11.5t248 -20.5t226.5 -3t200.5 35l56 -161
q-107 -15 -179.5 -8t-165 30t-167.5 48t-187 46.5t-224 24.5l488 -369v-20q-95 0 -179.5 -54.5t-136.5 -141.5t-84.5 -193t-24 -212.5t45 -195t123 -146t208.5 -60.5q111 -3 201 64t135.5 172.5t37 244.5t-82.5 269q-33 -13 -111.5 -47.5t-138 -54t-119.5 -26.5l-5 19
q80 15 166 53t160 83.5t145 90.5t144.5 81t135.5 47z" />
    <glyph glyph-name="quotesingle" unicode="'" horiz-adv-x="524" 
d="M263 1414q62 0 106.5 -38t44.5 -93q0 -22 -7 -39q-20 -73 -99.5 -127.5t-156.5 -54.5l-38 65q3 0 35.5 -0.5t44 0t40 2.5t43.5 6.5t33.5 12.5t29.5 20q-35 -16 -76 -16q-64 0 -107 38t-43 93t43 93t107 38z" />
    <glyph glyph-name="parenleft" unicode="(" horiz-adv-x="735" 
d="M627 1397q-76 0 -137 -76.5t-98.5 -202t-58 -286t-20.5 -327.5t20.5 -327.5t58 -286t98.5 -202t137 -76.5v-22q-115 0 -207.5 78.5t-149.5 206.5t-88 292t-31 335.5t31 335.5t88 292t149.5 206.5t207.5 78.5v-19z" />
    <glyph glyph-name="parenright" unicode=")" horiz-adv-x="733" 
d="M106 1416q114 0 206.5 -78.5t149.5 -206.5t88 -292t31 -335.5t-31 -335.5t-88 -292t-149.5 -206.5t-206.5 -78.5v22q76 0 137 76.5t98.5 202t58 286t20.5 327.5t-20.5 327.5t-58 286t-98.5 202t-137 76.5v19z" />
    <glyph glyph-name="asterisk" unicode="*" horiz-adv-x="1015" 
d="M874 1223q-43 -48 -112 -78q-25 -10 -69.5 -25.5t-77.5 -29.5t-64 -35q19 -10 68.5 -36.5t80.5 -42t74 -30.5t76 -17h16l-7 -114l-19 2q-69 17 -124 61q-21 16 -56.5 47t-64 52t-61.5 37q1 -22 2 -77t2.5 -90t10 -79.5t23.5 -74.5l8 -15l-102 -51l-8 20q-20 62 -9 136
q3 21 12.5 71.5t12.5 85t1 71.5q-12 -8 -84 -52t-111 -76t-62 -68l-10 -15l-97 63l14 17q50 50 115 78q18 7 54.5 19.5t55.5 19.5t47 21t52 30q-19 10 -68 36.5t-79.5 42t-73.5 30.5t-76 17h-19l7 114l22 -5q65 -14 124 -58q21 -16 56.5 -47t64 -52t61.5 -37q-1 21 -2 77
t-3 90t-10.5 79t-23.5 75l-10 14l105 51l7 -19q17 -67 10 -139q-3 -20 -12.5 -70t-13 -84.5t-1.5 -71.5q19 13 84.5 53.5t108 73.5t65.5 68l9 17l95 -66z" />
    <glyph glyph-name="plus" unicode="+" horiz-adv-x="901" 
d="M532 777h250v-162h-250v-251h-163v251h-250v162h250v251h163v-251z" />
    <glyph glyph-name="comma" unicode="," horiz-adv-x="507" 
d="M253 253q62 0 106.5 -39t44.5 -94q0 -20 -8 -39q-20 -73 -98.5 -126.5t-156.5 -53.5l-39 66q6 0 31 -0.5t36.5 0t35 1.5t37.5 3.5t32 6.5t31 11t23 17q-37 -17 -75 -17q-62 0 -106.5 38t-44.5 93t44.5 94t106.5 39z" />
    <glyph glyph-name="hyphen" unicode="-" horiz-adv-x="849" 
d="M94 570h661v-163h-661v163z" />
    <glyph glyph-name="period" unicode="." horiz-adv-x="509" 
d="M255 266q62 0 106.5 -39.5t44.5 -94.5t-44.5 -93t-106.5 -38q-64 0 -108.5 38t-44.5 93t45 94.5t108 39.5z" />
    <glyph glyph-name="slash" unicode="/" horiz-adv-x="618" 
d="M464 1434h22l-333 -1433h-22z" />
    <glyph glyph-name="zero" unicode="0" horiz-adv-x="1484" 
d="M1266 1086q59 -125 71.5 -268t-19 -275t-105.5 -249t-180 -192q-107 -75 -227 -94.5t-229 13.5t-204 117t-154 209t-71.5 268t19 275t105.5 249t180 192q142 101 302 103.5t296.5 -90t215.5 -258.5zM1025 119q111 79 167.5 225.5t46 323t-86.5 339.5
q-57 120 -142.5 207.5t-178 129t-191 35.5t-181.5 -64q-111 -79 -167 -225.5t-45.5 -322.5t86.5 -339q57 -121 142 -208.5t178 -129t191 -35.5t181 64z" />
    <glyph glyph-name="one" unicode="1" horiz-adv-x="663" 
d="M498 22v-22h-369v22h63q60 0 102 41.5t42 101.5v1013q0 60 -42 102t-102 42h-63v22l348 90h21v-1412z" />
    <glyph glyph-name="two" unicode="2" horiz-adv-x="1239" 
d="M218 172v-150q103 0 197 14.5t157 35t132.5 43t123 38t128.5 20.5t149 -10l-56 -163q-80 30 -188.5 36t-201.5 -3t-223 -21t-218 -12h-20v221q0 102 41.5 193.5t108 161.5t147 134t161 123t147.5 116.5t109.5 125.5t43.5 140q0 88 -71.5 144t-205.5 60q-54 1 -119 -23.5
t-123.5 -58.5t-113.5 -67.5t-105 -55.5t-83 -19l44 161q67 -5 238.5 36.5t266.5 41.5q132 -5 228 -66t134 -153q34 -75 17 -151t-68.5 -140t-129 -131.5t-163.5 -126t-172 -122.5t-155 -121.5t-112.5 -123t-44.5 -127.5z" />
    <glyph glyph-name="three" unicode="3" horiz-adv-x="1308" 
d="M861 75q-99 -50 -181.5 -66t-143.5 -5t-112.5 29t-113.5 33.5t-120 11.5l-44 162q43 4 102.5 -28t120 -72.5t129.5 -74t154.5 -32t171.5 53.5q84 50 124 141.5t35 194.5t-46 211t-107 194.5t-159.5 141.5t-193.5 55v22l500 367q-112 -3 -216 -24t-168.5 -46t-145.5 -48.5
t-147 -30.5t-173 8l58 163q80 -30 188.5 -36t201 3t222 21t217.5 12v-22l-501 -367h88q150 0 283 -68t210 -187q60 -91 73 -196t-18 -201t-106 -181t-182 -139z" />
    <glyph glyph-name="four" unicode="4" horiz-adv-x="1382" 
d="M1054 474v-474h-370v22h64q60 0 101.5 41.5t41.5 101.5v452h-782l12 17l551 800h382v-797h206v-20h-63q-60 0 -101.5 -41.5t-41.5 -101.5zM682 1414l-535 -777h744v634q0 60 -41.5 101.5t-101.5 41.5h-66z" />
    <glyph glyph-name="five" unicode="5" horiz-adv-x="1298" 
d="M229 1047h354q85 0 163 -22q221 -59 333 -233q59 -91 71.5 -196t-18 -201t-105 -181t-181.5 -139q-99 -50 -182 -66t-144 -5t-112.5 29.5t-113.5 33.5t-121 11l-44 163q37 3 86 -19t95 -55.5t105 -66t117 -52.5t131 -12.5t146 51.5q63 38 101.5 100t49 134.5t0.5 154
t-39 159t-76.5 148.5t-105 124.5t-130 85.5t-147.5 32h-265l185 409q66 -4 178.5 -16t178.5 -17.5t153 2t158 33.5l56 -163q-98 -13 -156 -8.5t-126 25.5t-119 43.5t-135.5 46t-175.5 32.5z" />
    <glyph glyph-name="six" unicode="6" horiz-adv-x="1415" 
d="M1205 804q53 -90 61.5 -193.5t-23.5 -200t-104.5 -184t-174.5 -144.5q-136 -76 -286.5 -82t-277.5 58.5t-199 184.5q-64 113 -63.5 237t61.5 239l321 714l19 -2q100 -14 171 -11t139 8t124 7.5t126 -13t145 -51.5l-97 -142q-48 34 -101.5 59t-124 44t-115 28t-140.5 25.5
t-134 23.5l-265 -590q72 88 175 145q136 77 286.5 82.5t277.5 -58.5t199 -184zM955 99q98 56 147.5 160t39.5 228t-78 239q-51 86 -126.5 148t-157.5 91.5t-168.5 25t-160.5 -45.5q-98 -55 -147 -158t-39 -227t78 -239q104 -175 283.5 -240t328.5 18z" />
    <glyph glyph-name="seven" unicode="7" horiz-adv-x="1282" 
d="M327 0h-177q141 235 421.5 706.5t421.5 707.5q-118 -1 -225.5 -22t-174 -46.5t-148.5 -49.5t-149 -31t-175 8l56 160q80 -29 188.5 -35t201 3t222 20.5t216.5 11.5h178q-484 -805 -843 -1411z" />
    <glyph glyph-name="eight" unicode="8" horiz-adv-x="1529" 
d="M763 1434q266 0 407 -121q104 -89 101 -207t-112 -204q-94 -74 -243 -100q256 -34 385 -177q103 -115 86 -255q-18 -141 -151 -240q-174 -130 -473 -130q-310 0 -484 140q-128 102 -139 243q-11 140 97 253q129 133 375 166q-208 36 -302 159q-78 101 -45 216
q33 117 167 187q133 70 331 70zM763 22q112 0 202 33t145.5 87t85.5 123t30 141t-30 141t-85.5 123t-145.5 87t-202 33t-202 -33t-145.5 -87t-85.5 -123t-30 -141t30 -141t85.5 -123t145.5 -87t202 -33zM763 1412q-83 0 -149.5 -26t-108 -68t-63.5 -96t-22 -110t22 -110
t63.5 -96t108 -68t149.5 -26t150 26t108.5 68t64 96t22.5 110t-22.5 110t-64 96t-108.5 68t-150 26z" />
    <glyph glyph-name="nine" unicode="9" horiz-adv-x="1415" 
d="M1213 1193q64 -113 63 -237t-63 -239l-322 -717l-16 4q-100 14 -171.5 11t-139 -7.5t-124 -7t-126 12.5t-144.5 50l97 141q47 -34 100.5 -58.5t122.5 -43t116.5 -28.5t140 -26t135.5 -24l265 593q-66 -84 -175 -146q-136 -77 -287 -83t-278.5 58.5t-197.5 185.5
q-53 90 -61.5 193.5t23.5 200t104.5 184t174.5 144.5q208 116 430.5 68.5t332.5 -229.5zM960 489q99 56 149 159.5t40 227.5t-78 239q-51 86 -126 148t-157 91t-169 25t-160 -45q-98 -55 -147.5 -158t-39.5 -227.5t78 -239.5q51 -86 126 -148t156.5 -91.5t167.5 -25.5
t160 45z" />
    <glyph glyph-name="colon" unicode=":" horiz-adv-x="548" 
d="M273 266q62 0 106.5 -39.5t44.5 -94.5t-44.5 -93t-106.5 -38q-64 0 -107 38t-43 93t43.5 94.5t106.5 39.5zM273 820q-64 0 -107 38t-43 93t43 93t107 38q62 0 106.5 -38t44.5 -93t-44.5 -93t-106.5 -38z" />
    <glyph glyph-name="semicolon" unicode=";" horiz-adv-x="548" 
d="M274 809q-62 0 -106.5 38.5t-44.5 93.5t44.5 93t106.5 38t106 -38t44 -93t-44 -93.5t-106 -38.5zM274 255q62 0 106 -39t44 -94q0 -22 -7 -39q-20 -73 -98.5 -126.5t-156.5 -53.5l-39 66q6 0 31 -0.5t36.5 0t35 1.5t37.5 3.5t32 6.5t31 11t23 17q-37 -17 -75 -17
q-62 0 -106.5 38t-44.5 93t44.5 94t106.5 39z" />
    <glyph glyph-name="less" unicode="&#x3c;" horiz-adv-x="946" 
d="M811 908l-414 -238l-111 -65l111 -63l414 -241v-187l-688 398v187l688 397v-188z" />
    <glyph glyph-name="equal" unicode="=" horiz-adv-x="888" 
d="M113 393v163h663v-163h-663zM113 816h663v-160h-663v160z" />
    <glyph glyph-name="greater" unicode="&#x3e;" horiz-adv-x="946" 
d="M135 1096l688 -397v-187l-688 -398v187l416 241l109 63l-109 65l-416 238v188z" />
    <glyph glyph-name="question" unicode="?" horiz-adv-x="1048" 
d="M489 266q62 0 106.5 -39.5t44.5 -94.5t-44.5 -93t-106.5 -38q-64 0 -108.5 38t-44.5 93t45 94.5t108 39.5zM910 1223q19 -57 11 -109.5t-33 -91.5t-63.5 -80t-81.5 -75.5t-86.5 -78t-78.5 -87t-57 -102.5t-22 -124v-112h-22v112q0 92 29.5 176.5t72 150t85 128
t73.5 138.5t32 155q0 94 -49.5 147.5t-176.5 54.5q-54 1 -107 -23t-95 -59t-80.5 -70t-77 -57.5t-70.5 -19.5l43 161q56 -3 114.5 18t128.5 44t149 23q131 -5 227.5 -66.5t134.5 -152.5z" />
    <glyph glyph-name="at" unicode="@" horiz-adv-x="2428" 
d="M1215 1416q146 0 285 -32.5t256.5 -91.5t216.5 -143t168 -184t107.5 -218t38.5 -242q1 -317 -194 -465q-136 -104 -324 -99q-148 3 -243 70q-81 57 -72 132q-142 -109 -326 -121.5t-343 80.5q-127 76 -191.5 200t-53.5 262.5t97 258.5t222 184t286 58.5t275 -81.5
q70 -44 128 -110v5l3 22q8 60 -28 101.5t-96 41.5h-63l2 20h369l-2 -20l-22 -165l-49 -367l-2 -34l-44 -333q-12 -96 59 -149q69 -52 165 -30q119 28 197 153q90 146 90 386q-1 181 -73.5 346t-194 284.5t-290.5 190.5t-354 71q-186 0 -355 -71t-291.5 -190.5t-194.5 -284.5
t-72 -346q0 -182 72 -347t194.5 -284.5t291.5 -190t355 -70.5q196 0 367 75l-5 -43q-181 -54 -362 -54q-219 0 -418 72.5t-342.5 194.5t-228.5 291.5t-85 355.5q0 185 85 354t228.5 291t342.5 194t418 72zM1512 587l26 207q-34 113 -131 170q-68 41 -154 45.5t-171.5 -25
t-168.5 -91.5t-145 -148q-84 -114 -109.5 -239t11 -228.5t127.5 -158.5q68 -41 154 -45t171.5 25.5t168.5 92t145 148.5q51 68 56 104z" />
    <glyph glyph-name="A" unicode="A" horiz-adv-x="1267" 
d="M546 1205l-20 46q-20 45 -41.5 77t-38.5 48t-39 24.5t-35 10t-33 1.5h-46v22h331l165 -389l447 -1045h-343v19h49q32 0 50.5 8t23 24t2 32t-10.5 39l-128 303h-564q-20 -96 -30.5 -145t-35 -129t-55.5 -151h-163q66 153 515 1205zM320 445h549l-44 99l-7 22l-58 136
l-146 343l-58 133q-69 -150 -118.5 -294t-70 -227.5t-47.5 -211.5z" />
    <glyph glyph-name="B" unicode="B" horiz-adv-x="1394" 
d="M421 19h388q61 0 116 23t94.5 63.5t70 93.5t42.5 114.5t12 124.5t-22.5 125.5t-59.5 116.5t-100 97.5t-143 68.5q-73 24 -144.5 18t-128 -31.5t-91.5 -80.5t-34 -128v-605zM51 0v19h63q60 0 102 42.5t42 101.5v1108q0 59 -42 100t-102 41h-63v22h681q68 0 126.5 -15.5
t100 -42.5t73 -62.5t45.5 -76.5t18 -83t-10.5 -83t-40 -76t-69.5 -63t-100 -43q175 19 299 -120q105 -117 131 -291q26 -181 -48 -312q-87 -154 -277 -165q-13 -1 -27 -1h-902zM421 1412v-678q21 55 61.5 91t87 52t98 27.5t98 24.5t84.5 35.5t60.5 68.5t22.5 116
q0 87 -45 148t-112.5 88t-150.5 27h-204z" />
    <glyph glyph-name="C" unicode="C" horiz-adv-x="1417" 
d="M468 1332q178 102 377 102q56 0 117 -18.5t106.5 -40t106.5 -37t117 -11.5l54 -153q-65 0 -120.5 16t-98 41.5t-83 51.5t-92.5 51t-109 36q-196 39 -363 -55q-137 -79 -207 -225.5t-57.5 -323t106.5 -338.5q71 -122 176 -209.5t219.5 -128.5t235 -35t222.5 64
q104 61 170 160v-58q-67 -67 -160 -119q-175 -100 -371 -103t-364.5 89.5t-265.5 259.5q-73 125 -88.5 268t22.5 275t128.5 249t221.5 192z" />
    <glyph glyph-name="D" unicode="D" horiz-adv-x="1404" 
d="M418 19h258q113 0 205 60t148 158t86.5 223t30.5 255.5t-31 255.5t-87 223t-147.5 158t-204.5 60h-258v-1393zM49 1434h627q135 0 248 -49t186 -132t124 -190.5t62 -226t0 -237.5t-62 -226.5t-124 -190.5t-186 -132.5t-248 -49.5h-627v19h63q60 0 102 42.5t42 101.5v1108
q0 59 -42 100t-102 41h-63v22z" />
    <glyph glyph-name="E" unicode="E" horiz-adv-x="1361" 
d="M418 867v-848q102 0 196 14.5t156.5 35t132 43t123 38t128.5 20.5t149 -10l-56 -160q-80 29 -189 35t-201.5 -3t-222 -20.5t-216.5 -11.5h-369v20h63q60 0 102 42t42 101v1108q0 59 -42 100t-102 41h-63v22h369q87 0 216.5 -12t222 -21t201.5 -3t189 36l56 -163
q-109 -15 -176.5 -7t-150.5 32.5t-150.5 50t-177 45.5t-230.5 20v-523h260q60 0 102 42t42 102v182h19v-668h-19v177q0 60 -42 101.5t-102 41.5h-260z" />
    <glyph glyph-name="F" unicode="F" horiz-adv-x="1331" 
d="M416 870v-870h-367v22h63q59 0 101.5 41.5t42.5 99.5v1108q0 58 -42.5 100.5t-101.5 42.5h-63v20h367q88 0 217.5 -11.5t222.5 -20.5t201.5 -3t189.5 35l56 -161q-74 -15 -149 -10t-128.5 20.5t-123 38t-132.5 43t-157 35t-197 14.5v-525h263q58 0 100.5 42.5t42.5 101.5
v182h19v-666h-19v178q0 58 -42.5 100.5t-101.5 42.5h-262z" />
    <glyph glyph-name="G" unicode="G" horiz-adv-x="1480" 
d="M469 1332q179 102 377 102q56 0 117 -18.5t106.5 -40t106.5 -37t117 -11.5l51 -153q-64 0 -119.5 16t-98 41.5t-82.5 51.5t-93 51t-110 36q-193 39 -362 -55q-136 -79 -205.5 -225.5t-57 -323t106.5 -338.5q71 -122 175.5 -209.5t218.5 -128.5t235 -35t224 64l7 5v743
h-262q-59 0 -101 -41.5t-42 -101.5v-175h-20v666h20v-182q0 -60 42 -102t101 -42h423v-668q-78 -74 -158 -119q-175 -100 -371.5 -103t-365.5 89t-267 259q-73 125 -88 268.5t23.5 275.5t129.5 249t222 192z" />
    <glyph glyph-name="H" unicode="H" horiz-adv-x="1472" 
d="M938 1434h369v-1434h-369v19h63q60 0 102 42.5t42 101.5v704q-30 -61 -80 -84t-107.5 -14t-121.5 32.5t-127 51t-118.5 45.5t-100.5 12.5t-69 -43.5v-867h-370v19h63q60 0 102 42.5t42 101.5v1108q0 59 -42 100t-102 41h-63v22h370v-545q30 61 80 84t107.5 14
t121.5 -32.5t127 -51t118.5 -45.5t100.5 -12.5t69 43.5v382q0 59 -42 100t-102 41h-63v22z" />
    <glyph glyph-name="I" unicode="I" horiz-adv-x="589" 
d="M427 1434v-1434h-370v19h66q58 0 99.5 42.5t41.5 101.5v1108q0 59 -41 100t-100 41h-66v22h370z" />
    <glyph glyph-name="J" unicode="J" horiz-adv-x="573" 
d="M40 1436h369v-1526q0 -60 -43.5 -99t-113 -59t-143 -35.5t-147.5 -41.5t-112 -64l-75 146q24 14 65 15t84 -6t90.5 -14t88.5 -5t74 17t51.5 56.5t17.5 108.5v1344q0 59 -41 100t-100 41h-65v22z" />
    <glyph glyph-name="K" unicode="K" horiz-adv-x="1318" 
d="M421 24l-1 -22h-369v22h63q60 0 102 42t42 102v1105q0 60 -42 102t-102 42h-63v21h370v-1414zM1120 0q-60 72 -94.5 148.5t-45.5 138t-18.5 123.5t-21 115t-45 102.5t-100 95.5t-175.5 86q-170 57 30 168q15 8 55 29q93 49 158 95.5t100.5 81.5t47.5 71.5t13.5 58
t-16.5 50t-28 39t-35 32.5l-4 4h162q111 -210 -386 -452q-50 -24 -63 -49t5 -50t65 -58q113 -79 198.5 -185t132 -204t81.5 -187.5t70.5 -158.5t76.5 -94h-163z" />
    <glyph glyph-name="L" unicode="L" horiz-adv-x="1331" 
d="M418 1434v-1415q102 0 196 14.5t156.5 35t132 43t123 38t128.5 20.5t149 -10l-56 -160q-80 29 -189 35t-201.5 -3t-222 -20.5t-216.5 -11.5h-369v19h63q60 0 102 42.5t42 101.5v1108q0 59 -42 100t-102 41h-63v22h369z" />
    <glyph glyph-name="M" unicode="M" horiz-adv-x="1556" 
d="M1230 1412q-53 -234 -321 -1412h-177q14 76 -3 167.5t-56.5 184.5t-90 193.5t-104 208t-98 212.5t-73.5 222.5t-29 223.5v-1412h-229v19h63q60 0 102 42.5t42 101.5v1108q0 59 -42 100t-102 41h-63v22h391q-3 -102 20.5 -208t63.5 -200.5t89 -191t99 -194.5t91 -195
t66.5 -207.5t25.5 -218.5q53 235 160 707.5t161 707.5h177v-1434h-369v19h63q60 0 101.5 42.5t41.5 101.5v1249z" />
    <glyph glyph-name="N" unicode="N" horiz-adv-x="1470" 
d="M256 163v1108q0 59 -41 100t-100 41h-66v22h391q8 -71 37 -140t72 -129.5t97.5 -122t115.5 -126t123 -133t123 -151t113 -171.5t95.5 -203t67.5 -239v144v376v732q0 59 -42 100t-102 41h-63v21h207h21v-1433h-184q-19 112 -72 218.5t-122.5 194t-150.5 175t-161.5 178
t-149.5 185t-119.5 213.5t-67.5 248v-1412h-22h-207v19h66q58 0 99.5 42.5t41.5 101.5z" />
    <glyph glyph-name="O" unicode="O" 
d="M1473 1084q72 -125 87.5 -267.5t-23 -274.5t-129.5 -248.5t-222 -190.5q-175 -100 -371 -103t-365.5 89t-267.5 259q-72 125 -87 268t23.5 275t129 249t221.5 192q175 100 371 102.5t365.5 -90.5t267.5 -260zM1176 120q136 79 205.5 225.5t56.5 322.5t-107 337
q-71 122 -175 209.5t-218 129.5t-235 36t-224 -64q-136 -79 -205.5 -225.5t-57 -323t106.5 -338.5q71 -122 175.5 -209.5t218.5 -128.5t235 -35t224 64z" />
    <glyph glyph-name="P" unicode="P" horiz-adv-x="1368" 
d="M683 1434q325 0 487 -178q122 -134 118 -327q-4 -181 -113 -327q-119 -160 -308 -201q-51 -11 -104 -12q-55 -2 -109 16.5t-88.5 41t-74 38.5t-71.5 11v-496h-369v19h63q60 0 102 42.5t42 101.5v1108q0 59 -42 100t-102 41h-63v22h370v-47q44 3 136 25t126 22zM938 464
q101 54 152 140t51.5 180t-35.5 193.5t-100.5 182.5t-152.5 145.5t-182 84.5q-30 9 -65.5 6.5t-57 -8t-59 -14t-69.5 -11.5v-704q39 0 74 -19t62.5 -47t56 -60t60 -57.5t68 -40.5t87 -9t110.5 38z" />
    <glyph glyph-name="Q" unicode="Q" 
d="M468 1332q176 100 372.5 102.5t365.5 -90.5t266 -260q73 -124 88.5 -267t-23 -275t-130 -249t-222.5 -191q-33 -19 -39 -22q41 -101 145.5 -183t272.5 -125v-163q-214 52 -335.5 172t-147.5 270q-124 -48 -256.5 -51t-251.5 35.5t-221.5 118.5t-167.5 193
q-73 125 -88.5 268.5t22.5 275.5t128.5 249t221.5 192zM1076 75q-12 109 26 204.5t124.5 157.5t203.5 64q44 262 -99 503q-71 122 -175.5 209.5t-218.5 129.5t-234.5 36t-222.5 -64q-137 -79 -207 -225.5t-56.5 -323t108.5 -338.5q63 -108 152.5 -190t188.5 -126t206 -56.5
t204 19.5zM1428 481q-83 -1 -150 -34t-103 -86t-48.5 -121.5t12.5 -139.5l18 9t18 10q99 58 164 152t89 210z" />
    <glyph glyph-name="R" unicode="R" horiz-adv-x="1355" 
d="M421 24l-1 -19h-369v19h63q60 0 102 42.5t42 101.5v1108q0 59 -42 100t-102 41h-63v21h911q117 0 199.5 -82t82.5 -199q0 -78 -38 -148.5t-104 -110t-140 -26.5l-257 46q-44 9 -53.5 -13.5t28.5 -46.5q106 -66 190 -154t132.5 -171.5t89 -171.5t65.5 -157t57.5 -125
t68.5 -79h-163q-60 72 -94.5 148.5t-45.5 138t-18.5 124t-21 115.5t-45 102.5t-100 95.5t-175.5 85q-61 21 -74 67q-12 44 28 71q54 35 158 3l89 -27q99 -32 179.5 44.5t80.5 189.5q0 107 -76.5 183.5t-183.5 76.5h-400v-1393z" />
    <glyph glyph-name="S" unicode="S" horiz-adv-x="1357" 
d="M588 1412q-135 -1 -208.5 -55.5t-73.5 -141.5q1 -63 36 -124.5t92 -112t130.5 -103.5t151 -99t153 -98t137 -101t103 -107.5t51 -118t-19.5 -132.5q-38 -91 -134.5 -152.5t-227.5 -66.5h-85q-102 4 -241.5 26t-232.5 35.5t-126 1.5l-42 156h3q74 0 171 -32t177 -70
t181.5 -69t184.5 -29q135 4 208.5 58.5t73.5 141.5q-1 63 -36 124.5t-92 112t-130.5 103.5t-151 99t-153 98t-137 101t-103 107.5t-51 118t19.5 132.5q38 91 134.5 152.5t227.5 66.5h85q102 -4 241.5 -26.5t233 -36t126.5 -1.5l41 -155h-2q-61 0 -135 21t-143.5 50.5
t-140.5 59t-149.5 49t-146.5 17.5z" />
    <glyph glyph-name="T" unicode="T" horiz-adv-x="1331" 
d="M746 19v-19h-369v19h63q60 0 101.5 42.5t41.5 101.5v1249h-381q-60 0 -101.5 -41t-41.5 -100v-66h-22v229h1256v-229h-22v66q0 59 -41.5 100t-99.5 41h-384v-1393z" />
    <glyph glyph-name="U" unicode="U" horiz-adv-x="1431" 
d="M1267 1215v56q0 59 -41.5 100t-99.5 41h-65v22h228v-912q0 -76 -22 -143q-48 -166 -187 -272.5t-316 -106.5q-102 0 -195.5 38.5t-166.5 107.5q-76 72 -118 169t-42 207v749q0 58 -42.5 99.5t-101.5 41.5h-65v22h369v-900q0 -32 0.5 -56t7.5 -82t19.5 -101.5t39.5 -98.5
t64 -91t96.5 -61t134.5 -25q136 0 252 67.5t183.5 183.5t67.5 252v693z" />
    <glyph glyph-name="V" unicode="V" horiz-adv-x="1404" 
d="M857 228l64 -150l-37 -78h-104l-535 1256q-24 54 -49.5 88.5t-52 47.5t-43 16.5t-42.5 3.5h-44v22h331q466 -1094 503 -1179q73 157 122.5 302t74.5 254.5t45 209t49 207t71 206.5h163q-87 -200 -258.5 -603t-257.5 -603z" />
    <glyph glyph-name="W" unicode="W" horiz-adv-x="1990" 
d="M1443 228l63 -150l-36 -78h-105l-304 709l-204 -481l64 -150l-37 -78h-107l-534 1256q-19 44 -40 75t-38.5 46.5t-39 23.5t-34.5 9.5t-33 1.5h-44v22h331q253 -604 500 -1179q127 266 190 520l-204 481q-24 54 -49.5 88.5t-52 47.5t-43 16.5t-42.5 3.5h-44v22h330
q336 -788 501 -1179q90 192 146.5 371t77 293t55.5 255t85 260h163q-86 -201 -257.5 -603t-257.5 -603z" />
    <glyph glyph-name="X" unicode="X" horiz-adv-x="1345" 
d="M359 1434l416 -601q29 42 84 118.5t88 125t72 113t62.5 125t33.5 119.5l167 -32q-29 -80 -70.5 -142t-91.5 -109t-101 -90.5t-114 -108t-116 -138.5l493 -712l-131 -102l-474 663q-41 -66 -112.5 -167t-119 -169t-91.5 -158t-58 -169l-168 32q31 84 77.5 149t100.5 114
t110 97t124 122.5t125 165.5l-405 571q-5 7 -21.5 30.5t-24 33t-23.5 28.5t-28 28t-29.5 20.5t-36 16t-39.5 4.5h-29v22h330z" />
    <glyph glyph-name="Y" unicode="Y" horiz-adv-x="1296" 
d="M760 836h3q29 42 83 118t87 124.5t71.5 113t62 124.5t33.5 118l171 -32q-54 -90 -118 -166t-116 -124t-124.5 -127.5t-137.5 -170.5v-814h-369v20h63q60 0 101.5 42t41.5 101v573l-367 515q-1 2 -18 26t-21 29.5t-20 25.5t-23.5 26.5t-24 20.5t-29 18.5t-30.5 9.5t-36 5
h-29v22h331z" />
    <glyph glyph-name="Z" unicode="Z" horiz-adv-x="1191" 
d="M795 1198l129 214q-119 -1 -227 -21t-174.5 -45.5t-149 -49.5t-149.5 -32t-175 7l56 163q81 -30 189.5 -36t201.5 3t222.5 21t217.5 12h175l-153 -258l-690 -1157q118 1 225.5 22t174.5 46.5t149.5 49.5t149.5 31t175 -8l-55 -160q-81 29 -189.5 35t-201.5 -3
t-222.5 -20.5t-217.5 -11.5h-175l141 236l12 19z" />
    <glyph glyph-name="bracketleft" unicode="[" horiz-adv-x="655" 
d="M470 1397q-60 0 -101.5 -42.5t-41.5 -101.5v-1496q0 -60 41.5 -102t101.5 -42h63v-22h-226q-58 0 -100.5 42.5t-42.5 101.5v1538q0 60 42 101.5t101 41.5h226v-19h-63z" />
    <glyph glyph-name="backslash" unicode="\" horiz-adv-x="618" 
d="M153 1434l333 -1433h-22l-333 1433h22z" />
    <glyph glyph-name="bracketright" unicode="]" horiz-adv-x="655" 
d="M347 1416q59 0 101 -41.5t42 -101.5v-1538q0 -59 -42.5 -101.5t-100.5 -42.5h-226v22h63q60 0 101.5 42t41.5 102v1496q0 59 -41.5 101.5t-101.5 42.5h-63v19h226z" />
    <glyph glyph-name="asciicircum" unicode="^" horiz-adv-x="794" 
d="M491 1324l202 -352h-187l-44 80l-65 111l-63 -111l-47 -80h-187l204 352h187z" />
    <glyph glyph-name="underscore" unicode="_" horiz-adv-x="931" 
d="M766 -409h-602v32h602v-32z" />
    <glyph glyph-name="grave" unicode="`" horiz-adv-x="532" 
d="M264 1400l165 -353h-124l-209 353h168z" />
    <glyph glyph-name="a" unicode="a" horiz-adv-x="1173" 
d="M654 1047q169 0 276.5 -99.5t107.5 -264.5v-683h-19q-29 41 -99.5 50t-144 -4t-179 -29t-173.5 -17q-94 0 -164.5 30t-107 78t-46 110t10.5 123t71 119t127 96q47 23 119.5 52t127 49.5t113 51.5t93.5 62.5t52.5 79.5t4.5 106q-39 61 -106.5 72t-148.5 -15.5t-160.5 -62
t-165.5 -67t-141 -31.5l37 163q40 -10 241 10.5t274 20.5zM878 73v615q0 154 -39 240q13 -62 -3.5 -117.5t-48 -93.5t-86.5 -77t-100 -62.5t-110 -56t-97 -50.5q-76 -45 -107.5 -118t-16 -140.5t78 -118.5t157.5 -55q54 -2 182.5 18.5t189.5 15.5z" />
    <glyph glyph-name="b" unicode="b" horiz-adv-x="1273" 
d="M654 1047q216 -6 364 -157q125 -129 154 -309q30 -190 -65 -340q-115 -182 -371 -227q-76 -14 -162 -14q-32 0 -99.5 15l-121.5 27t-107.5 4t-74.5 -46h-22v1271q0 60 -41.5 101.5t-101.5 41.5h-63v23h369v-499q32 -5 71.5 11t73.5 38.5t88 41.5t109 18zM562 44
q94 22 182 84.5t152 146t100.5 183t36.5 193t-51.5 179.5t-152.5 139q-60 32 -110.5 38.5t-87.5 -8.5t-68 -40.5t-59.5 -57.5t-56 -59.5t-62.5 -46.5t-73 -19v-705q32 -3 68.5 -11.5t57.5 -14t57 -8t67 6.5z" />
    <glyph glyph-name="c" unicode="c" horiz-adv-x="1198" 
d="M972 92q116 63 143 112v-41q-56 -53 -128 -88q-144 -73 -304.5 -75t-299 65.5t-218.5 189.5q-59 91 -71 196t19 201t106 181t182 139q99 50 181.5 66t143.5 5t112 -29t113 -33.5t121 -11.5l43 -162q-43 -4 -103 28t-120.5 72.5t-129.5 74t-154 32t-171 -53.5
q-76 -46 -122 -113t-57 -141t0 -155.5t48.5 -156t88 -142t119.5 -115t141.5 -74t155.5 -20t161 48.5z" />
    <glyph glyph-name="d" unicode="d" horiz-adv-x="1275" 
d="M757 1437h369v-1437h-22q-22 38 -75.5 46t-107 -4t-121 -27t-99.5 -15q-325 1 -488 180q-123 135 -119 329q4 180 114 326q119 159 309 200q49 11 101 12q56 1 110.5 -18t88.5 -41.5t73.5 -38.5t72.5 -11v333q0 60 -41 101.5t-102 41.5h-63v23zM963 71v705q-39 0 -74 19
t-62.5 46.5t-55.5 59.5t-59.5 57.5t-68 40.5t-87 8.5t-110.5 -38.5q-101 -53 -152.5 -139t-52 -179.5t35.5 -193t100.5 -183t152 -146t181.5 -84.5q62 -8 86 -5t76 15.5t90 16.5z" />
    <glyph glyph-name="e" unicode="e" horiz-adv-x="1202" 
d="M1073 969l44 -162l-774 -477q68 -113 168 -188.5t220.5 -95.5t242.5 46q106 57 143 112v-41q-62 -54 -131 -88q-142 -73 -302 -75t-298.5 65.5t-218.5 189.5q-60 91 -73 196t18 201t106 181t182 139q99 50 181.5 66t144 5t113 -29t113.5 -33.5t121 -11.5zM333 347
l745 463q-35 7 -83 34t-91 58t-99.5 59.5t-110.5 43.5t-121.5 5.5t-135.5 -50.5q-82 -50 -128 -123.5t-53.5 -156t12 -167.5t65.5 -166z" />
    <glyph glyph-name="f" unicode="f" horiz-adv-x="731" 
d="M273 1227q0 -84 39 -132t102 -48h285v-22h-285v-1025h-369v22h66q59 0 101 41.5t42 101.5v860h-209v22h209v139q0 119 57.5 184.5t166.5 65.5q76 0 135 -10t92 -10t91 20l56 -163q-38 0 -78.5 21.5t-73.5 47t-92 48t-130 24.5q-99 0 -152 -55.5t-53 -131.5z" />
    <glyph glyph-name="g" unicode="g" horiz-adv-x="1329" 
d="M267 18q-34 -54 65 -76q57 -13 271 -27q262 -16 368 -52q134 -45 134 -136q0 -59 -85 -95t-245 -41q-44 -2 -134 11t-166 26t-154 18t-100 -12q-1 4 -14.5 45.5t-25 79.5t-9.5 38q66 0 150.5 -30t153 -65.5t152 -64.5t147.5 -27q68 1 116.5 36.5t50.5 80.5q3 68 -103 104
q-74 25 -282 47q-195 21 -256 44q-92 36 -51 108q15 23 44 43q-84 58 -137 147q-54 90 -63 194.5t23.5 201.5t104.5 184t174 144q211 118 437 68q11 -2 53 -9t56.5 -9t49 -6t53.5 -2t46.5 5t50 12.5t43.5 23.5l37 -134q-80 0 -209 43q91 -60 146 -152q54 -89 62.5 -193
t-24 -201t-105 -184t-174.5 -144q-153 -84 -314 -83t-289 81q-37 -22 -48 -42zM408 924q-98 -55 -148 -158t-41 -227.5t77 -238.5q51 -86 126 -148.5t157 -92t169 -25.5t160 45q98 55 147.5 159t40 228.5t-77.5 239.5q-51 86 -126 148t-156.5 91t-168 24.5t-159.5 -45.5z
" />
    <glyph glyph-name="h" unicode="h" horiz-adv-x="1400" 
d="M801 1047q90 0 173 -26.5t149.5 -77t106.5 -132t40 -182.5v-629h-370v22h64q60 0 101.5 41.5t41.5 101.5v445q0 58 -9.5 115.5t-32.5 114t-56 98t-85 64t-116 16.5q-59 -5 -106 -32t-78 -62t-60.5 -69t-70 -57t-91.5 -23v-775h-369v22h63q60 0 101.5 41.5t41.5 101.5
v1106q0 60 -41.5 101.5t-101.5 41.5h-63v22h369v-498q48 0 90.5 17t72.5 37.5t91.5 37.5t144.5 17z" />
    <glyph glyph-name="i" unicode="i" horiz-adv-x="569" 
d="M270 1171q-62 0 -106.5 38t-44.5 93t44.5 94.5t106.5 39.5q63 0 107 -39.5t44 -94.5t-43.5 -93t-107.5 -38zM51 1047h370v-1047h-370v22h66q59 0 101 41.5t42 101.5v719q0 58 -42 99.5t-101 41.5h-66v22z" />
    <glyph glyph-name="j" unicode="j" horiz-adv-x="552" 
d="M33 1047h370v-304v-835q0 -60 -43.5 -98.5t-113 -58.5t-143 -35.5t-147.5 -41t-112 -63.5l-75 146q24 14 65 15t83.5 -6t90 -14t88.5 -4.5t74 17.5t52 56.5t18 108.5v954q0 59 -41.5 100t-101.5 41h-64v22zM252 1171q-64 0 -108.5 38t-44.5 93t45 94.5t108 39.5
q62 0 106.5 -39.5t44.5 -94.5t-44.5 -93t-106.5 -38z" />
    <glyph glyph-name="k" unicode="k" horiz-adv-x="1157" 
d="M402 1441v-1434h-369v20h65q59 0 101.5 42.5t42.5 100.5v1108q0 58 -42.5 99.5t-101.5 41.5h-65v22h369zM939 2q-18 50 -28.5 108t-15.5 102t-13.5 92.5t-28 88t-54 79t-96.5 75.5t-150 68q-52 18 -70 43.5t-5.5 50.5t37.5 47.5t60 40.5q27 14 74 28.5t89 24.5t83 27
t63.5 37.5t22.5 55.5t-31 80h160q28 -53 5 -93t-74.5 -63.5t-119 -44.5t-127.5 -36t-100.5 -38t-37.5 -51q3 -38 78 -87q52 -37 99 -81t80.5 -81.5t68 -91t53.5 -86t46 -92t36.5 -82t32.5 -81.5q11 -27 16 -40h-153z" />
    <glyph glyph-name="l" unicode="l" horiz-adv-x="559" 
d="M247 1436h163v-1436h-369v22h63q60 0 101.5 41.5t41.5 101.5v1106q0 60 -41.5 101.5t-101.5 41.5h-63v22h206z" />
    <glyph glyph-name="m" unicode="m" horiz-adv-x="2281" 
d="M1680 1047q90 0 173 -26.5t149.5 -77t106.5 -132t40 -182.5v-629h-369v22h63q60 0 102 41.5t42 101.5v445q0 58 -9.5 115.5t-32.5 114t-56 98t-85 64t-116 16.5q-56 -5 -104 -29t-82.5 -56t-66.5 -64t-71.5 -58t-81.5 -33v-778h-369v22h63q60 0 101.5 41.5t41.5 101.5
v445q0 58 -9.5 115.5t-32.5 114t-56 98t-85 64t-116 16.5q-59 -5 -106 -32t-78 -62t-60.5 -69t-70 -57t-91.5 -23v-775h-369v22h63q60 0 102 41.5t42 101.5v719q0 59 -42 100t-102 41h-63v22h369v-109q40 0 73.5 11t60.5 27t59 32.5t84.5 27.5t121.5 11q196 0 330 -109
q11 -9 22.5 -15.5t26 -8t24 -3.5t27.5 2t25 4.5t27.5 8t24 9t26 11t23.5 9.5q21 8 55 26t60.5 31t78.5 24t117 11z" />
    <glyph glyph-name="n" unicode="n" horiz-adv-x="1413" 
d="M813 1047q90 0 173 -26.5t150 -77t107 -132t39 -182.5v-629h-367v22h63q59 0 101.5 41.5t42.5 101.5v445q0 58 -9.5 115.5t-32.5 114t-56.5 98t-86.5 64t-117 16.5q-59 -5 -105.5 -32t-77.5 -62t-61 -69t-70.5 -57t-91.5 -23v-775h-369v22h66q59 0 101 41.5t42 101.5v719
q0 58 -42 99.5t-101 41.5h-66v22h369v-109q48 0 90.5 17t72.5 37.5t91.5 37.5t144.5 17z" />
    <glyph glyph-name="o" unicode="o" horiz-adv-x="1316" 
d="M1159 806q53 -90 61.5 -194.5t-23.5 -201.5t-104 -184t-174 -144q-137 -77 -287 -82t-277 59t-199 184q-53 90 -61.5 193.5t23.5 200t104 183.5t174 144q136 76 287 82t278.5 -57.5t197.5 -182.5zM909 101q98 55 147.5 158.5t40 227.5t-77.5 239q-51 86 -126 148t-157 92
t-169 26t-161 -45q-98 -55 -147.5 -158.5t-39.5 -228.5t78 -240q51 -86 126 -148t157 -91t169 -25t160 45z" />
    <glyph glyph-name="p" unicode="p" horiz-adv-x="1271" 
d="M570 1044q325 -1 488 -180q123 -135 119 -329q-4 -180 -114 -326q-119 -159 -309 -200q-49 -11 -101 -12q-56 -1 -110 18t-88.5 41.5t-74 38.5t-72.5 11v-495h-369v19h65q59 0 101.5 42t42.5 102v1270h19q22 -38 75.5 -45.5t107 4t121 26.5t99.5 15zM827 75
q87 46 137 116.5t60 149.5t-5.5 163.5t-60.5 164.5t-104 147.5t-136 116t-157 67.5q-31 9 -67 6.5t-57.5 -8t-58.5 -13.5t-70 -11v-705q39 0 74 -19t62 -46.5t55.5 -59.5t60 -57.5t68 -40.5t87.5 -9t112 38z" />
    <glyph glyph-name="q" unicode="q" horiz-adv-x="1275" 
d="M1104 1045h22v-1434h-369v20h63q60 0 101.5 41.5t41.5 101.5v333q-33 5 -73 -11t-74 -38.5t-88 -41.5t-110 -18q-215 6 -363 157q-126 129 -154 309q-30 190 65 340q116 182 373 228q76 13 162 13q32 0 99 -15t121 -26.5t107.5 -4t75.5 45.5zM963 270v704q-32 3 -69 11.5
t-58.5 14t-57 8t-65.5 -6.5q-94 -22 -182 -84.5t-152.5 -145.5t-100.5 -182.5t-35.5 -193.5t51.5 -180t152 -140q60 -32 110.5 -38.5t87 9t68 41t59.5 57.5t55.5 60t62.5 47t74 19z" />
    <glyph glyph-name="r" unicode="r" horiz-adv-x="1036" 
d="M937 1047l56 -160q-32 -1 -63 12.5t-60 33.5t-62 40.5t-82 35.5t-107 16q-98 0 -150.5 -52.5t-54.5 -126.5v-846h-369v22h63q60 0 102 41.5t42 101.5v719q0 59 -42 100t-102 41h-63v22h369v-128q49 128 204 128q76 0 135.5 -10t92.5 -10t91 20z" />
    <glyph glyph-name="s" unicode="s" horiz-adv-x="1282" 
d="M312 887q1 -51 43.5 -99.5t109.5 -86.5t150.5 -78.5t166.5 -76t158 -79t124.5 -87t65.5 -100.5t-18 -120q-33 -64 -148.5 -112t-235.5 -48h-76q-90 3 -212.5 19.5t-204.5 26t-112 0.5q-1 4 -14.5 45.5t-25 79.5t-9.5 38q54 0 120.5 -19.5t130.5 -47t128.5 -55t135.5 -47
t131 -18.5q118 1 183 39t65 99q-1 51 -43.5 99.5t-109.5 86t-150.5 77.5t-167 75t-158.5 78.5t-124 87t-65 101.5t19 122q33 64 148.5 112t235.5 48h75q90 -3 212.5 -19t204 -25.5t110.5 -1.5l54 -163q-58 0 -125.5 19.5t-130.5 47.5t-126.5 56t-134 46.5t-132.5 17.5
q-120 -1 -184 -38t-64 -100z" />
    <glyph glyph-name="t" unicode="t" horiz-adv-x="884" 
d="M463 22q71 2 130.5 24.5t92.5 48t73.5 47t79.5 21.5l-58 -163q-58 20 -91 20t-92 -9.5t-135 -8.5q-107 0 -165.5 66t-58.5 185v772h-206v22h206v226q0 59 -41.5 100t-101.5 41h-63v22h369v-389h284v-22h-284v-636q-64 0 -103.5 -48t-39.5 -132q0 -76 52.5 -131.5
t151.5 -55.5z" />
    <glyph glyph-name="u" unicode="u" horiz-adv-x="1415" 
d="M898 1047h369v-1047h-21q-21 64 -70 86.5t-115 10t-132.5 -34t-139.5 -42.5t-117 -18q-86 5 -163 33.5t-138.5 79t-97.5 129t-36 174.5v466q0 59 -41.5 100t-101.5 41h-63v22h369v-610q0 -54 8.5 -108t28 -108t48.5 -95t74.5 -68t100.5 -29q55 -3 116 10.5t106.5 32
t106.5 34t116 15.5v763q0 58 -41.5 99.5t-99.5 41.5h-66v22z" />
    <glyph glyph-name="v" unicode="v" horiz-adv-x="1177" 
d="M740 0h-109q-62 144 -184.5 432t-184.5 433q-23 56 -48.5 91t-52.5 48.5t-44 17t-43 3.5h-43v22h330l372 -875l2 -2q74 160 116.5 289.5t54 208.5t15.5 141.5t13.5 121.5t36.5 116h160l-386 -904l29 -68z" />
    <glyph glyph-name="w" unicode="w" 
d="M740 0h-109q-61 144 -183.5 432t-183.5 433q-24 56 -49.5 91t-52.5 48.5t-44 17t-44 3.5h-43v22h330l375 -875v-2q94 198 143 369l-139 326q-20 45 -41.5 77t-38.5 48t-39 24t-35 9.5t-33 1.5h-46v22h330l375 -875v-2q75 160 117.5 289.5t54 208.5t14.5 141.5t12.5 121.5
t36.5 116h163l-386 -904l29 -68l-37 -75h-109l-211 496l-148 -353l26 -68z" />
    <glyph glyph-name="x" unicode="x" horiz-adv-x="1005" 
d="M37 1047h330l136 -321q-8 21 -31 75q-49 116 0 -1q33 -76 107 -251q64 131 90.5 212.5t24.5 111.5t-8.5 78t-2.5 96h163l-258 -522l146 -340q24 -56 49.5 -91.5t51.5 -49.5t43.5 -18t42.5 -4h47v-22h-331q-256 599 -369 865q-23 56 -48.5 91t-52 48.5t-43.5 17t-43 3.5
h-44v22zM321 0h-163l255 525l13 -27q-65 -131 -92 -212.5t-25 -111.5t9 -78t3 -96z" />
    <glyph glyph-name="y" unicode="y" horiz-adv-x="1179" 
d="M971 1029h162l-386 -904l-70 -146l-192 -389h-22q-25 2 -72 11t-81.5 14t-86 0t-100.5 -25l-56 161q72 2 125 -9t83.5 -28t87 -47t112.5 -52l177 364h-19q-62 145 -184.5 432.5t-184.5 432.5q-19 45 -40.5 77t-39 48t-40 24.5t-35.5 10t-33 1.5h-43v21h330l372 -874
q75 160 118 289.5t54.5 208.5t15.5 141.5t13 121.5t35 116z" />
    <glyph glyph-name="z" unicode="z" horiz-adv-x="944" 
d="M873 1047q-141 -235 -306 -512t-306 -513q132 1 240.5 24.5t214.5 60.5t157 49v-117q-102 4 -313.5 -17.5t-310.5 -21.5h-177q119 200 288.5 484t323.5 541q-102 -1 -197.5 -17t-155 -35t-135 -44.5t-124.5 -36.5v116q102 -4 313.5 17.5t310.5 21.5h177z" />
    <glyph glyph-name="braceleft" unicode="{" horiz-adv-x="759" 
d="M437 636q0 -43 -24.5 -78.5t-63.5 -52.5q39 -17 63.5 -53t24.5 -81v-614q0 -60 42 -102t101 -42h66v-22h-226q-60 0 -102 42.5t-42 101.5v617q0 58 -42 100.5t-101 42.5v20q59 0 101 41.5t42 101.5v615q0 60 42 101.5t102 41.5h226v-19h-66q-58 0 -100.5 -42.5
t-42.5 -101.5v-617z" />
    <glyph glyph-name="verticalbar" unicode="|" horiz-adv-x="350" 
d="M186 -409h-22v1825h22v-1825z" />
    <glyph glyph-name="braceright" unicode="}" horiz-adv-x="761" 
d="M484 658q0 -60 41.5 -101.5t101.5 -41.5v-20q-60 0 -101.5 -42t-41.5 -101v-617q0 -59 -41.5 -101.5t-101.5 -42.5h-226v22h63q60 0 101.5 41.5t41.5 101.5v615q0 45 25.5 81t64.5 53q-39 17 -64.5 53t-25.5 78v617q0 59 -41.5 101.5t-101.5 42.5h-63v19h226
q60 0 101.5 -41.5t41.5 -101.5v-615z" />
    <glyph glyph-name="asciitilde" unicode="~" horiz-adv-x="1062" 
d="M905 826l56 -160q-51 -51 -109 -69t-113.5 -8.5t-114.5 29.5t-118.5 40t-116.5 28t-118 -12t-115 -74l-56 163q51 51 109 68t113.5 7.5t114.5 -30t118.5 -40.5t116.5 -28t118 12t115 74z" />
    <glyph glyph-name="nonbreakingspace" unicode="&#xa0;" horiz-adv-x="712" 
 />
    <glyph glyph-name="exclamdown" unicode="&#xa1;" horiz-adv-x="559" 
d="M503 -389h66v-20h-369v20l70 1059h22l70 -916q0 -60 41 -101.5t100 -41.5zM430 898q0 -55 -43 -93t-107 -38q-62 0 -106.5 38t-44.5 93t44.5 94.5t106.5 39.5q63 0 106.5 -39.5t43.5 -94.5z" />
    <glyph glyph-name="cent" unicode="&#xa2;" horiz-adv-x="1294" 
d="M1018 75q106 57 143 112v-42q-60 -52 -131 -87q-113 -59 -242 -72t-244 21l-7 -24l-90 -392h-22l92 392l7 29q-203 61 -313 226q-59 91 -71.5 195.5t18 200.5t105 181t181.5 139q171 85 316 73l90 389h22l-92 -391q34 -5 147.5 -42t189.5 -31l44 -163q-37 -3 -85.5 18.5
t-91 51.5t-103 65t-111.5 52l-202 -862q68 -48 139.5 -70.5t152.5 -16t158 47.5zM481 942q-89 -54 -136 -137t-47.5 -174t29 -184.5t88.5 -176.5t136 -142l199 856q-133 37 -269 -42z" />
    <glyph glyph-name="sterling" unicode="&#xa3;" horiz-adv-x="1525" 
d="M501 23q121 0 230 20t177 45.5t151 50t150.5 32.5t177.5 -7l-58 -163q-80 30 -188.5 36t-200.5 -3t-221 -21t-216 -12h-372v22h63q56 0 118 50t109.5 129t69.5 187.5t2 213.5h-362v20h360q-25 103 -85 187h-275v22h260q-51 66 -59.5 139.5t20 139t84.5 125.5t129.5 103.5
t160 69t170.5 25.5q56 0 117.5 -18t107.5 -38.5t107 -36t116 -11.5l53 -156q-65 0 -120.5 17t-98 42.5t-83 52.5t-92.5 51t-109 34q-66 13 -124 8t-110 -19.5t-91.5 -44.5t-68.5 -66.5t-40.5 -85t-8 -100t29 -111.5t70.5 -120h537v-22h-522q60 -84 83 -187h440v-19h-435
q32 -163 -14 -326.5t-139 -254.5z" />
    <glyph glyph-name="currency" unicode="&#xa4;" horiz-adv-x="1415" 
d="M1209 979q90 -154 54.5 -330.5t-176.5 -305.5l163 -161l-15 -14l-165 160q-37 -34 -102 -71q-169 -93 -349.5 -81t-309.5 120l-131 -128l-14 14l131 126q-57 54 -90 107q-89 156 -53.5 332t177.5 307l-165 161l14 14l166 -162q42 35 102 72q169 92 349 80.5t309 -118.5
l131 128l15 -14l-129 -129q51 -43 88 -107zM1056 357q86 103 90.5 251.5t-78.5 292.5q-31 52 -63 88l-8 7q-112 123 -262.5 158.5t-278.5 -34.5q-55 -31 -90 -73v-2l-8 -5q-86 -105 -90.5 -254.5t78.5 -290.5q21 -36 63 -87l8 -7q112 -124 262 -160.5t279 33.5q46 26 93 76
h-3z" />
    <glyph glyph-name="yen" unicode="&#xa5;" horiz-adv-x="1460" 
d="M1344 1403q-54 -89 -116 -163.5t-112.5 -121.5t-121.5 -123.5t-134 -162.5h309v-22h-321v-187h321v-19h-321v-603h-367v22h64q59 0 101 41.5t42 99.5v440h-321v19h321v114l-51 73h-270v22h253l-299 420q-3 5 -18.5 27.5t-21 29.5t-20 26t-23.5 26.5t-24.5 20.5
t-28.5 18.5t-30.5 10t-35.5 4.5h-29v19h328l416 -597h2q29 43 83.5 118t88 124t72.5 113t62.5 124t33.5 118z" />
    <glyph glyph-name="brokenbar" unicode="&#xa6;" horiz-adv-x="477" 
d="M318 -409h-160v822h160v-822zM318 595h-160v821h160v-821z" />
    <glyph glyph-name="section" unicode="&#xa7;" horiz-adv-x="1392" 
d="M1156 386q-27 -59 -115 -109t-194 -68q60 -32 104.5 -58.5t91 -60.5t74.5 -67.5t46.5 -72t16.5 -82t-24 -90.5q-34 -75 -154.5 -131t-246.5 -56h-80q-92 4 -220.5 23.5t-214.5 30t-117 0.5q-7 21 -30.5 105t-20.5 84q68 -1 160 -35.5t168.5 -75t173 -74.5t173.5 -33
q125 4 192.5 47t65.5 115q0 59 -44 115t-114 99.5t-157.5 90t-174.5 87.5t-165 91t-130 101t-68 118.5t20 141.5q27 59 112.5 109t188.5 68q-60 31 -104.5 57.5t-89.5 60t-72.5 67t-45 72.5t-14.5 83t25 92q35 73 155 129t243 56h80q95 -3 223 -21.5t213.5 -29.5t115.5 -2
l56 -187q-61 0 -131.5 22.5t-136 55t-132 64.5t-140 53.5t-138.5 20.5q-125 -1 -192.5 -44.5t-67.5 -116.5q1 -59 45.5 -115.5t114.5 -100.5t157.5 -91t174.5 -88t165 -91.5t130 -101.5t68.5 -117.5t-19.5 -139.5zM808 230q96 11 147.5 52t49.5 104q0 27 -9 53t-28 51
t-39 46t-54.5 44.5t-61 40.5t-71 41t-73.5 38.5t-79.5 39.5t-77.5 39q-94 -13 -143 -53.5t-49 -103.5q1 -44 28 -87t58.5 -73.5t101.5 -73t110 -63t130 -65.5z" />
    <glyph glyph-name="dieresis" unicode="&#xa8;" horiz-adv-x="872" 
d="M255 1309q62 0 106.5 -38t44.5 -93t-44.5 -93.5t-106.5 -38.5t-106.5 38.5t-44.5 93.5t44.5 93t106.5 38zM615 1309q64 0 108.5 -38t44.5 -93t-44.5 -93.5t-108.5 -38.5q-62 0 -106.5 38.5t-44.5 93.5t44.5 93t106.5 38z" />
    <glyph glyph-name="copyright" unicode="&#xa9;" horiz-adv-x="1300" 
d="M1099 1209q52 -89 62 -190.5t-18 -193t-91 -172t-152 -130.5q-120 -68 -255.5 -71.5t-255.5 60.5t-189 184q-68 126 -65 254.5t74 245t190 185.5q120 67 255 70.5t255 -60t190 -182.5zM878 557q98 57 141 161.5t30 215t-69 206.5t-148 162.5t-200 83.5t-213 -41
q-97 -56 -139.5 -160t-29.5 -214.5t69 -206.5t147.5 -163t199 -84t212.5 40zM579 1140q-42 -25 -61.5 -64.5t-16 -82t20.5 -87t49 -78.5t70 -58t83 -25t88 21q48 25 61 46l24 44v-75l-5 -5q-25 -25 -60 -41q-97 -53 -215 -30t-179 115q-60 100 -25 199.5t137 150.5
q67 33 116.5 35t116.5 -23q53 -14 80 -12h12l27 -100l-17 -2q-24 -2 -52.5 12.5t-55.5 33t-57 34t-66.5 15t-74.5 -22.5z" />
    <glyph glyph-name="ordfeminine" unicode="&#xaa;" horiz-adv-x="614" 
d="M338 1275q67 0 111.5 -40.5t44.5 -107.5v-270h-20l-2 3q-10 13 -40.5 15.5t-62.5 -2t-69 -10.5t-52 -6q-56 0 -90.5 26.5t-40 63t16 76t68.5 63.5q12 6 55.5 22t71 29t50 38.5t15.5 56.5q-14 20 -39.5 23t-56 -8t-60.5 -24.5t-62 -25.5t-52 -12h-9l19 80l7 -2
q15 -4 98.5 4t98.5 8zM416 901v229q0 6 -1 19.5t-1 21.5q-10 -31 -36.5 -53t-77.5 -47.5t-59 -30.5q-38 -21 -45.5 -57t16.5 -64.5t68 -29.5q22 -1 67.5 6t68.5 6z" />
    <glyph glyph-name="guillemotleft" unicode="&#xab;" horiz-adv-x="935" 
d="M534 1082l-236 -539l236 -542h-90l-321 542l321 539h90zM806 1082l-236 -539l236 -542h-90l-321 542l321 539h90z" />
    <glyph glyph-name="softhyphen" unicode="&#xad;" horiz-adv-x="0" 
 />
    <glyph glyph-name="registered" unicode="&#xae;" horiz-adv-x="1296" 
d="M749 917q-87 0 -95 -29q-1 -15 20 -32t39 -24q71 -34 187 -34h12v-99h-12q-140 0 -231 61q-32 22 -53 54t-13 67q2 18 24 36h-72v-218h-192v34h41q22 0 37.5 15.5t15.5 37.5v328q0 22 -15.5 38t-37.5 16h-41v34h430q59 0 100 -41t41 -100t-41.5 -101.5t-99.5 -42.5h-44z
M555 951h172q46 0 78 32t32 78q0 44 -32 75.5t-78 31.5h-172v-217zM1096 1207q68 -126 65 -254.5t-74 -245t-190 -183.5q-119 -69 -254 -72.5t-254 60t-189 182.5q-68 126 -65 254.5t74 245t190 183.5q118 69 253 72.5t254.5 -60t189.5 -182.5zM878 555q99 57 141.5 161.5
t29.5 216t-69 208.5q-56 96 -148 162.5t-200.5 83t-213.5 -41.5q-98 -57 -141 -161.5t-30 -215t69 -206.5q56 -97 148.5 -164.5t200.5 -84t213 41.5z" />
    <glyph glyph-name="overscore" unicode="&#xaf;" horiz-adv-x="731" 
d="M669 1382h-608v32h608v-32z" />
    <glyph glyph-name="degree" unicode="&#xb0;" horiz-adv-x="585" 
d="M450 1313q37 -64 15.5 -134t-86.5 -107q-63 -38 -135 -21t-110 82q-37 64 -16 133.5t86 106.5q63 37 136.5 20t109.5 -80zM372 1084q52 29 60.5 92.5t-23.5 111.5q-32 53 -86 76.5t-111 -3.5q-52 -29 -60.5 -92.5t23.5 -111.5q31 -54 85.5 -77t111.5 4z" />
    <glyph glyph-name="plusminus" unicode="&#xb1;" horiz-adv-x="925" 
d="M131 145v163h663v-163h-663zM544 792h250v-163h-250v-250h-163v250h-250v163h250v250h163v-250z" />
    <glyph glyph-name="twosuperior" unicode="&#xb2;" horiz-adv-x="632" 
d="M505 913l7 -2l-27 -78l-7 3q-39 14 -94 14t-123 -7t-99 -7h-17v92q0 46 21.5 87.5t54 70.5t70.5 58.5t71 53.5t55 54t22 60q0 35 -29.5 51.5t-69.5 18.5q-31 0 -73.5 -23t-80 -44.5t-58.5 -19.5l-7 2l19 76h8q28 -1 94.5 15t99.5 16q46 -2 87.5 -26t58.5 -64
q20 -47 -5 -94t-75.5 -86t-104 -75.5t-93.5 -76t-40 -74.5v-51q41 1 73 7.5t76 20.5t69 21q56 17 117 7z" />
    <glyph glyph-name="threesuperior" unicode="&#xb3;" horiz-adv-x="657" 
d="M505 1149q48 -82 19.5 -163.5t-111.5 -122.5q-57 -28 -97 -29.5t-97 19.5q-42 12 -68 10h-7l-20 77h7q23 2 55 -16t58.5 -37t67 -25.5t79.5 18.5q46 28 54.5 87t-14 116t-70 100.5t-101.5 43.5h-7v20l175 131q-32 -3 -61 -10.5t-64.5 -19.5t-61.5 -19q-58 -15 -117 -5h-7
l26 81l8 -5q30 -11 73.5 -13t80.5 2t85.5 8.5t76.5 4.5h9v-19l-177 -132h10q59 0 111 -26.5t85 -75.5z" />
    <glyph glyph-name="acute" unicode="&#xb4;" horiz-adv-x="534" 
d="M270 1400h168l-209 -353h-127z" />
    <glyph glyph-name="periodcentered" unicode="&#xb7;" horiz-adv-x="413" 
d="M206 192q46 0 78.5 -28.5t32.5 -68.5q0 -38 -32.5 -66.5t-78.5 -28.5q-45 0 -77.5 28t-32.5 67q0 40 32 68.5t78 28.5z" />
    <glyph glyph-name="cedilla" unicode="&#xb8;" horiz-adv-x="675" 
d="M407 -81q70 -36 94.5 -105t-16.5 -138q-42 -64 -125.5 -80t-149.5 20q-7 5 -22 14.5t-22 14.5l-2 2v41l12 -21q13 -20 44 -34q31 -16 63.5 -15t60 18t51 42t35.5 57t14.5 62.5t-12.5 59.5t-45 48q-33 21 -66.5 15.5t-55 -21t-48.5 -31.5t-46 -14h-7l5 24l14 53l17 66
l20 -5l-17 -65l-3 -8q22 1 47 9t41.5 14t47.5 1.5t71 -24.5z" />
    <glyph glyph-name="onesuperior" unicode="&#xb9;" horiz-adv-x="407" 
d="M262 1402h15v-569h-158v22h34q18 0 32 14.5t14 34.5v391q0 20 -13.5 33t-32.5 13h-34v22z" />
    <glyph glyph-name="ordmasculine" unicode="&#xba;" horiz-adv-x="722" 
d="M568 1263q49 -96 23.5 -212t-113.5 -177q-92 -62 -185.5 -31.5t-140.5 129.5q-47 96 -21 210.5t114 177.5q90 61 184 30.5t139 -127.5zM466 894q47 32 66 93.5t11.5 123.5t-31.5 113q-24 49 -63.5 86.5t-90.5 51.5t-101 -21q-47 -33 -66.5 -94.5t-12.5 -124t33 -114.5
q24 -49 63 -86.5t90 -51t102 23.5z" />
    <glyph glyph-name="guillemotright" unicode="&#xbb;" horiz-adv-x="935" 
d="M216 1082l324 -539l-324 -542h-87l233 542l-233 539h87zM489 1082l323 -539l-323 -542h-88l233 542l-233 539h88z" />
    <glyph glyph-name="questiondown" unicode="&#xbf;" horiz-adv-x="774" 
d="M505 766q-63 0 -108 39.5t-45 94.5q0 53 45 92t108 39q62 0 106.5 -39t44.5 -92q0 -55 -44.5 -94.5t-106.5 -39.5zM449 -395q54 -1 107.5 24t95.5 60t81 70t77 57.5t70 19.5l-44 -163q-45 3 -92 -9t-83.5 -28.5t-95 -31t-120.5 -14.5q-130 5 -226 66t-136 153
q-15 46 -13 89t17 76.5t40 68t56.5 62.5t66.5 60t69 61.5t65.5 66.5t55.5 75t38.5 87t14.5 102v112h22v-112q0 -78 -21 -151.5t-53 -127t-69.5 -112.5t-70 -109t-54.5 -115.5t-23 -132.5q0 -94 49 -147.5t176 -56.5z" />
    <glyph glyph-name="Agrave" unicode="&#xc0;" horiz-adv-x="1267" 
d="M942 20q32 0 50.5 8t23 23.5t2 32t-10.5 38.5l-128 303h-564q-20 -96 -30.5 -145t-35 -129t-55.5 -151h-163q66 153 515 1205l-20 46q-20 45 -41.5 77t-38.5 48t-39 24.5t-35 10t-33 1.5h-46v22h331l165 -389l447 -1045h-343v20h49zM320 445h549l-44 99l-7 22l-58 136
l-146 343l-58 134q-69 -150 -118.5 -294.5t-70 -228t-47.5 -211.5zM592 1514h-88l-218 308h175z" />
    <glyph glyph-name="Aacute" unicode="&#xc1;" horiz-adv-x="1267" 
d="M942 20q32 0 50.5 8t23 23.5t2 31.5t-10.5 39l-128 303h-564q-20 -96 -30.5 -145t-35 -129t-55.5 -151h-163q83 193 254.5 595t260.5 610l-20 46q-20 45 -41.5 77t-38.5 48t-39 24.5t-35 10t-33 1.5h-46v22h331l165 -389l447 -1045h-343v20h49zM320 445h549l-44 99l-7 22
l-58 136l-146 343l-58 134q-69 -150 -118.5 -294.5t-70 -228t-47.5 -211.5zM786 1822l-218 -308h-88l131 308h175z" />
    <glyph glyph-name="Acircumflex" unicode="&#xc2;" horiz-adv-x="1267" 
d="M942 20q32 0 50.5 8t23 23.5t2 32t-10.5 38.5l-128 303h-564q-20 -96 -30.5 -145t-35 -129t-55.5 -151h-163q83 193 254.5 595t260.5 610l-19 46q-20 45 -41.5 77t-39 48t-39.5 24.5t-35 10t-33 1.5h-46v22h331l165 -389l447 -1045h-343v20h49zM320 445h549l-44 99l-7 22
l-58 136l-146 343l-58 134q-69 -150 -118.5 -294.5t-70 -228t-47.5 -211.5zM556 1786l-117 -272h-177l221 308h145l219 -308h-175z" />
    <glyph glyph-name="Atilde" unicode="&#xc3;" horiz-adv-x="1269" 
d="M942 20q32 0 50.5 8t23 23.5t2.5 31.5t-10 39l-129 303h-562q-2 -10 -13 -59t-14.5 -63t-13.5 -55.5t-16.5 -63.5t-17.5 -57t-22.5 -65.5t-25.5 -61.5h-163q200 459 515 1205l-20 46q-19 45 -40.5 77t-38.5 48t-39.5 24.5t-35.5 10t-33 1.5h-43v22h330l165 -389
l447 -1045h-342v20h46zM320 445h551l-43 99l-10 22l-56 136l-148 343l-56 134q-70 -149 -120.5 -294.5t-70.5 -227t-47 -212.5zM470 1645q-20 11 -50.5 12.5t-65.5 -13.5t-54 -50l-17 10q22 67 53 108.5t59.5 53t53.5 13.5t41 -4l15 -6l140 -80q21 -8 50.5 -10.5t65.5 14.5
t55 49l14 -9q-22 -67 -52 -109t-58 -54t-52.5 -14t-39.5 4l-14 7z" />
    <glyph glyph-name="Adieresis" unicode="&#xc4;" horiz-adv-x="1267" 
d="M942 20q32 0 50.5 8t23 23.5t2 31.5t-10.5 39l-128 303h-564q-20 -96 -30.5 -145t-35 -129t-55.5 -151h-163q83 193 254.5 595t260.5 610l-20 46q-20 45 -41.5 77t-38.5 48t-39 24.5t-35 10t-33 1.5h-46v22h331l165 -389l447 -1045h-343v20h49zM320 445h549l-44 99l-7 22
l-58 136l-146 343l-58 134q-69 -150 -118.5 -294.5t-70 -228t-47.5 -211.5zM390 1536q-64 0 -108.5 38t-44.5 93t44.5 93t108.5 38q62 0 106.5 -38t44.5 -93t-44.5 -93t-106.5 -38zM723 1536q-62 0 -106 38.5t-44 92.5t44 92.5t106 38.5t106.5 -38.5t44.5 -92.5t-44.5 -92.5
t-106.5 -38.5z" />
    <glyph glyph-name="Aring" unicode="&#xc5;" horiz-adv-x="1267" 
d="M942 20q32 0 50.5 8t23 23.5t2 32t-10.5 38.5l-128 303h-564q-20 -96 -30.5 -145t-35 -129t-55.5 -151h-163q83 193 254.5 595t260.5 610l-20 46q-20 45 -41.5 77t-38.5 48t-39 24.5t-35 10t-33 1.5h-46v22h331l165 -389l447 -1045h-343v20h49zM320 445h549l-44 99l-7 22
l-58 136l-146 343l-58 134q-69 -150 -118.5 -294.5t-70 -228t-47.5 -211.5zM658 1536q-72 -33 -157 -18t-128 71q-42 57 -18 117.5t98 94.5q74 32 159 16.5t128 -70.5q43 -57 18.5 -118.5t-100.5 -92.5zM485 1762q-47 -21 -54 -64t22 -75q27 -37 75.5 -52t99.5 4
q47 19 53.5 62t-21.5 76q-27 35 -76.5 51t-98.5 -2z" />
    <glyph glyph-name="AE" unicode="&#xc6;" horiz-adv-x="1982" 
d="M1039 20q103 0 197 14.5t157 35t132.5 43t123 38.5t128.5 21t149 -9l-56 -163q-81 30 -189.5 36.5t-201.5 -3t-222.5 -21.5t-217.5 -12h-367v20h63q59 0 101.5 42.5t42.5 100.5v262h-564q-20 -96 -30.5 -145t-35 -129t-55.5 -151h-163q83 194 303 710.5t309 723.5h396
q88 0 217.5 -12t222.5 -21.5t201.5 -3t189.5 36.5l56 -163q-74 -14 -149 -9t-128.5 21t-123 38.5t-132.5 43t-157 35t-197 14.5v-525h263q59 0 101 42t42 102v182h19v-668h-19v180q0 59 -42.5 101t-100.5 42h-263v-850zM879 889v382q0 58 -42.5 100.5t-101.5 42.5h-80
q-105 -227 -203.5 -517.5t-131.5 -451.5h559v444z" />
    <glyph glyph-name="Ccedilla" unicode="&#xc7;" horiz-adv-x="1415" 
d="M1175 112q106 62 170 160v-58q-71 -68 -158 -119q-136 -78 -290.5 -96.5t-292.5 21.5l-19 -78l-3 -5q22 1 46.5 8.5t41 13.5t47 1.5t69.5 -23.5q71 -36 96.5 -105t-15.5 -138q-42 -65 -125.5 -81.5t-149.5 20.5q-26 11 -44 29l-2 3v39l12 -20q8 -17 44 -34
q31 -16 63.5 -15t60 18t51 42t35.5 57t14.5 62.5t-12.5 59.5t-45 48q-33 21 -66.5 15.5t-56 -21t-49.5 -31.5t-46 -14h-8l8 25l12 53l22 76q-126 38 -230 118.5t-171 196.5q-73 125 -88.5 268t23 275t129.5 249t223 192q179 102 376 102q56 0 117.5 -18.5t106.5 -40
t105.5 -37t115.5 -11.5l53 -153q-65 0 -120.5 16.5t-98 41.5t-83 51.5t-92.5 51.5t-109 36q-194 39 -362 -56q-137 -79 -207 -225.5t-56.5 -323t108.5 -338.5q71 -121 175 -208.5t218 -128.5t234.5 -35t222.5 64z" />
    <glyph glyph-name="Egrave" unicode="&#xc8;" horiz-adv-x="1361" 
d="M418 20q102 0 196 14.5t156.5 35t132 43t123 38.5t129 21t150.5 -9l-56 -163q-81 30 -189.5 36.5t-201.5 -3t-222.5 -21.5t-217.5 -12h-369v20h66q58 0 99.5 42t41.5 101v1108q0 59 -41.5 101t-99.5 42h-66v20h369q88 0 217.5 -12t222.5 -21.5t201.5 -3t189.5 36.5
l56 -163q-75 -14 -150.5 -9t-129 21t-123 38.5t-132 43t-156.5 35t-196 14.5v-525h263q59 0 100 42t41 102v182h22v-668h-22v180q0 59 -41 100t-100 41h-263v-848zM831 1514h-87l-221 308h175z" />
    <glyph glyph-name="Eacute" unicode="&#xc9;" horiz-adv-x="1359" 
d="M419 20q102 0 196 14.5t156.5 35t131.5 43t122.5 38.5t128.5 21t149 -9l-56 -163q-80 30 -188.5 36.5t-201 -3t-222 -21.5t-216.5 -12h-370v20h63q60 0 102 42t42 101v1108q0 59 -42 101t-102 42h-63v20h370q87 0 216.5 -12t222 -21.5t201 -3t188.5 36.5l56 -163
q-74 -14 -149 -9t-128.5 21t-122.5 38.5t-131.5 43t-156.5 35t-196 14.5v-525h260q60 0 101.5 42t41.5 102v182h19v-668h-19v180q0 59 -41.5 100t-101.5 41h-260v-848zM829 1822l-218 -308h-88l131 308h175z" />
    <glyph glyph-name="Ecircumflex" unicode="&#xca;" horiz-adv-x="1361" 
d="M418 20q102 0 196 14.5t156.5 35t132 43t123 38.5t129 21t150.5 -9l-58 -163q-80 30 -188.5 36.5t-201 -3t-222 -21.5t-217.5 -12h-369v20h63q60 0 102 42t42 101v1108q0 59 -42 101t-102 42h-63v20h369q88 0 217.5 -12t222 -21.5t201 -3t188.5 36.5l58 -163
q-75 -14 -150.5 -9t-129 21t-123 38.5t-132 43t-156.5 35t-196 14.5v-525h260q60 0 102 42t42 102v182h22v-668h-22v180q0 59 -42 100t-102 41h-260v-848zM676 1786l-117 -272h-175l219 308h146l221 -308h-175z" />
    <glyph glyph-name="Edieresis" unicode="&#xcb;" horiz-adv-x="1359" 
d="M416 20q103 0 197 14.5t157 35t132 43t122.5 38.5t128.5 21t150 -9l-56 -163q-81 30 -189.5 36.5t-201.5 -3t-222.5 -21.5t-217.5 -12h-367v20h63q59 0 101.5 42.5t42.5 100.5v1108q0 58 -42.5 100.5t-101.5 42.5h-63v20h367q88 0 217.5 -12t222.5 -21.5t201.5 -3
t189.5 36.5l56 -163q-75 -14 -150 -9t-128.5 21t-122.5 38.5t-132 43t-157 35t-197 14.5v-525h263q59 0 101 42t42 102v182h19v-668h-19v180q0 58 -42 99.5t-101 41.5h-263v-848zM841 1536q-62 0 -106 38t-44 93t44 93t106 38q64 0 108.5 -38t44.5 -93t-44.5 -93t-108.5 -38
zM508 1536q-62 0 -106 38t-44 93t44 93t106 38t106.5 -38t44.5 -93t-44.5 -93t-106.5 -38z" />
    <glyph glyph-name="Igrave" unicode="&#xcc;" horiz-adv-x="589" 
d="M55 1434h370v-1434h-370v20h63q60 0 102 42t42 101v1108q0 59 -42 101t-102 42h-63v20zM434 1514h-87l-221 308h175z" />
    <glyph glyph-name="Iacute" unicode="&#xcd;" horiz-adv-x="591" 
d="M57 1434h370v-1434h-370v20h64q60 0 101.5 42t41.5 101v1108q0 59 -41.5 101t-101.5 42h-64v20zM427 1822l-221 -308h-88l134 308h175z" />
    <glyph glyph-name="Icircumflex" unicode="&#xce;" horiz-adv-x="579" 
d="M48 1434h369v-1434h-369v20h66q58 0 100.5 42t42.5 101v1108q0 59 -42.5 101t-100.5 42h-66v20zM410 1822l219 -308h-175l-117 272l-117 -272h-177l221 308h146z" />
    <glyph glyph-name="Idieresis" unicode="&#xcf;" horiz-adv-x="579" 
d="M50 1434h367v-1434h-367v20h63q59 0 101.5 42.5t42.5 100.5v1108q0 58 -42.5 100.5t-101.5 42.5h-63v20zM169 1536q-62 0 -106.5 38t-44.5 93t44.5 93t106.5 38q64 0 108.5 -38t44.5 -93t-44.5 -93t-108.5 -38zM504 1536q-62 0 -106 38.5t-44 92.5t44 92.5t106 38.5
t106.5 -38.5t44.5 -92.5t-44.5 -92.5t-106.5 -38.5z" />
    <glyph glyph-name="Eth" unicode="&#xd0;" horiz-adv-x="1445" 
d="M719 1434q134 0 246.5 -49t185.5 -132t124 -190.5t62 -226t0 -237.5t-62 -226.5t-124 -190.5t-186 -132.5t-248 -49.5h-627v20h63q60 0 101.5 42t41.5 101v532h-230v44h230v532q0 59 -41.5 101t-101.5 42h-63v20h629zM717 20q113 0 205 60t148 158t86.5 223t30.5 256
t-31 256t-87 223t-147.5 158t-204.5 60h-258v-675h231v-44h-231v-675h258z" />
    <glyph glyph-name="Ntilde" unicode="&#xd1;" horiz-adv-x="1468" 
d="M1284 1434h19v-1434h-182q-19 112 -72 218.5t-122.5 194t-150.5 175t-161.5 178t-149.5 185.5t-119.5 214.5t-67.5 248.5v-1414h-22h-207v20h63q60 0 102 42t42 101v1108q0 59 -42 101t-102 42h-63v20h391q10 -90 54 -177t108.5 -163.5t142 -157t159 -174.5t154.5 -197.5
t134 -245t92 -299.5v143v377v731q0 59 -42 101t-102 42h-63v20h207zM591 1645q-20 11 -50.5 12.5t-66 -13.5t-55.5 -50l-15 10q22 67 52.5 108.5t58.5 53t53 13.5t40 -4l15 -6l141 -80q21 -8 50.5 -10.5t65 14.5t54.5 49l14 -9q-22 -67 -52 -109t-58 -54t-52.5 -14t-39.5 4
l-14 7z" />
    <glyph glyph-name="Ograve" unicode="&#xd2;" 
d="M1473 1086q73 -125 88 -268t-23.5 -275t-129.5 -249t-222 -192q-175 -100 -371.5 -102.5t-365 90t-266.5 258.5q-73 125 -88 268t23 275t129.5 249t222.5 192q174 100 370.5 102.5t365.5 -90t267 -258.5zM1177 119q136 79 205.5 225.5t56.5 322.5t-107 339
q-71 121 -175.5 208.5t-218.5 129t-235 35.5t-224 -64q-137 -79 -206.5 -225.5t-56.5 -323t108 -338.5q71 -121 175.5 -208.5t218.5 -129t235 -35.5t224 64zM982 1514h-90l-218 308h175z" />
    <glyph glyph-name="Oacute" unicode="&#xd3;" 
d="M1472 1086q73 -125 88.5 -268t-22.5 -275t-129 -249t-222 -192q-175 -100 -372 -102.5t-365.5 90t-265.5 258.5q-73 125 -88.5 268t22.5 275t128.5 249t221.5 192q175 100 372 102.5t366 -90t266 -258.5zM1175 119q137 79 207 225t57 322.5t-108 339.5
q-71 121 -175.5 208.5t-218.5 129t-234.5 35.5t-222.5 -64q-137 -79 -207 -225.5t-56.5 -323t108.5 -338.5q71 -121 175 -208.5t218 -129t234.5 -35.5t222.5 64zM981 1822l-219 -308h-87l131 308h175z" />
    <glyph glyph-name="Ocircumflex" unicode="&#xd4;" 
d="M1473 1086q73 -125 88 -268t-23 -275t-129.5 -249t-222.5 -192q-174 -100 -371 -102.5t-366 90t-267 258.5q-73 125 -88 268t23.5 275t129.5 249t222 192q175 100 372 102.5t365.5 -90t266.5 -258.5zM1176 119q137 79 206.5 225.5t56.5 322.5t-107 339
q-71 121 -175.5 208.5t-218.5 129t-235 35.5t-224 -64q-136 -79 -205.5 -225.5t-57 -323t106.5 -338.5q71 -121 175.5 -208.5t218.5 -129t235 -35.5t224 64zM829 1786l-119 -272h-175l221 308h146l218 -308h-175z" />
    <glyph glyph-name="Otilde" unicode="&#xd5;" 
d="M1473 1086q73 -125 88 -268t-23.5 -275t-129.5 -249t-222 -192q-175 -100 -371.5 -102.5t-365 90t-266.5 258.5q-73 125 -88 268t23 275t129.5 249t222.5 192q174 100 370.5 102.5t365.5 -90t267 -258.5zM1177 119q136 79 205.5 225.5t56.5 322.5t-107 339
q-71 121 -175.5 208.5t-218.5 129t-235 35.5t-224 -64q-136 -79 -205.5 -225.5t-56.5 -323t107 -338.5q71 -121 175.5 -208.5t218.5 -129t235 -35.5t224 64zM742 1645q-20 11 -50.5 12.5t-66.5 -13.5t-56 -50l-15 10q22 67 52.5 108.5t58.5 53t53 13.5t40 -4l15 -6l144 -80
q21 -8 49.5 -10.5t63.5 14.5t54 49l17 -9q-22 -67 -52 -109t-58 -54t-52.5 -14t-38.5 4l-15 7z" />
    <glyph glyph-name="Odieresis" unicode="&#xd6;" 
d="M1472 1086q73 -125 88.5 -268t-22.5 -275t-129 -249t-222 -192q-175 -100 -372 -102.5t-365.5 90t-265.5 258.5q-73 125 -88.5 268t23 275t129.5 249t223 192q174 100 370.5 102.5t365 -90t265.5 -258.5zM1175 119q137 79 207 225t57 322.5t-108 339.5
q-71 121 -175.5 208.5t-218.5 129t-234.5 35.5t-222.5 -64q-137 -79 -207 -225.5t-56.5 -323t108.5 -338.5q71 -121 175 -208.5t218 -129t234.5 -35.5t222.5 64zM996 1536q-62 0 -106.5 38.5t-44.5 92.5t44.5 92.5t106.5 38.5t106 -38.5t44 -92.5t-44 -92.5t-106 -38.5z
M660 1536q-62 0 -106 38t-44 93t44 93t106 38q64 0 108.5 -38t44.5 -93t-44.5 -93t-108.5 -38z" />
    <glyph glyph-name="multiply" unicode="&#xd7;" horiz-adv-x="819" 
d="M700 833l-175 -177l175 -175l-115 -117l-177 178l-27 -27l-99 -102l-49 -49l-114 117l175 175l-27 29l-102 100l-46 48l114 114l175 -177l177 177z" />
    <glyph glyph-name="Oslash" unicode="&#xd8;" horiz-adv-x="1677" 
d="M1482 1086q73 -125 88.5 -268t-23 -275t-129.5 -249t-223 -192q-221 -124 -460.5 -98t-412.5 185l-171 -172l-15 15l172 171q-67 65 -114 145q-73 125 -88.5 268t22.5 275t128.5 249t221.5 192q222 123 462.5 97.5t412.5 -183.5l170 171l15 -13l-172 -171
q71 -69 116 -147zM333 428q39 -66 83 -117l828 827q-102 114 -234 178t-264.5 64.5t-254.5 -65.5q-137 -79 -207 -225.5t-57.5 -323t106.5 -338.5zM1186 119q137 79 207 225.5t56.5 323t-108.5 338.5q-37 63 -84 118l-827 -828q157 -174 367 -225t389 48z" />
    <glyph glyph-name="Ugrave" unicode="&#xd9;" horiz-adv-x="1431" 
d="M1061 1434h226v-909q0 -69 -20 -146q-48 -166 -188 -272.5t-317 -106.5q-102 0 -195.5 38.5t-166.5 107.5q-76 72 -118.5 170.5t-42.5 208.5v746q0 59 -42.5 101t-100.5 42h-63v20h367v-899q0 -32 0.5 -56t7.5 -82t19.5 -101.5t39.5 -98.5t64 -91t96.5 -61t134.5 -25
q136 0 252.5 68t184.5 184.5t68 252.5v746q0 59 -42.5 101t-100.5 42h-63v20zM813 1514h-88l-218 308h175z" />
    <glyph glyph-name="Uacute" unicode="&#xda;" horiz-adv-x="1431" 
d="M1061 1434h226v-909q0 -69 -20 -146q-48 -166 -187 -272.5t-316 -106.5q-104 0 -198 38.5t-164 107.5q-76 73 -119.5 171.5t-43.5 207.5v746q0 59 -41.5 101t-101.5 42h-63v20h369v-899v-41t3.5 -57.5t9 -73.5t18 -77.5t29.5 -79.5t45 -70.5t63 -61t85 -39t109 -15.5
q136 0 252 68t183.5 184.5t67.5 252.5v746q0 59 -42.5 101t-100.5 42h-63v20zM968 1822l-221 -308h-87l133 308h175z" />
    <glyph glyph-name="Ucircumflex" unicode="&#xdb;" horiz-adv-x="1431" 
d="M1061 1434h226v-909q0 -85 -20 -146q-48 -166 -187 -272.5t-316 -106.5q-208 0 -362 146q-76 73 -119.5 171.5t-43.5 207.5v746q0 59 -41.5 101t-101.5 42h-63v20h369v-899v-41t3.5 -57.5t9 -73.5t18 -77.5t29.5 -79.5t45 -70.5t63 -61t85 -39t109 -15.5q136 0 252 68
t183.5 184.5t67.5 252.5v746q0 59 -41.5 101t-101.5 42h-63v20zM730 1786l-116 -272h-175l218 308h146l221 -308h-177z" />
    <glyph glyph-name="Udieresis" unicode="&#xdc;" horiz-adv-x="1431" 
d="M1061 1434h228v-909q0 -79 -22 -146q-48 -166 -187 -272.5t-316 -106.5q-208 0 -362 146q-76 73 -119.5 171.5t-43.5 207.5v746q0 59 -41.5 101t-101.5 42h-63v20h369v-899q0 -32 0.5 -56t7.5 -82t19.5 -101.5t39.5 -98.5t64 -91t96.5 -61t134.5 -25q136 0 252 68
t183.5 184.5t67.5 252.5v746q0 59 -41.5 101t-101.5 42h-63v20zM932 1536q-62 0 -106.5 38.5t-44.5 92.5t44.5 92.5t106.5 38.5t106.5 -38.5t44.5 -92.5t-44.5 -92.5t-106.5 -38.5zM599 1536q-64 0 -108.5 38t-44.5 93t44.5 93t108.5 38q62 0 106.5 -38t44.5 -93t-44.5 -93
t-106.5 -38z" />
    <glyph glyph-name="Yacute" unicode="&#xdd;" horiz-adv-x="1296" 
d="M1100 1434l171 -32q-54 -90 -118 -166t-116 -124t-124.5 -127.5t-137.5 -170.5v-814h-369v20h63q60 0 101.5 42t41.5 101v573l-367 515q-3 5 -18 26.5t-20.5 29t-20 26t-23.5 26.5t-24.5 21t-29 19t-31 10.5t-35.5 4.5h-29v20h331l415 -598h3q29 42 83 118t87 124.5
t71.5 113t62 124.5t33.5 118zM797 1822l-221 -308h-88l134 308h175z" />
    <glyph glyph-name="Thorn" unicode="&#xde;" horiz-adv-x="1220" 
d="M875 999q116 0 199 -83t83 -199t-83 -199t-199 -83h-456v-435h-370v20h63q60 0 102 42t42 101v1108q0 59 -42 101t-102 42h-63v20h370v-435h456zM732 454q109 0 185.5 77.5t76.5 185.5t-76.5 185t-185.5 77h-314v-525h314z" />
    <glyph glyph-name="germandbls" unicode="&#xdf;" horiz-adv-x="1054" 
d="M760 880q91 -26 150 -101.5t59 -170.5q0 -116 -84 -198.5t-201 -82.5h-141v19q107 0 185 77.5t78 184.5t-76.5 184t-183.5 79h-3v19q107 0 185 78t78 185q0 130 -100 207q-79 61 -171 54q-89 -6 -121 -74q-14 -30 -14 -68v-1271h-369v22h65q59 0 101.5 41.5t42.5 99.5
v1127q0 60 41 101.5t100 41.5h303q117 0 201 -82.5t84 -198.5q0 -95 -59 -171t-150 -102z" />
    <glyph glyph-name="agrave" unicode="&#xe0;" horiz-adv-x="1175" 
d="M725 1125h-90l-218 309h175zM655 1045q169 0 276.5 -99t107.5 -266v-680h-22q-29 41 -99.5 50t-143.5 -4t-178 -29t-172 -17q-81 0 -145.5 22t-102 60t-58 86t-15 102t28 105.5t70.5 99t113 79.5q47 24 119.5 53.5t127 50t112.5 51.5t93 62.5t51.5 79t3.5 104.5
q-39 61 -106.5 72t-147.5 -15.5t-159.5 -62.5t-165 -67.5t-140.5 -31.5l37 163q39 -10 239.5 11t275.5 21zM876 73v194h2l-2 209v209q0 157 -39 243q13 -63 -3 -118.5t-47.5 -93.5t-85.5 -77t-99.5 -62.5t-110 -56t-96.5 -51.5q-51 -29 -83 -73t-41 -90t2 -93t40 -84.5
t79.5 -62t114.5 -27.5q54 -3 182 18t187 16z" />
    <glyph glyph-name="aacute" unicode="&#xe1;" horiz-adv-x="1175" 
d="M653 1045q169 0 277.5 -99t108.5 -266v-680h-22q-29 41 -99.5 50t-143.5 -4t-178 -29t-172 -17q-94 0 -165 30t-107.5 78t-46 110t10.5 123t71 118t126 95q48 24 120.5 53.5t127 50t113 51.5t93.5 62.5t52 79t4 104.5q-39 61 -106.5 72t-148 -15.5t-160 -62.5
t-164.5 -67.5t-140 -31.5l36 163q57 -7 126.5 0t194.5 19.5t192 12.5zM876 476v209q0 157 -39 243q13 -63 -3.5 -118.5t-47.5 -93.5t-85.5 -77t-100.5 -62.5t-110 -56t-97 -51.5q-61 -35 -94.5 -89.5t-32.5 -111t25.5 -107.5t81 -85t132.5 -37q55 -3 183 18t188 16v403z
M723 1434l-218 -309h-88l131 309h175z" />
    <glyph glyph-name="acircumflex" unicode="&#xe2;" horiz-adv-x="1175" 
d="M655 1045q169 0 276.5 -99t107.5 -266v-680h-22q-29 41 -99 50t-143 -4t-178 -29t-173 -17q-81 0 -145.5 22t-102 60t-58 86t-15 102t28 105.5t70.5 99t113 79.5q47 24 119.5 53.5t127 50t113 51.5t93.5 62.5t51.5 79t3.5 104.5q-38 61 -105 72t-147.5 -15.5
t-160.5 -62.5t-166 -67.5t-141 -31.5l37 163q39 -10 239.5 11t275.5 21zM878 476v209q0 159 -38 243q13 -63 -3.5 -118.5t-48 -93.5t-86 -77t-100.5 -62.5t-110 -56t-97 -51.5q-51 -29 -83 -73t-41 -90t2 -93t40 -84.5t79.5 -62t114.5 -27.5q55 -3 183 18t188 16v403z
M572 1400l-119 -275h-175l221 309h144l221 -309h-175z" />
    <glyph glyph-name="atilde" unicode="&#xe3;" horiz-adv-x="1175" 
d="M655 1045q168 0 276 -99.5t108 -265.5v-680h-22q-29 41 -99.5 50t-143.5 -4t-178 -29t-172 -17q-94 0 -165 30t-107.5 78t-46 110t10.5 123t71 118t126 95q48 24 121 53.5t127.5 50t113 51.5t93.5 62.5t51.5 79t3.5 104.5q-39 61 -106.5 72t-147.5 -15.5t-159.5 -62.5
t-165 -67.5t-140.5 -31.5l36 163q39 -10 239.5 11t275.5 21zM876 476v209q0 157 -39 243q13 -63 -3 -118.5t-47.5 -93.5t-85.5 -77t-99.5 -62.5t-110 -56t-96.5 -51.5q-52 -29 -84 -73t-41.5 -90t2 -93t40.5 -84t80 -62t115 -28q54 -3 182 18t187 16v403zM485 1259
q-20 11 -50.5 12t-66 -15t-55.5 -51l-15 10q22 67 52.5 108.5t58.5 53t53 13.5t40 -4l15 -6l141 -77q19 -12 50 -13t66 15.5t54 50.5l14 -12q-16 -49 -36.5 -84t-40.5 -53t-40.5 -28t-38 -10.5t-31 1.5t-21.5 6l-8 3z" />
    <glyph glyph-name="adieresis" unicode="&#xe4;" horiz-adv-x="1175" 
d="M655 1045q168 0 276 -99.5t108 -265.5v-680h-22q-29 41 -99.5 50t-143.5 -4t-178 -29t-172 -17q-94 0 -165 30t-107.5 78t-46 110t10.5 123t71 118t126 95q48 24 120.5 53.5t127 50t113 51.5t93.5 62.5t52 79t4 104.5q-39 61 -106.5 72t-148 -15.5t-160 -62.5
t-164.5 -67.5t-140 -31.5l36 163q57 -7 126.5 0t195 19.5t193.5 12.5zM876 73v612q0 159 -38 243q13 -63 -3.5 -118.5t-48 -93.5t-86 -77t-100.5 -62.5t-110 -56t-97 -51.5q-61 -35 -94.5 -89.5t-32.5 -111t25.5 -107.5t81 -85t132.5 -37q55 -3 183 18t188 16zM403 1147
q-62 0 -106.5 39t-44.5 92q0 55 44.5 94.5t106.5 39.5q63 0 108 -39.5t45 -94.5q0 -53 -45 -92t-108 -39zM738 1147q-63 0 -107 38.5t-44 92.5q0 55 44 94.5t107 39.5q62 0 106.5 -39.5t44.5 -94.5q0 -53 -44.5 -92t-106.5 -39z" />
    <glyph glyph-name="aring" unicode="&#xe5;" horiz-adv-x="1175" 
d="M655 1045q169 0 276.5 -99t107.5 -266v-680h-22q-29 41 -99 50t-143 -4t-178 -29t-173 -17q-81 0 -145.5 22t-102 60t-58 86t-15 102t28 105.5t70.5 99t113 79.5q47 24 119.5 53.5t127 50t112.5 51.5t93 62.5t51.5 79t3.5 104.5q-39 61 -106.5 72t-147.5 -15.5
t-159.5 -62.5t-165 -67.5t-140.5 -31.5l37 163q39 -10 239.5 11t275.5 21zM878 267v209l-2 209q0 166 -39 243q13 -63 -3 -118.5t-47.5 -93.5t-85.5 -77t-99.5 -62.5t-110 -56t-96.5 -51.5q-51 -29 -83 -73t-41 -90t2 -93t40 -84.5t79.5 -62t114.5 -27.5q54 -3 182 18
t187 16zM672 1147q-72 -33 -156.5 -18t-127.5 71q-43 57 -18.5 119t98.5 93q75 33 159 17.5t127 -71.5q43 -57 18.5 -118.5t-100.5 -92.5zM499 1373q-31 -13 -45 -38t-9 -52t23 -49q28 -36 75.5 -51.5t99.5 3.5q47 19 53 62.5t-22 75.5q-28 36 -77 52t-98 -3z" />
    <glyph glyph-name="ae" unicode="&#xe6;" horiz-adv-x="1988" 
d="M1763 92q117 63 141 112v-41q-48 -45 -129 -90q-188 -93 -391 -68.5t-343 151.5v-156h-22q-29 41 -99.5 50t-143.5 -4t-178 -29t-172 -17q-94 0 -165 30t-107.5 78t-46 110t10.5 123t71 118t126 95q48 24 121 53.5t127.5 50t113 51.5t93.5 62.5t51.5 79t3.5 104.5
q-39 61 -106.5 72t-147.5 -15.5t-159.5 -62.5t-165 -67.5t-140.5 -31.5l36 163q39 -10 239.5 11t275.5 21q124 0 217.5 -55t136.5 -154q77 85 178 136q99 50 181.5 66t144 5t113 -29t113.5 -33t121 -11l42 -163l-773 -479q69 -114 169 -188.5t220.5 -94.5t242.5 47zM878 267
h3l-3 209v209q0 157 -39 243q13 -63 -3 -118.5t-47.5 -93.5t-85.5 -77t-99.5 -62.5t-110 -56t-96.5 -51.5q-51 -29 -83 -73t-41 -90t2 -93t40 -84.5t79.5 -62t114.5 -27.5q54 -3 182 18t187 16v194zM1226 957q-82 -49 -128 -122.5t-54 -156t11.5 -167.5t65.5 -166l749 464
q-35 6 -83 32.5t-91.5 57.5t-100 59.5t-110.5 43.5t-122.5 5.5t-136.5 -50.5z" />
    <glyph glyph-name="ccedilla" unicode="&#xe7;" horiz-adv-x="1198" 
d="M974 92q117 63 141 112v-41q-48 -45 -129 -90q-116 -59 -248.5 -70.5t-247.5 23.5l-22 -84l-2 -5q22 1 46.5 8.5t41.5 13.5t47.5 1.5t70.5 -23.5q70 -36 94.5 -105t-16.5 -138q-42 -65 -124 -81.5t-150 20.5q-19 9 -44 29l-3 3v38l13 -19q13 -20 43 -34q31 -16 63.5 -15
t60.5 18t51 42t35.5 57t15.5 62.5t-11.5 59.5t-44.5 48q-34 21 -68 15.5t-56 -21t-48.5 -31.5t-45.5 -14h-8l5 24l15 54l22 82q-200 64 -304 224q-60 90 -73 194.5t18 200.5t106 182t182 140q99 50 182 66t144 5t112 -29.5t113 -33.5t120 -11l44 -162q-33 -3 -73 13.5
t-80 42t-85.5 55.5t-95.5 53t-103 34.5t-115.5 0.5t-125.5 -49q-76 -45 -121.5 -112t-56.5 -141t0 -155t48.5 -155.5t88 -141.5t119.5 -115t141.5 -74t156 -19.5t161.5 48.5z" />
    <glyph glyph-name="egrave" unicode="&#xe8;" horiz-adv-x="1202" 
d="M974 92q50 27 81.5 50t41.5 34.5t20 27.5v-41q-56 -48 -131 -90q-144 -73 -304.5 -74.5t-298 66.5t-216.5 190q-60 90 -73 194.5t18 200.5t106 182t182 140q99 50 181.5 66t144 5t113 -29t113.5 -33t121 -11l44 -163l-773 -479q68 -113 167.5 -188t220 -95t242.5 47z
M437 957q-82 -49 -128 -122.5t-54 -156t11.5 -167.5t65.5 -166l749 464q-35 6 -83 32.5t-91.5 57.5t-100 59.5t-110.5 43.5t-122.5 5.5t-136.5 -50.5zM757 1125h-87l-221 309h175z" />
    <glyph glyph-name="eacute" unicode="&#xe9;" horiz-adv-x="1200" 
d="M973 92q50 27 81.5 50t41.5 34.5t20 27.5v-41q-56 -48 -131 -90q-142 -73 -302.5 -74.5t-298.5 66.5t-218 190q-59 90 -71.5 194.5t18 200.5t105 182t181.5 140q99 50 181.5 66t144 5t113 -29t113.5 -33t121 -11l44 -163l-773 -479q68 -113 167.5 -188t220 -95t242.5 47z
M436 957q-82 -49 -128 -122.5t-53 -156t13 -167.5t66 -166l745 464q-31 6 -70.5 26.5t-77.5 45.5t-81.5 52.5t-90.5 46.5t-97.5 28t-108.5 -3.5t-117 -47.5zM756 1434l-218 -309h-90l133 309h175z" />
    <glyph glyph-name="ecircumflex" unicode="&#xea;" horiz-adv-x="1200" 
d="M972 92q121 65 144 112v-41q-59 -51 -129 -90q-144 -73 -304.5 -74.5t-298.5 66.5t-218 190q-59 90 -71.5 194.5t18.5 200.5t105.5 182t182.5 140q99 50 181.5 66t143.5 5t112 -29t113 -33t121 -11l44 -163l-773 -479q68 -113 167.5 -188t219.5 -95t242 47zM438 957
q-109 -65 -153.5 -171.5t-29 -219t77.5 -221.5l746 464q-35 6 -82.5 32.5t-91 57.5t-100 59.5t-110.5 43.5t-122 5.5t-135 -50.5zM654 1400l-116 -275h-175l218 309h146l221 -309h-175z" />
    <glyph glyph-name="edieresis" unicode="&#xeb;" horiz-adv-x="1200" 
d="M974 92q117 63 141 112v-41q-48 -45 -129 -90q-144 -73 -304.5 -74.5t-298 66.5t-216.5 190q-60 90 -73 194.5t18 200.5t106 182t182 140q99 50 181.5 66t143.5 5t112.5 -29t113 -33t120.5 -11l44 -163l-773 -479q68 -113 167.5 -188t220.5 -95t244 47zM437 957
q-109 -65 -153.5 -171.5t-29 -219t77.5 -221.5l749 464q-35 6 -83 32.5t-91.5 57.5t-100 59.5t-110.5 43.5t-122.5 5.5t-136.5 -50.5zM850 1147q-63 0 -108 38.5t-45 92.5q0 55 45 94.5t108 39.5q62 0 106 -39.5t44 -94.5q0 -53 -44 -92t-106 -39zM514 1147q-62 0 -106 38.5
t-44 92.5q0 55 44 94.5t106 39.5q63 0 107 -39.5t44 -94.5q0 -53 -44 -92t-107 -39z" />
    <glyph glyph-name="igrave" unicode="&#xec;" horiz-adv-x="569" 
d="M421 1125h-88l-221 309h175zM51 1045h370v-1045h-370v20h63q60 0 102 42t42 101v719q0 60 -42 101.5t-102 41.5h-63v20z" />
    <glyph glyph-name="iacute" unicode="&#xed;" horiz-adv-x="569" 
d="M421 1434l-222 -309h-87l134 309h175zM51 1045h370v-1045h-370v20h63q60 0 102 42t42 101v719q0 60 -42 101.5t-102 41.5h-63v20z" />
    <glyph glyph-name="icircumflex" unicode="&#xee;" horiz-adv-x="563" 
d="M408 1434l219 -309h-175l-117 275l-119 -275h-175l221 309h146zM46 1045h369v-1045h-369v20h63q60 0 101.5 42t41.5 101v719q0 60 -41.5 101.5t-101.5 41.5h-63v20z" />
    <glyph glyph-name="idieresis" unicode="&#xef;" horiz-adv-x="563" 
d="M46 1045h369v-1045h-369v20h63q60 0 101.5 42t41.5 101v719q0 60 -41.5 101.5t-101.5 41.5h-63v20zM167 1147q-62 0 -106.5 39t-44.5 92q0 55 44.5 94.5t106.5 39.5t106.5 -39.5t44.5 -94.5q0 -53 -44.5 -92t-106.5 -39zM500 1412q63 0 107 -39.5t44 -94.5q0 -53 -44 -92
t-107 -39q-62 0 -106.5 39t-44.5 92q0 55 44.5 94.5t106.5 39.5z" />
    <glyph glyph-name="eth" unicode="&#xf0;" horiz-adv-x="1316" 
d="M1195 728q65 -174 -12.5 -357t-261.5 -288q-136 -76 -287 -82t-278.5 57.5t-197.5 182.5q-54 89 -63 193t23 200.5t104 183.5t174 144q136 77 289.5 82t273.5 -57q-132 136 -315 267l-282 -75l-12 41l247 68q-150 99 -233 146h139q96 -55 189 -122l263 71l9 -44l-226 -61
q282 -207 422 -476q18 -32 31 -63q0 -1 1.5 -5t2.5 -5v-1zM908 100q149 84 182 267t-70 360q-52 86 -127 148t-157 91t-168.5 24.5t-159.5 -45.5q-98 -55 -148 -158t-41 -227.5t77 -238.5q51 -86 126 -148.5t157 -92t169 -25.5t160 45z" />
    <glyph glyph-name="ntilde" unicode="&#xf1;" horiz-adv-x="1413" 
d="M813 1045q90 0 173 -26.5t149.5 -76.5t106.5 -131t40 -182v-629h-369v20h65q58 0 99.5 42t41.5 101v447q0 58 -9.5 115.5t-32.5 114t-56 98t-85 64t-116 16.5q-59 -6 -105.5 -33.5t-77.5 -62t-61 -68t-70.5 -56.5t-91.5 -23v-775h-369v20h63q60 0 102 42t42 101v719
q0 60 -42 101.5t-102 41.5h-63v20h369v-109q48 0 90.5 17t72.5 37.5t91.5 37.5t144.5 17zM679 1259q-20 11 -50.5 12t-66 -15t-55.5 -51l-15 10q22 67 52.5 108.5t58.5 53t53 13.5t40 -4l15 -6l141 -77q19 -12 50 -13t66 15.5t54 50.5l14 -12q-16 -49 -36.5 -84t-40.5 -53
t-40.5 -28t-38 -10.5t-31 1.5t-21.5 6l-8 3z" />
    <glyph glyph-name="ograve" unicode="&#xf2;" horiz-adv-x="1316" 
d="M1158 804q54 -89 63 -193t-23 -200.5t-104 -183.5t-174 -144q-136 -76 -287 -82t-278.5 57.5t-197.5 182.5q-54 89 -62.5 193t23.5 200.5t104.5 183.5t174.5 144q135 76 285.5 82t278 -57.5t197.5 -182.5zM908 100q98 55 148 158t40.5 228t-77.5 241q-51 86 -126 148
t-157 91t-169 24.5t-160 -45.5q-98 -55 -147.5 -158t-39.5 -227t78 -239q51 -86 126 -148.5t156.5 -92t168 -25.5t159.5 45zM810 1125h-87l-219 309h175z" />
    <glyph glyph-name="oacute" unicode="&#xf3;" horiz-adv-x="1316" 
d="M1159 804q53 -90 61.5 -193.5t-23.5 -200t-104 -183.5t-174 -144q-136 -76 -286.5 -82t-277.5 57t-199 183q-53 90 -61.5 193.5t23.5 200t104 183.5t174 144q136 76 286.5 82t277.5 -57t199 -183zM909 100q98 55 147 158t39.5 228t-77.5 241q-51 86 -126 148t-157 91
t-169 24.5t-160 -45.5q-98 -55 -147.5 -158t-39.5 -227t78 -239q104 -175 283.5 -240t328.5 19zM812 1434l-221 -309h-88l134 309h175z" />
    <glyph glyph-name="ocircumflex" unicode="&#xf4;" horiz-adv-x="1316" 
d="M1159 804q54 -89 62.5 -193t-24 -200.5t-104.5 -183.5t-173 -144q-136 -76 -287 -82t-278.5 57.5t-197.5 182.5q-54 89 -63 193t23.5 200.5t104.5 183.5t174 144q136 76 287 82t278.5 -57.5t197.5 -182.5zM908 100q98 55 148 158t41 228t-77 241q-52 86 -127 148t-157 91
t-168.5 24.5t-159.5 -45.5q-98 -55 -148 -158t-41 -227.5t77 -238.5q51 -86 126 -148.5t157 -92t169 -25.5t160 45zM658 1400l-117 -275h-175l219 309h146l219 -309h-175z" />
    <glyph glyph-name="otilde" unicode="&#xf5;" horiz-adv-x="1316" 
d="M1159 804q53 -90 61.5 -193.5t-23.5 -200t-104 -183.5t-174 -144q-136 -76 -286.5 -82t-277.5 57t-199 183q-53 90 -61.5 193.5t23.5 200t104 183.5t174 144q136 76 286.5 82t277.5 -57t199 -183zM909 100q149 84 181 267t-72 360q-51 86 -126 148t-157 91t-169 24.5
t-160 -45.5q-98 -55 -147.5 -158t-39.5 -227t78 -239q51 -86 126 -148.5t157 -92t169 -25.5t160 45zM571 1259q-20 11 -50.5 12t-66 -15t-55.5 -51l-15 10q22 67 52.5 108.5t58.5 53t53 13.5t40 -4l15 -6l143 -77q18 -12 49 -13t65.5 15.5t53.5 50.5l17 -12
q-16 -49 -36.5 -84t-40.5 -53t-40.5 -28t-38 -10.5t-31 1.5t-21.5 6l-8 3z" />
    <glyph glyph-name="odieresis" unicode="&#xf6;" horiz-adv-x="1316" 
d="M1159 804q53 -90 61.5 -193.5t-23.5 -200t-104 -183.5t-174 -144q-136 -76 -286.5 -82t-277.5 57t-199 183q-53 90 -61.5 193.5t23.5 200t104 183.5t174 144q136 76 287 82t278.5 -57.5t197.5 -182.5zM909 100q149 84 181 267t-72 360q-51 86 -126 148t-156 91
t-167.5 24.5t-159.5 -45.5q-151 -84 -183.5 -266.5t71.5 -357.5q51 -86 126 -148.5t157 -92t169 -25.5t160 45zM824 1147q-62 0 -106.5 39t-44.5 92q0 55 44.5 94.5t106.5 39.5q63 0 108 -39.5t45 -94.5q0 -53 -45 -92t-108 -39zM491 1147q-62 0 -106 38.5t-44 92.5
q0 55 44 94.5t106 39.5t106.5 -39.5t44.5 -94.5q0 -53 -44.5 -92t-106.5 -39z" />
    <glyph glyph-name="divide" unicode="&#xf7;" horiz-adv-x="890" 
d="M115 747h661v-163h-661v163zM445 803q-62 0 -106 38t-44 93t44 93t106 38t106.5 -38t44.5 -93t-44.5 -93t-106.5 -38zM445 528q62 0 106.5 -38t44.5 -93t-44.5 -94.5t-106.5 -39.5t-106 39.5t-44 94.5t44 93t106 38z" />
    <glyph glyph-name="oslash" unicode="&#xf8;" horiz-adv-x="1325" 
d="M1163 804q53 -90 61.5 -193.5t-23.5 -200t-104 -183.5t-174 -144q-167 -92 -345 -82t-308 114l-88 -88l-15 14l87 88q-57 51 -94 112q-53 90 -61.5 193.5t23.5 200t104 183.5t174 144q167 92 345 82t308 -114l89 88l14 -14l-87 -88q57 -51 94 -112zM301 321
q24 -41 61 -85l587 589q-112 121 -262 155.5t-277 -35.5q-98 -55 -147.5 -158t-39.5 -227t78 -239zM913 100q149 84 181 267t-71 360q-28 47 -60 83l-587 -589q112 -121 261 -155.5t276 34.5z" />
    <glyph glyph-name="ugrave" unicode="&#xf9;" horiz-adv-x="1419" 
d="M900 1045h370v-1045h-22q-18 54 -57 78t-86.5 21t-107.5 -17.5t-114 -35t-112 -34.5t-97 -12q-86 6 -163 35t-138.5 79t-97.5 128.5t-36 175.5v464q0 60 -41.5 101.5t-101.5 41.5h-63v20h369v-607q0 -70 14 -137.5t43 -129t81.5 -101t121.5 -43.5q55 -2 115.5 12
t106 32.5t106.5 34.5t117 16v760q0 60 -41.5 101.5t-101.5 41.5h-64v20zM806 1125h-88l-221 309h175z" />
    <glyph glyph-name="uacute" unicode="&#xfa;" horiz-adv-x="1419" 
d="M900 1045h369v-1045h-21q-17 54 -56 78t-86.5 21t-107.5 -17.5t-114.5 -35t-113 -34.5t-96.5 -12q-86 6 -163 35t-138.5 79t-97.5 128.5t-36 175.5v464q0 60 -41.5 101.5t-101.5 41.5h-63v20h369v-607q0 -70 14 -137.5t43 -129t81.5 -101t121.5 -43.5q55 -2 116 12
t106.5 32.5t106.5 34.5t116 16v760q0 60 -41 101.5t-100 41.5h-66v20zM805 1434l-221 -309h-87l134 309h174z" />
    <glyph glyph-name="ucircumflex" unicode="&#xfb;" horiz-adv-x="1417" 
d="M901 1045h367v-1045h-20q-18 54 -57 78t-87 21t-108 -17.5t-114.5 -35t-113 -34.5t-96.5 -12q-86 6 -162.5 35t-138 79t-97 128.5t-34.5 175.5v464q0 60 -42.5 101.5t-101.5 41.5h-65v20h369v-607q0 -70 14 -137.5t43 -129t81.5 -101t121.5 -43.5q55 -2 116 12
t106.5 32.5t107 34.5t117.5 16v760q0 60 -42 101.5t-101 41.5h-63v20zM650 1400l-116 -275h-178l222 309h145l219 -309h-175z" />
    <glyph glyph-name="udieresis" unicode="&#xfc;" horiz-adv-x="1419" 
d="M900 1045h370v-1045h-22q-18 54 -57 78t-86.5 21t-107.5 -17.5t-114 -35t-113 -34.5t-98 -12q-86 6 -162.5 35t-137.5 79t-97 128.5t-36 175.5v464q0 60 -42 101.5t-101 41.5h-63v20h367v-607q0 -70 14.5 -137.5t44 -129t82 -101t121.5 -43.5q55 -2 115 12t105.5 32.5
t107 34.5t117.5 16v760q0 60 -42 101.5t-102 41.5h-63v20zM818 1147q-63 0 -107 38.5t-44 92.5q0 55 44 94.5t107 39.5q62 0 106 -39.5t44 -94.5q0 -53 -44 -92t-106 -39zM482 1147q-62 0 -106 38.5t-44 92.5q0 55 44 94.5t106 39.5q63 0 108 -39.5t45 -94.5q0 -53 -45 -92
t-108 -39z" />
    <glyph glyph-name="yacute" unicode="&#xfd;" horiz-adv-x="1177" 
d="M969 1047h162l-386 -903l-70 -144l-192 -391h-25q-24 2 -70.5 11t-80.5 14t-85.5 0t-100.5 -25l-59 163q93 2 148 -14.5t127 -58.5t134 -66l179 367h-19q-62 144 -184.5 432t-184.5 431q-19 45 -40.5 77.5t-39 48.5t-39.5 25t-35.5 10.5t-33.5 1.5h-43v19h330l372 -875
q75 161 118 291t54.5 209t15.5 141.5t13 121t35 114.5zM735 1434l-221 -309h-87l133 309h175z" />
    <glyph glyph-name="thorn" unicode="&#xfe;" horiz-adv-x="1128" 
d="M769 804q117 0 199.5 -82.5t82.5 -198.5q0 -117 -83 -201t-199 -84h-457v-629h-369v22h63q60 0 101.5 41t41.5 100v1499q0 59 -41.5 101t-101.5 42h-63v20h369v-630h457zM628 260q108 0 185 76.5t77 185.5q0 107 -77.5 183.5t-184.5 76.5h-316v-522h316z" />
    <glyph glyph-name="ydieresis" unicode="&#xff;" horiz-adv-x="1177" 
d="M969 1047h163l-387 -903l-70 -144l-192 -391h-22q-25 2 -72 11t-81.5 14t-86 0t-100.5 -25l-56 163q72 2 125 -10t83.5 -29t87 -47.5t112.5 -52.5l177 367h-19q-62 144 -184.5 432t-184.5 431q-19 45 -40.5 77t-38.5 48.5t-39 25.5t-36 10.5t-34 1.5h-43v19h330l372 -875
q75 161 118 291t54.5 209t15.5 141.5t13 121t35 114.5zM748 1171q-62 0 -106.5 38t-44.5 93t44.5 93.5t106.5 38.5q63 0 106.5 -38.5t43.5 -93.5t-43 -93t-107 -38zM415 1171q-62 0 -106.5 38.5t-44.5 92.5t44.5 93t106.5 39t106 -39t44 -93t-44 -92.5t-106 -38.5z" />
    <glyph glyph-name="Amacron" unicode="&#x100;" horiz-adv-x="1267" 
d="M942 20q32 0 50.5 8t23 23.5t2.5 31.5t-10 39l-129 303h-564q-20 -96 -30.5 -145t-35 -129t-55.5 -151h-163q83 193 254.5 595t260.5 610l-20 46q-20 45 -41.5 77t-38.5 48t-39 24.5t-35 10t-33 1.5h-46v22h331l165 -389l447 -1045h-343v20h49zM320 445h549l-44 99l-7 22
l-58 136l-146 343l-59 134q-69 -149 -118.5 -294.5t-69.5 -227t-47 -212.5zM866 1645h-624v44h624v-44z" />
    <glyph glyph-name="amacron" unicode="&#x101;" horiz-adv-x="1173" 
d="M654 1045q169 0 276.5 -99t107.5 -266v-680h-20q-29 41 -99.5 50t-143.5 -4t-178.5 -29t-173.5 -17q-94 0 -164.5 30t-107 78t-46 110t10.5 123t71 118t127 95q47 24 119.5 53.5t127 50t113 51.5t93.5 62.5t51.5 79t3.5 104.5q-38 61 -105 72t-147.5 -15.5t-160.5 -62.5
t-166 -67.5t-141 -31.5l37 163q40 -10 241 11t274 21zM877 73v612q0 159 -38 243q13 -63 -3.5 -118.5t-48 -93.5t-86 -77t-100.5 -62.5t-110 -56t-97 -51.5q-51 -29 -83 -73t-41 -90t2 -93t40 -84.5t79.5 -62t114.5 -27.5q55 -3 183 18t188 16zM882 1256h-624v46h624v-46z
" />
    <glyph glyph-name="Abreve" unicode="&#x102;" horiz-adv-x="1269" 
d="M942 20q32 0 50.5 8t23 23.5t2 31.5t-10.5 39l-128 303h-564q-20 -96 -30.5 -145t-35 -129t-55.5 -151h-163q101 231 281.5 656t233.5 549l-20 46q-20 45 -41.5 77t-38.5 48t-39 24.5t-35 10t-33 1.5h-46v22h331l165 -389l449 -1045h-345v20h49zM320 445h551l-43 99
l-10 22l-56 136l-148 343l-56 134q-70 -149 -120.5 -294.5t-70.5 -227t-47 -212.5zM660 1592q-74 -32 -159 -17t-128 70q-43 58 -17 119h78q-14 -38 19 -85q27 -35 76.5 -51t98.5 2q45 19 53 60.5t-16 73.5h97q16 -49 -12.5 -97t-89.5 -75z" />
    <glyph glyph-name="abreve" unicode="&#x103;" horiz-adv-x="1175" 
d="M655 1045q169 0 276.5 -99t107.5 -266v-680h-22q-29 41 -99.5 50t-143.5 -4t-178 -29t-172 -17q-94 0 -165 30t-107.5 78t-46 110t10.5 123t71 118t126 95q48 24 121 53.5t127.5 50t113 51.5t93.5 62.5t51.5 79t3.5 104.5q-39 61 -106.5 72t-147.5 -15.5t-159.5 -62.5
t-165 -67.5t-140.5 -31.5l36 163q39 -10 239.5 11t275.5 21zM876 267h3l-3 209v209q0 157 -39 243q13 -63 -3 -118.5t-47.5 -93.5t-85.5 -77t-99.5 -62.5t-110 -56t-96.5 -51.5q-52 -29 -84 -73t-41.5 -90t2 -93t40.5 -84t80 -62t115 -28q54 -3 182 18t187 16v194zM672 1203
q-72 -32 -156.5 -17t-127.5 70q-44 60 -17 122h78q-14 -41 17 -85q29 -37 77.5 -53t99.5 2q45 21 52.5 62t-16.5 74h95q17 -51 -11.5 -99.5t-90.5 -75.5z" />
    <glyph glyph-name="Aogonek" unicode="&#x104;" horiz-adv-x="1269" 
d="M1194 -143l7 5l37 -64l-5 -4q-22 -20 -36.5 -47t-22.5 -46.5t-36.5 -41.5t-77.5 -38q-83 -29 -157.5 7.5t-92.5 121.5q-16 75 25.5 145t114.5 105h-55v20h49q32 0 50.5 8t23 23.5t2 31.5t-10.5 39l-128 303h-564q-20 -96 -30.5 -145t-35 -129t-55.5 -151h-163
q83 193 254.5 595t260.5 610l-20 46q-20 45 -41.5 77t-38.5 48t-39 24.5t-35 10t-33 1.5h-46v22h331l165 -389l447 -1045h-202q-23 0 -53 -10q-51 -15 -78.5 -60t-24.5 -97.5t23 -100t63.5 -73t96.5 -11.5q42 10 65 39t27.5 59.5t13 63.5t25.5 47zM322 445h549l-44 99l-7 22
l-58 136l-146 343l-59 134q-69 -149 -118.5 -294.5t-69.5 -227t-47 -212.5z" />
    <glyph glyph-name="aogonek" unicode="&#x105;" horiz-adv-x="1173" 
d="M654 1045q169 0 276.5 -99t107.5 -266v-680h-20q-28 38 -87 49q-172 -61 -197 -85q-40 -34 -49 -95t9.5 -115.5t64.5 -89t104 -19.5q42 11 65.5 40.5t28.5 60.5t14 64t26 47l4 5l37 -66l-3 -2q-23 -20 -38 -47t-22.5 -46.5t-35 -42t-76.5 -39.5q-83 -26 -159.5 9.5
t-93.5 118.5q-14 67 17.5 132t91.5 104q29 19 153 70q-61 0 -216 -26t-230 -27q-94 0 -165 30t-107.5 78t-46 110t10 123t70.5 118t126 95q48 24 120.5 53.5t127 50t113 51.5t93.5 62.5t52 79t4 104.5q-39 61 -106.5 72t-148.5 -15.5t-160.5 -62.5t-165.5 -67.5t-141 -31.5
l39 163q57 -7 126.5 0t194.5 19.5t192 12.5zM506 39q55 -3 183 18t188 16v612q0 159 -38 243q13 -63 -3.5 -118.5t-48 -93.5t-86 -77t-100.5 -62.5t-110 -56t-97 -51.5q-51 -29 -83 -73t-41 -90t2 -93t40 -84.5t79.5 -62t114.5 -27.5z" />
    <glyph glyph-name="Cacute" unicode="&#x106;" horiz-adv-x="1417" 
d="M1175 112q102 60 170 160v-58q-75 -71 -160 -119q-175 -100 -371 -103t-364.5 89t-265.5 259q-73 125 -88.5 268t22.5 275t128.5 249t221.5 192q178 102 377 102q56 0 117 -18.5t106.5 -40t106.5 -37t117 -11.5l54 -153q-65 0 -120.5 16.5t-98 41.5t-83 51.5t-92.5 51.5
t-109 36q-194 39 -363 -56q-137 -79 -207 -225.5t-57.5 -323t106.5 -338.5q71 -121 175.5 -208.5t218.5 -128.5t235 -35t224 64zM872 1822l-221 -308h-88l134 308h175z" />
    <glyph glyph-name="cacute" unicode="&#x107;" horiz-adv-x="1198" 
d="M972 92q121 65 144 112v-41q-59 -51 -129 -90q-144 -73 -304.5 -74.5t-298.5 66.5t-218 190q-59 90 -71.5 194.5t18 200.5t105 182t181.5 140q99 50 182 66t144 5t112.5 -29.5t113.5 -33.5t121 -11l44 -162q-33 -3 -73 13.5t-80.5 42t-86 55.5t-95.5 53t-103 34.5
t-115 0.5t-125 -49q-76 -45 -122 -112t-57 -141t0 -155t48.5 -155.5t88 -141.5t119 -115t141 -74t155.5 -19.5t161 48.5zM912 1434l-221 -309h-88l131 309h178z" />
    <glyph glyph-name="Ccaron" unicode="&#x10c;" horiz-adv-x="1419" 
d="M1176 112q102 60 170 160v-58q-88 -79 -160 -119q-175 -100 -371.5 -103t-365.5 89t-267 259q-73 125 -88 268t23.5 275t129.5 249t222 192q179 102 377 102q56 0 117 -18.5t106.5 -40t106.5 -37t117 -11.5l53 -153q-65 0 -120.5 16.5t-98.5 41.5t-83 51.5t-93 51.5
t-110 36q-191 39 -362 -56q-136 -79 -205.5 -225.5t-57 -323t106.5 -338.5q71 -121 175.5 -208.5t218.5 -128.5t235 -35t224 64zM790 1514h-146l-219 308h175l117 -274l119 274h175z" />
    <glyph glyph-name="ccaron" unicode="&#x10d;" horiz-adv-x="1200" 
d="M974 92q50 27 81.5 50t41.5 34.5t20 27.5v-41q-56 -48 -131 -90q-142 -73 -302.5 -74.5t-298.5 66.5t-218 190q-60 90 -73 194.5t18 200.5t106 182t182 140q99 50 182 66t144 5t112.5 -29.5t113.5 -33.5t121 -11l44 -162q-33 -3 -74 13.5t-81 42t-85.5 55.5t-95.5 53
t-103 34.5t-115.5 0.5t-125.5 -49q-76 -45 -121.5 -112t-56 -141t0.5 -155t49 -155.5t88 -141.5t119 -115t141.5 -74t155.5 -19.5t161 48.5zM787 1125h-146l-219 309h175l117 -275l119 275h175z" />
    <glyph glyph-name="Dcaron" unicode="&#x10e;" horiz-adv-x="1406" 
d="M679 1434q135 0 248 -49t185.5 -132t123.5 -190.5t62 -226t0 -237.5t-62 -226.5t-123.5 -190.5t-185.5 -132.5t-248 -49.5h-630v20h66q58 0 99.5 42t41.5 101v1108q0 59 -41.5 101t-99.5 42h-66v20h630zM676 20q113 0 205 60t148 158t86.5 223t30.5 256t-31 256t-87 223
t-147.5 158t-204.5 60h-257v-1394h257zM691 1514h-146l-219 308h175l117 -274l116 274h175z" />
    <glyph glyph-name="dcaron" unicode="&#x10f;" horiz-adv-x="1273" 
d="M819 1414h-63v20h369v-1434h-22q-22 37 -75.5 44.5t-107.5 -4t-121 -26t-99 -14.5q-325 0 -487 178q-122 134 -118 327q4 181 113 327q119 160 308 201q51 11 104 12q55 2 109 -16.5t88 -41t73.5 -39t71.5 -12.5v335q0 59 -41.5 101t-101.5 42zM962 68v707q-39 0 -74 19
t-62.5 46.5t-55.5 59.5t-59.5 57.5t-68 40.5t-87 8t-110.5 -39q-101 -53 -152 -139t-51.5 -179.5t35.5 -193t100 -182.5t152.5 -145.5t182.5 -83.5q56 -14 139.5 4t110.5 20zM1329 1434q64 0 108.5 -38.5t44.5 -93.5q0 -21 -7 -38q-20 -73 -99 -128t-156 -55l-39 66
q3 0 35 -0.5t43.5 0t39.5 2.5t43.5 6.5t34 12.5t30.5 20q-34 -17 -78 -17q-62 0 -106.5 38t-44.5 93t44.5 93.5t106.5 38.5z" />
    <glyph glyph-name="dmacron" unicode="&#x111;" horiz-adv-x="1275" 
d="M1305 1302v-46h-180v-1256h-22q-22 37 -75.5 44.5t-107.5 -4t-121 -26t-99 -14.5q-325 0 -487 178q-122 134 -118 327q4 181 113 327q119 160 308 201q51 11 104 12q55 2 109 -16.5t88 -41t73.5 -39t71.5 -12.5v320h-282v46h278q-11 48 -49.5 80t-89.5 32h-63v20h369
v-132h180zM962 68v707q-39 0 -74 19t-62.5 46.5t-55.5 59.5t-59.5 57.5t-68 40.5t-87 8t-110.5 -39q-101 -53 -152 -139t-51.5 -179.5t35.5 -193t100 -182.5t152.5 -145.5t182.5 -83.5q30 -9 65.5 -7t57.5 7.5t58.5 13.5t68.5 10z" />
    <glyph glyph-name="Emacron" unicode="&#x112;" horiz-adv-x="1361" 
d="M419 20q103 0 197 14.5t156.5 35t131.5 43t122 38.5t128.5 21t150.5 -9l-55 -163q-81 30 -189.5 36.5t-201.5 -3t-222.5 -21.5t-217.5 -12h-370v20h66q59 0 101 42t42 101v1108q0 59 -42 101t-101 42h-66v20h370q88 0 217.5 -12t222.5 -21.5t201.5 -3t189.5 36.5l55 -163
q-75 -14 -150.5 -9t-128.5 21t-122 38.5t-131.5 43t-156.5 35t-197 14.5v-525h262q59 0 101 42t42 102v182h20v-668h-20v180q0 58 -42 99.5t-101 41.5h-262v-848zM989 1645h-624v44h624v-44z" />
    <glyph glyph-name="emacron" unicode="&#x113;" horiz-adv-x="1200" 
d="M972 92q121 65 144 112v-41q-59 -51 -129 -90q-144 -73 -304.5 -74.5t-298.5 66.5t-218 190q-59 90 -71.5 194.5t18.5 200.5t105.5 182t182.5 140q99 50 181.5 66t143.5 5t112 -29t113 -33t121 -11l44 -163l-773 -479q68 -113 167.5 -188t219.5 -95t242 47zM438 957
q-109 -65 -153.5 -171.5t-29 -219t77.5 -221.5l746 464q-35 6 -82.5 32.5t-91 57.5t-100 59.5t-110.5 43.5t-122 5.5t-135 -50.5zM999 1256h-624v46h624v-46z" />
    <glyph glyph-name="Edot" unicode="&#x116;" horiz-adv-x="1359" 
d="M418 20q102 0 196 14.5t156.5 35t132 43t123 38.5t128.5 21t149 -9l-56 -163q-80 30 -189 36.5t-201.5 -3t-222 -21.5t-216.5 -12h-369v20h63q60 0 102 42t42 101v1108q0 59 -42 101t-102 42h-63v20h369q87 0 216.5 -12t222 -21.5t201.5 -3t189 36.5l56 -163
q-74 -14 -149 -9t-128.5 21t-123 38.5t-132 43t-156.5 35t-196 14.5v-525h260q60 0 102 42t42 102v182h19v-668h-19v180q0 59 -42 100t-102 41h-260v-848zM676 1536q-62 0 -106.5 38t-44.5 93t44.5 93t106.5 38t106.5 -38t44.5 -93t-44.5 -93t-106.5 -38z" />
    <glyph glyph-name="edot" unicode="&#x117;" horiz-adv-x="1200" 
d="M974 92q117 63 141 112v-41q-48 -45 -129 -90q-144 -73 -304.5 -74.5t-298 66.5t-216.5 190q-60 90 -73 194.5t18 200.5t106 182t182 140q99 50 181.5 66t143.5 5t112.5 -29t113 -33t120.5 -11l44 -163l-773 -479q68 -113 167.5 -188t220.5 -95t244 47zM437 957
q-109 -65 -153.5 -171.5t-29 -219t77.5 -221.5l749 464q-35 6 -83 32.5t-91.5 57.5t-100 59.5t-110.5 43.5t-122.5 5.5t-136.5 -50.5zM680 1147q-63 0 -107 38.5t-44 92.5q0 55 44 94.5t107 39.5q62 0 106 -39.5t44 -94.5q0 -53 -44 -92t-106 -39z" />
    <glyph glyph-name="Eogonek" unicode="&#x118;" horiz-adv-x="1363" 
d="M1050 -10q-84 -25 -100 -120t38.5 -170t141.5 -52q42 10 65.5 39t28.5 59.5t14 63.5t26 47l4 5l37 -63l-3 -5q-23 -20 -38 -47t-22.5 -46.5t-35 -41.5t-76.5 -38q-83 -29 -159.5 7.5t-93.5 121.5q-17 83 34 158.5t134 103.5q12 3 90 16q-122 19 -378 -4.5t-337 -23.5
h-369v20h63q60 0 102 42t42 101v1108q0 59 -42 101t-102 42h-63v20h369q87 0 216.5 -12t222 -21.5t201.5 -3t189 36.5l56 -163q-74 -14 -149 -9t-128.5 21t-123 38.5t-132 43t-156.5 35t-196 14.5v-525h260q60 0 102 42t42 102v182h22v-668h-22v180q0 59 -42 100t-102 41
h-260v-848q102 0 196 14.5t156.5 35t132 43t123 38.5t128.5 21t149 -9l-56 -163q-10 4 -29.5 9t-22.5 6q-119 -16 -147 -25z" />
    <glyph glyph-name="eogonek" unicode="&#x119;" horiz-adv-x="1202" 
d="M974 92q50 27 81.5 50t42 35t19.5 27v-41q-56 -48 -131 -90q-154 -78 -330 -73q-59 0 -93 -10q-51 -15 -77.5 -60t-24 -97.5t22 -100.5t63 -74t96.5 -13q42 11 65.5 40.5t28.5 60.5t14 64t26 47l5 5l36 -66l-2 -2q-23 -20 -38 -47t-23 -46.5t-35.5 -41.5t-76.5 -38
q-83 -28 -159.5 7.5t-93.5 118.5q-17 85 34 161t134 102h1q-124 21 -226.5 84t-165.5 161q-60 90 -73 194.5t18 200.5t106 182t182 140q99 50 181.5 66t144 5t113 -29t113.5 -33t121 -11l44 -163l-773 -479q68 -113 167.5 -188t220 -95t242.5 47zM437 957
q-82 -49 -128 -122.5t-54 -156t11.5 -167.5t65.5 -166l749 464q-35 6 -83 32.5t-91.5 57.5t-100 59.5t-110.5 43.5t-122.5 5.5t-136.5 -50.5z" />
    <glyph glyph-name="Ecaron" unicode="&#x11a;" horiz-adv-x="1361" 
d="M749 1514h-144l-221 308h175l119 -274l117 274h175zM418 20q102 0 196 14.5t156.5 35t132 43t123 38.5t129 21t150.5 -9l-56 -163q-81 30 -189.5 36.5t-201.5 -3t-222.5 -21.5t-217.5 -12h-369v20h66q58 0 99.5 42t41.5 101v1108q0 59 -41.5 101t-99.5 42h-66v20h369
q88 0 217.5 -12t222.5 -21.5t201.5 -3t189.5 36.5l56 -163q-75 -14 -150.5 -9t-129 21t-123 38.5t-132 43t-156.5 35t-196 14.5v-525h263q59 0 100 42t41 102v182h22v-668h-22v180q0 59 -41 100t-100 41h-263v-848z" />
    <glyph glyph-name="ecaron" unicode="&#x11b;" horiz-adv-x="1200" 
d="M973 92q50 27 81.5 50t41.5 34.5t20 27.5v-41q-56 -48 -131 -90q-142 -73 -302.5 -74.5t-298.5 66.5t-218 190q-59 90 -71.5 194.5t18 200.5t105 182t181.5 140q99 50 181.5 66t144 5t113 -29t113.5 -33t121 -11l44 -163l-773 -479q68 -113 167.5 -188t220 -95t242.5 47z
M436 957q-82 -49 -128 -122.5t-53 -156t13 -167.5t66 -166l745 464q-31 6 -70.5 26.5t-77.5 45.5t-81.5 52.5t-90.5 46.5t-97.5 28t-108.5 -3.5t-117 -47.5zM676 1125h-146l-221 309h178l116 -275l117 275h175z" />
    <glyph glyph-name="Gbreve" unicode="&#x11e;" horiz-adv-x="1482" 
d="M921 888h425v-666q-72 -72 -160 -121q-175 -99 -371.5 -101.5t-365.5 90t-267 259.5q-73 125 -88 268t23.5 275t129.5 249t222 192q173 99 377 102q56 0 117 -18.5t106.5 -40t106.5 -37t117 -11.5l53 -153q-65 0 -120.5 16t-98.5 41t-83 51.5t-92.5 51.5t-108.5 37
q-195 38 -364 -58q-136 -78 -205.5 -224t-57 -322t106.5 -339q71 -122 175.5 -209.5t218.5 -129t235 -35.5t224 65l7 5v744h-262q-59 0 -100 -42t-41 -102v-174h-22v663h22v-182q0 -59 41.5 -101.5t99.5 -42.5zM899 1593q-75 -33 -159.5 -18t-127.5 71q-45 55 -17 119h78
q-14 -42 20 -85q28 -36 77 -51.5t98 3.5q30 13 43.5 36.5t10.5 48.5t-18 48h97q16 -49 -13 -97.5t-89 -74.5z" />
    <glyph glyph-name="gbreve" unicode="&#x11f;" horiz-adv-x="1329" 
d="M760 1185q-75 -33 -159.5 -18t-127.5 71q-42 53 -17 119h78q-11 -47 20 -85q28 -36 76.5 -52t100.5 3q44 19 52 60.5t-18 73.5h97q16 -49 -13 -97.5t-89 -74.5zM267 21q-34 -54 65 -76q57 -13 270 -27q262 -17 368 -53q135 -45 135 -138q0 -59 -84.5 -94t-245.5 -42
q-45 -2 -134.5 11t-165.5 26.5t-154 19t-100 -10.5q-1 4 -14.5 45t-25 78t-9.5 37q54 0 118.5 -19.5t124.5 -47l120 -55t123.5 -47t116.5 -18.5q68 1 116.5 36.5t50.5 80.5q3 70 -105 106q-75 24 -282 46q-195 21 -255 44q-91 35 -50 107q15 23 45 45q-88 60 -138 147
q-54 89 -63 193t23.5 201t104.5 184t174 144q137 76 286 82v1q4 0 11 -0.5t11 -0.5q23 0 35 -1q14 0 20 -1q13 -1 39 -5q28 -4 81.5 -13.5t85 -13t74 -5t78.5 8.5t68 31l37 -132q-76 0 -210 44q92 -61 146 -153q54 -90 62.5 -194.5t-23.5 -201.5t-104.5 -184t-174.5 -144
q-153 -83 -314 -81.5t-289 81.5q-37 -22 -48 -41zM408 927q-98 -55 -148 -158.5t-41 -229t77 -239.5q51 -86 126 -148t157 -91.5t169 -25t160 45.5q98 55 147.5 158.5t40 227.5t-77.5 239q-51 86 -126 148.5t-156.5 92t-168 25.5t-159.5 -45z" />
    <glyph glyph-name="Imacron" unicode="&#x12a;" horiz-adv-x="581" 
d="M49 1434h369v-1434h-369v20h63q60 0 101.5 42t41.5 101v1108q0 59 -41.5 101t-101.5 42h-63v20zM649 1645h-624v44h624v-44z" />
    <glyph glyph-name="imacron" unicode="&#x12b;" horiz-adv-x="563" 
d="M45 1045h369v-1045h-369v20h63q60 0 101.5 42t41.5 101v719q0 60 -41.5 101.5t-101.5 41.5h-63v20zM645 1234h-625v44h625v-44z" />
    <glyph glyph-name="Idot" unicode="&#x130;" horiz-adv-x="581" 
d="M49 1434h370v-1434h-370v20h66q58 0 99.5 42t41.5 101v1108q0 59 -41.5 101t-99.5 42h-66v20zM338 1798q62 0 106.5 -38t44.5 -93t-44.5 -93t-106.5 -38q-64 0 -107 38t-43 93t43 93t107 38z" />
    <glyph glyph-name="dotlessi" unicode="&#x131;" horiz-adv-x="569" 
d="M51 1045h370v-1045h-370v20h63q60 0 102 42t42 101v719q0 60 -42 101.5t-102 41.5h-63v20z" />
    <glyph glyph-name="Lslash" unicode="&#x141;" horiz-adv-x="1351" 
d="M439 20q102 0 196 14.5t156.5 35t131.5 43t122.5 38.5t128.5 21t149 -9l-56 -163q-80 30 -188.5 36.5t-201 -3t-222 -21.5t-216.5 -12h-369v20h63q60 0 101.5 42t41.5 101v662l-177 -103l-22 39l199 115v395q0 59 -41.5 101t-101.5 42h-63v20h369v-463l177 103l22 -39
l-199 -116v-899z" />
    <glyph glyph-name="lslash" unicode="&#x142;" horiz-adv-x="673" 
d="M601 892l22 -39l-194 -112v-741h-370v20h66q59 0 101 42t42 101v486l-184 -107l-25 39l209 119v571q0 59 -42 101t-101 42h-66v20h370v-642z" />
    <glyph glyph-name="Nacute" unicode="&#x143;" horiz-adv-x="1470" 
d="M1284 1434h21v-1434h-184q-19 112 -72 218.5t-122.5 194t-150.5 175t-161.5 178t-149.5 185.5t-119.5 214.5t-67.5 248.5v-1414h-20h-209v20h66q59 0 101 42t42 101v1108q0 59 -42 101t-101 42h-66v20h391q10 -90 54 -177t108.5 -163.5t142 -157t159 -174.5t154.5 -197.5
t134 -245t92 -299.5v143v377v731q0 59 -42 101t-102 42h-63v20h207zM832 1822l-222 -308h-87l134 308h175z" />
    <glyph glyph-name="nacute" unicode="&#x144;" horiz-adv-x="1413" 
d="M813 1045q90 0 173 -26.5t149.5 -76.5t106.5 -131t40 -182v-629h-369v20h65q59 0 101.5 42.5t42.5 100.5v447q0 58 -10 115.5t-33 114t-57 98t-86 64t-116 16.5q-59 -6 -105.5 -33.5t-77.5 -62t-61 -68t-70.5 -56.5t-91.5 -23v-775h-369v20h63q60 0 102 42t42 101v719
q0 60 -42 101.5t-102 41.5h-63v20h369v-109q48 0 90.5 17t72.5 37.5t91.5 37.5t144.5 17zM971 1434l-219 -309h-87l131 309h175z" />
    <glyph glyph-name="Ncaron" unicode="&#x147;" horiz-adv-x="1468" 
d="M1284 1434h19v-1434h-185q-19 112 -71 218.5t-121.5 194t-150.5 175t-161.5 178t-150 185.5t-120.5 214.5t-68 248.5v-1414h-19h-207v20h63q60 0 102 42t42 101v1108q0 59 -42 101t-102 42h-63v20h391q10 -90 54 -177t108.5 -163.5t142 -157t159 -174.5t154.5 -197.5
t134 -245t92 -299.5v143v377v731q0 58 -42.5 100.5t-101.5 42.5h-63v20h207zM749 1514h-146l-219 308h175l117 -274l117 274h175z" />
    <glyph glyph-name="ncaron" unicode="&#x148;" horiz-adv-x="1413" 
d="M813 1045q90 0 173 -26.5t149.5 -76.5t106.5 -131t40 -182v-629h-369v20h65q59 0 101.5 42.5t42.5 100.5v447q0 58 -9.5 115.5t-32.5 114t-57 98t-86.5 64t-116.5 16.5q-59 -6 -105.5 -33.5t-77.5 -62t-61 -68t-70.5 -56.5t-91.5 -23v-775h-369v20h66q58 0 99.5 42
t41.5 101v719q0 60 -41 101.5t-100 41.5h-66v20h369v-109q48 0 90.5 17t72.5 37.5t91.5 37.5t144.5 17zM852 1125h-146l-219 309h175l117 -275l117 275h175z" />
    <glyph glyph-name="Omacron" unicode="&#x14c;" horiz-adv-x="1654" 
d="M1472 1086q73 -125 88 -268t-23 -275t-129.5 -249t-222.5 -192q-174 -100 -370.5 -102.5t-365 90t-265.5 258.5q-73 125 -88.5 268t22.5 275t128.5 249t221.5 192q175 100 372 102.5t365.5 -90t266.5 -258.5zM1175 119q137 79 206.5 225.5t56.5 322.5t-107 339
q-71 121 -175.5 208.5t-218.5 129t-235 35.5t-224 -64q-136 -79 -205.5 -225.5t-57 -323t106.5 -338.5q71 -121 175.5 -208.5t218.5 -129t235 -35.5t224 64zM1139 1645h-625v44h625v-44z" />
    <glyph glyph-name="omacron" unicode="&#x14d;" horiz-adv-x="1316" 
d="M1158 804q54 -89 63 -193t-23 -200.5t-104 -183.5t-174 -144q-136 -76 -287 -82t-278.5 57.5t-197.5 182.5q-54 89 -62.5 193t23.5 200.5t104.5 183.5t174.5 144q135 76 285.5 82t278 -57.5t197.5 -182.5zM908 100q98 55 148 158t40.5 228t-77.5 241q-51 86 -126 148
t-157 91t-169 24.5t-160 -45.5q-98 -55 -147 -158t-39.5 -227t77.5 -239q51 -86 126 -148.5t156.5 -92t168 -25.5t159.5 45zM971 1256h-625v46h625v-46z" />
    <glyph glyph-name="Ohungarumlaut" unicode="&#x150;" 
d="M1473 1086q73 -125 88 -268t-23.5 -275t-129.5 -249t-222 -192q-175 -100 -371.5 -102.5t-365 90t-266.5 258.5q-73 125 -88 268t23 275t129.5 249t222.5 192q174 100 370.5 102.5t365.5 -90t267 -258.5zM1177 119q136 79 205.5 225.5t56.5 322.5t-107 339
q-71 121 -175.5 208.5t-218.5 129t-235 35.5t-224 -64q-136 -79 -205.5 -225.5t-56.5 -323t107 -338.5q71 -121 175.5 -208.5t218.5 -129t235 -35.5t224 64zM873 1514h-90l134 308h175zM870 1822l-218 -308h-88l131 308h175z" />
    <glyph glyph-name="ohungarumlaut" unicode="&#x151;" horiz-adv-x="1316" 
d="M1159 804q53 -90 61.5 -193.5t-23.5 -200t-104 -183.5t-174 -144q-136 -76 -286.5 -82t-277.5 57t-199 183q-53 90 -61.5 193.5t23.5 200t104 183.5t174 144q136 76 286.5 82t277.5 -57t199 -183zM909 100q149 84 181 267t-72 360q-51 86 -126 148t-157 91t-169 24.5
t-160 -45.5q-98 -55 -147.5 -158t-39.5 -227t78 -239q51 -86 126 -148.5t157 -92t169 -25.5t160 45zM702 1125h-87l131 309h175zM702 1434l-221 -309h-87l131 309h177z" />
    <glyph glyph-name="OE" unicode="&#x152;" horiz-adv-x="2545" 
d="M1601 20q103 0 197 14.5t157 35t132 43t122.5 38.5t128.5 21t149 -9l-55 -163q-80 30 -188.5 36.5t-201.5 -3t-223 -21.5t-218 -12h-367v20h63q59 0 101 42t42 101v176q-99 -148 -255 -237q-174 -100 -370.5 -102.5t-365 90t-265.5 258.5q-73 125 -88.5 268t22.5 275
t128.5 249t221.5 192q167 95 353.5 102t350 -72.5t268.5 -227.5v137q0 59 -42 101t-101 42h-63v20h367q88 0 218 -12t223 -21.5t201.5 -3t188.5 36.5l55 -163q-74 -14 -149 -9t-128.5 21t-122.5 38.5t-132 43t-157 35t-197 14.5v-525h262q59 0 101 42t42 102v182h20v-668
h-20v180q0 59 -42 101t-101 42h-262v-850zM1175 119q137 79 206.5 225.5t56.5 322.5t-107 339q-71 121 -175.5 208.5t-218.5 129t-235 35.5t-224 -64q-136 -79 -205.5 -225.5t-56.5 -323t107 -338.5q71 -121 175 -208.5t218 -129t235 -35.5t224 64z" />
    <glyph glyph-name="oe" unicode="&#x153;" horiz-adv-x="2205" 
d="M1981 90q115 62 141 114v-41q-48 -45 -129 -90q-144 -73 -304.5 -75t-298 65.5t-216.5 189.5q-20 32 -28 49q-83 -139 -227 -219q-136 -76 -286.5 -82t-277.5 57t-199 183q-53 90 -61.5 193.5t23.5 200t104 183.5t174 144q136 76 286.5 82t277.5 -57t199 -183
q11 -18 19 -35q85 129 229 203q99 50 182 66t144 4.5t112 -29.5t113 -34t120 -12l44 -160l-773 -479q51 -84 121.5 -148t152.5 -102t175.5 -36.5t182.5 48.5zM909 100q149 84 181 267t-72 360q-51 86 -126 148t-157 91t-169 24.5t-160 -45.5q-98 -55 -147.5 -158t-39.5 -227
t78 -239q51 -86 126 -148.5t157 -92t169 -25.5t160 45zM1444 957q-109 -65 -153.5 -171.5t-29 -219t77.5 -221.5l748 464q-31 6 -70.5 26.5t-77.5 45.5t-81.5 52.5t-90.5 46.5t-97.5 28t-108.5 -3.5t-117 -47.5z" />
    <glyph glyph-name="Racute" unicode="&#x154;" horiz-adv-x="1351" 
d="M680 853q106 -66 190 -154t132 -171.5t88.5 -171t65 -156.5t57 -124.5t68.5 -77.5h-161q-60 72 -95 148t-46 137.5t-18.5 123.5t-21 114.5t-44.5 102t-99.5 95.5t-175.5 85q-61 21 -74 68q-12 45 28 72q53 36 155 4l90 -29q67 -20 128.5 9.5t97.5 91t36 132.5
q0 108 -76.5 185t-185.5 77h-398v-1414h-370v20h63q60 0 102 42t42 101v1108q0 59 -42 101t-102 42h-63v20h911q116 0 199 -83t83 -199q0 -77 -38 -147.5t-104 -109.5t-140 -25l-257 44q-45 9 -54.5 -14t29.5 -47zM819 1822l-219 -308h-87l131 308h175z" />
    <glyph glyph-name="racute" unicode="&#x155;" horiz-adv-x="1040" 
d="M937 1047l56 -162q-39 0 -79.5 21.5t-73 47t-91.5 48t-130 24.5q-99 0 -151 -53.5t-54 -129.5v-843h-369v20h63q60 0 102 42t42 101v719q0 60 -42 101.5t-102 41.5h-63v20h369v-126q49 126 204 126q76 1 135.5 -8.5t92.5 -9.5t91 20zM672 1434l-219 -309h-87l131 309h175
z" />
    <glyph glyph-name="Rcaron" unicode="&#x158;" horiz-adv-x="1353" 
d="M681 853q92 -57 167 -130.5t123 -146t86.5 -147.5t65 -143t50.5 -125t51.5 -100.5t58.5 -62.5h-163q-60 72 -94.5 148t-45.5 137.5t-18.5 123.5t-21 114.5t-45 102t-100 95.5t-175.5 85q-61 21 -74 68q-12 45 28 72q54 36 158 4l89 -29q66 -20 127 9.5t97 91t36 132.5
q0 107 -76.5 184.5t-183.5 77.5h-400v-1414h-370v20h63q60 0 102 42t42 101v1108q0 59 -42 101t-102 42h-63v20h911q116 0 199 -83t83 -199q0 -77 -38 -147.5t-104 -109.5t-140 -25l-257 44q-44 9 -53 -14t29 -47zM739 1514h-143l-222 308h175l117 -274l119 274h175z" />
    <glyph glyph-name="rcaron" unicode="&#x159;" horiz-adv-x="1040" 
d="M937 1047l56 -162q-39 0 -79.5 21.5t-73 47t-91.5 48t-130 24.5q-99 0 -151 -53.5t-54 -129.5v-843h-369v20h63q60 0 102 42t42 101v719q0 60 -42 101.5t-102 41.5h-63v20h369v-126q49 126 204 126q76 1 135.5 -8.5t92.5 -9.5t91 20zM592 1125h-146l-219 309h175
l117 -275l116 275h175z" />
    <glyph glyph-name="Sacute" unicode="&#x15a;" horiz-adv-x="1359" 
d="M590 1412q-136 -4 -210 -58.5t-72 -140.5q1 -57 29.5 -112.5t76.5 -102.5t110.5 -95t131.5 -90t139 -88.5t133.5 -89t115 -92.5t82.5 -99t37 -108t-21 -120q-40 -92 -136 -152.5t-226 -65.5h-88q-101 4 -239.5 26t-231.5 35.5t-126 1.5l-42 155h3q74 0 171 -32t177 -69.5
t181.5 -68.5t184.5 -29q135 4 208.5 58t73.5 141q-1 57 -29.5 112.5t-76.5 102.5t-111 95t-131.5 90t-139 88.5t-133.5 89t-114.5 92.5t-83 99t-38 108t20.5 120q40 92 136.5 152.5t228.5 65.5h85q102 -4 241 -26t232 -35.5t127 -1.5l41 -155h-2q-74 0 -171 32t-177 69.5
t-182 68.5t-185 29zM833 1822l-218 -308h-90l133 308h175z" />
    <glyph glyph-name="sacute" unicode="&#x15b;" horiz-adv-x="1284" 
d="M314 887q0 -51 42 -99.5t109 -86.5t151 -78.5t167 -76t158 -79t125 -87t66 -100.5t-18 -120q-33 -64 -149 -112t-235 -48h-76q-90 3 -212.5 19t-204.5 25.5t-112 1.5q-1 4 -14.5 45t-25 78t-9.5 37q65 0 153 -29.5t161.5 -64.5t166 -63.5t166.5 -26.5q119 1 183 38
t64 100q-1 51 -43.5 99t-109.5 85t-150.5 77t-167 75t-158.5 78.5t-124 87.5t-65 102t19 123q33 63 147.5 110.5t233.5 47.5h78q89 -2 211.5 -18t204.5 -25.5t111 -0.5l54 -163q-58 0 -125.5 19.5t-130.5 47.5t-127 55.5t-134 47t-132 18.5q-120 -4 -185 -41t-63 -98z
M798 1434l-221 -309h-88l134 309h175z" />
    <glyph glyph-name="Scedilla" unicode="&#x15e;" horiz-adv-x="1357" 
d="M588 1412q-134 -4 -207.5 -58.5t-71.5 -140.5q1 -57 29.5 -112.5t76.5 -102.5t110.5 -95t131 -90t139 -88.5t133.5 -89t114.5 -92.5t82.5 -99t37 -108t-21 -120q-40 -92 -136 -152.5t-226 -65.5h-88q-57 3 -129 11l-16 -65l-3 -7q21 1 45.5 9t41.5 14t47.5 1.5
t69.5 -24.5q71 -36 96.5 -105t-15.5 -138q-42 -64 -125.5 -80.5t-149.5 19.5q-31 18 -44 29l-2 3v41l12 -22q8 -17 44 -34q31 -16 63.5 -15t60 18t51 42t35.5 57t14.5 62.5t-12.5 59.5t-45 48q-34 21 -68 15.5t-56 -21t-48.5 -31.5t-45.5 -14h-7l7 25l12 53l18 62
q-51 6 -117 16.5t-108.5 18t-95 14.5t-76 6.5t-51.5 -5.5l-44 155h5q74 0 171 -32t177 -69.5t181.5 -68.5t184.5 -29q134 4 208 58.5t74 140.5q-1 57 -29.5 112.5t-76.5 102.5t-111 95t-131.5 90t-139 88.5t-133.5 89t-114.5 92.5t-83 99t-38 108t20.5 120
q40 92 136.5 152.5t228.5 65.5h85q102 -4 241 -26t232 -35.5t127 -1.5l42 -155h-3q-74 0 -171.5 32t-177.5 69.5t-182 68.5t-186 29z" />
    <glyph glyph-name="scedilla" unicode="&#x15f;" horiz-adv-x="1284" 
d="M314 887q0 -51 42 -99.5t109 -86.5t151 -78.5t167 -75.5t158 -78.5t125 -87t66 -100.5t-18 -120q-33 -64 -148.5 -112.5t-235.5 -48.5h-76q-42 1 -126 9l-19 -65v-7q21 1 45 9t41 14t47.5 1.5t70.5 -24.5q72 -36 96 -105t-19 -138q-41 -64 -123.5 -80.5t-150.5 19.5
q-7 5 -22 14.5t-22 14.5v44l10 -22q9 -14 44 -34q32 -16 65 -15t60.5 18t51 42t36 57t15 62.5t-12.5 59.5t-45 48q-34 21 -68 15.5t-56 -21t-49 -31.5t-46 -14h-7l5 24l14 54l16 62q-50 5 -123 15t-110 15t-88.5 8.5t-58.5 -3.5q-1 4 -14.5 45t-25 78t-9.5 37
q65 0 153 -29.5t161.5 -64.5t166 -63.5t166.5 -26.5q119 1 183 38t64 100q-1 51 -43.5 99t-109.5 85t-150.5 77t-167 75t-158.5 78.5t-124 87.5t-65 102t19 123q33 64 148.5 111t235.5 47h75q89 -2 211.5 -18t204.5 -25.5t111 -0.5l54 -163q-58 0 -125.5 19.5t-130.5 47.5
t-127 55.5t-134 47t-132 18.5q-120 -4 -184 -41t-64 -98z" />
    <glyph glyph-name="Scaron" unicode="&#x160;" horiz-adv-x="1359" 
d="M590 1412q-135 -4 -208.5 -58t-73.5 -141q1 -57 29.5 -112.5t76.5 -102.5t110.5 -95t131.5 -90t139 -88.5t133.5 -89t115 -92.5t82.5 -99t37 -108t-21 -120q-38 -92 -134 -152.5t-228 -65.5h-85q-102 4 -241 26t-232 35.5t-127 1.5l-42 155h3q74 0 171 -32t177 -69.5
t181.5 -68.5t184.5 -29q136 4 210 58.5t72 140.5q-1 57 -29.5 112.5t-76.5 102.5t-110.5 95t-131.5 90t-139 88.5t-133.5 89t-115 92.5t-82.5 99t-37 108t21 120q40 91 136.5 152t226.5 66h87q101 -4 240 -26t232 -35.5t126 -1.5l41 -155h-2q-74 0 -171 32t-177 69.5
t-182 68.5t-185 29zM753 1514h-146l-218 308h175l116 -274l117 274h177z" />
    <glyph glyph-name="scaron" unicode="&#x161;" horiz-adv-x="1284" 
d="M314 887q0 -51 42 -99.5t109 -86.5t151 -78.5t167 -76t158 -79t125 -87t66 -100.5t-18 -120q-33 -64 -148.5 -112t-235.5 -48h-76q-90 3 -212.5 19t-204.5 25.5t-112 1.5q-1 4 -14.5 45t-25 78t-9.5 37q65 0 153 -29.5t161 -64.5t165.5 -63.5t166.5 -26.5q119 1 183.5 38
t64.5 100q-1 51 -43.5 99t-109.5 85t-150.5 77t-167 75t-158.5 78.5t-124 87.5t-65 102t19 123q33 63 147.5 110.5t233.5 47.5h78q89 -2 211.5 -18t204.5 -25.5t111 -0.5l54 -163q-58 0 -125.5 19.5t-130.5 47.5t-127 55.5t-134 47t-132 18.5q-120 -4 -185 -41t-63 -98z
M715 1125h-143l-221 309h175l116 -275l119 275h175z" />
    <glyph glyph-name="Umacron" unicode="&#x16a;" horiz-adv-x="1431" 
d="M1061 1434h228v-909q0 -79 -22 -146q-48 -166 -187 -272.5t-316 -106.5q-208 0 -362 146q-76 73 -119.5 171.5t-43.5 207.5v746q0 59 -41.5 101t-99.5 42h-65v20h369v-899q0 -32 0.5 -56t7.5 -82t19.5 -101.5t39.5 -98.5t64 -91t96.5 -61t134.5 -25q136 0 252 68
t183.5 184.5t67.5 252.5v746q0 59 -41.5 101t-101.5 42h-63v20zM1100 1645h-625v44h625v-44z" />
    <glyph glyph-name="umacron" unicode="&#x16b;" horiz-adv-x="1419" 
d="M900 1045h369v-1045h-21q-18 54 -57 78t-86.5 21t-107.5 -17.5t-114 -35t-112 -34.5t-97 -12q-86 6 -163 35t-138.5 79t-97.5 128.5t-36 175.5v464q0 60 -41.5 101.5t-101.5 41.5h-63v20h369v-607q0 -70 14 -137.5t43 -129t81.5 -101t121.5 -43.5q55 -2 115.5 12
t106 32.5t106.5 34.5t117 16v760q0 60 -42 101.5t-102 41.5h-63v20zM963 1256h-624v46h624v-46z" />
    <glyph glyph-name="Uring" unicode="&#x16e;" horiz-adv-x="1431" 
d="M1061 1434h228v-909q0 -79 -22 -146q-48 -166 -187 -272.5t-316 -106.5q-102 0 -195.5 38.5t-166.5 107.5q-76 72 -118 170.5t-42 208.5v746q0 58 -42.5 100.5t-101.5 42.5h-65v20h369v-899q0 -32 0.5 -56t7.5 -82t19.5 -101.5t39.5 -98.5t64 -91t96.5 -61t134.5 -25
q136 0 252 68t183.5 184.5t67.5 252.5v746q0 59 -41.5 101t-99.5 42h-65v20zM830 1536q-72 -34 -158 -19.5t-127 70.5q-42 59 -17.5 119.5t98.5 94.5q72 32 157.5 16.5t128.5 -70.5q43 -57 18.5 -118.5t-100.5 -92.5zM655 1762q-45 -21 -52.5 -64t20.5 -75q27 -37 77 -52.5
t101 4.5q45 19 52 61.5t-21 76.5q-27 35 -76.5 51t-100.5 -2z" />
    <glyph glyph-name="uring" unicode="&#x16f;" horiz-adv-x="1419" 
d="M900 1045h370v-1045h-22q-17 54 -56 78t-86.5 21t-107.5 -17.5t-114 -35t-112.5 -34.5t-97.5 -12q-86 6 -163 35t-138.5 79t-97.5 128.5t-36 175.5v464q0 60 -41.5 101.5t-101.5 41.5h-63v20h369v-607q0 -70 14 -137.5t43 -129t81.5 -101t121.5 -43.5q55 -2 116 12
t106.5 32.5t106.5 34.5t116 16v760q0 60 -41 101.5t-100 41.5h-66v20zM755 1147q-75 -33 -159.5 -18t-127.5 71t-18.5 118.5t100.5 93.5q72 33 157 17.5t128 -71.5q42 -57 18 -118.5t-98 -92.5zM580 1373q-47 -19 -53.5 -63t21.5 -76q28 -36 77 -51.5t98 3.5q47 19 54 62.5
t-22 75.5q-28 36 -75.5 52t-99.5 -3z" />
    <glyph glyph-name="Uhungarumlaut" unicode="&#x170;" horiz-adv-x="1431" 
d="M1058 1434h229v-909q0 -69 -20 -146q-48 -166 -188 -272.5t-317 -106.5q-102 0 -195.5 38.5t-166.5 107.5q-76 72 -118.5 170.5t-42.5 208.5v746q0 59 -42.5 101t-100.5 42h-63v20h367v-899q0 -32 0.5 -56t7.5 -82t19.5 -101.5t39.5 -98.5t64 -91t96.5 -61t134.5 -25
q136 0 252.5 68t184.5 184.5t68 252.5v746q0 59 -42.5 101t-100.5 42h-66v20zM886 1514h-88l131 308h178zM886 1822l-222 -308h-87l134 308h175z" />
    <glyph glyph-name="uhungarumlaut" unicode="&#x171;" horiz-adv-x="1417" 
d="M901 1045h367v-1045h-20q-18 54 -57 78t-86.5 21t-108 -17.5t-114.5 -35t-112.5 -34.5t-97.5 -12q-86 6 -162.5 35t-138 79t-97 128.5t-34.5 175.5v464q0 60 -42.5 101.5t-101.5 41.5h-65v20h369v-607q0 -70 14 -137.5t43 -129t81.5 -101t121.5 -43.5q55 -2 116 12
t106.5 32.5t107 34.5t117.5 16v760q0 60 -42 101.5t-101 41.5h-63v20zM782 1125h-88l131 309h175zM782 1434l-221 -309h-88l131 309h178z" />
    <glyph glyph-name="Uogonek" unicode="&#x172;" horiz-adv-x="1431" 
d="M1061 1434h226v-909q0 -69 -20 -146q-48 -166 -187 -272.5t-316 -106.5q-3 0 -7 0.5t-6 0.5q-87 -20 -112.5 -119.5t24.5 -180.5t147 -56q42 11 65 40.5t28 59.5t13.5 62.5t24.5 46.5l8 8l36 -66l-5 -5q-22 -19 -36.5 -45.5t-22.5 -45.5t-36 -41.5t-77 -39.5
q-56 -15 -107 -8t-91 43.5t-52 92.5q-17 79 28.5 152t122.5 104q-179 18 -307 143q-76 73 -119.5 171.5t-43.5 207.5v746q0 59 -41.5 101t-101.5 42h-63v20h369v-899v-41t3.5 -58t9 -73.5t18 -77t29.5 -80t45 -71t63 -61t85 -39t109 -15.5q2 0 4.5 0.5t3.5 0.5q6 2 9 2h5v-1
q98 4 187.5 46t153.5 109t102 158.5t38 190.5v746q0 59 -42.5 101t-100.5 42h-63v20z" />
    <glyph glyph-name="uogonek" unicode="&#x173;" horiz-adv-x="1417" 
d="M898 1045h369v-1045h-21q-9 26 -26 48q-52 -9 -135 -33t-107 -39q-49 -30 -63 -92.5t3.5 -120t65.5 -95.5t109 -23q41 11 63.5 40.5t27.5 60.5t14 64t26 47l5 5l39 -64l-5 -5q-23 -20 -38 -46.5t-23 -46t-35.5 -41.5t-76.5 -38q-83 -29 -159.5 7.5t-93.5 121.5
q-14 73 23.5 140t103.5 103q27 15 105 41.5t128 37.5q-33 26 -85 27t-110 -15t-115.5 -35.5t-117 -35t-99.5 -13.5q-86 6 -162.5 35t-137.5 79t-97 128.5t-36 175.5v464q0 60 -42 101.5t-101 41.5h-63v20h367v-607q0 -70 14.5 -137.5t44 -129t82 -101t121.5 -43.5
q55 -2 115 12t105.5 32.5t107 34.5t117.5 16v760q0 60 -42 101.5t-102 41.5h-63v20z" />
    <glyph glyph-name="Ydieresis" unicode="&#x178;" horiz-adv-x="1294" 
d="M1100 1434l168 -32q-54 -90 -117.5 -166t-114.5 -124t-123.5 -127.5t-137.5 -170.5v-814h-369v20h63q60 0 101.5 42t41.5 101v573l-367 515q-4 6 -25 35.5t-28.5 39t-28 32t-35.5 31t-38 17t-47 8.5h-29v20h331l415 -598h3q28 41 83.5 118t87.5 124.5t71 112.5t62 125
t33 118zM474 1560q-62 0 -106.5 38t-44.5 93t44.5 93t106.5 38q64 0 108.5 -38t44.5 -93t-44.5 -93t-108.5 -38zM809 1560q-64 0 -107.5 38t-43.5 93t43.5 93t107.5 38q62 0 106.5 -38t44.5 -93t-44.5 -93t-106.5 -38z" />
    <glyph glyph-name="Zacute" unicode="&#x179;" horiz-adv-x="1185" 
d="M266 20q118 1 225.5 22t174 46.5t148.5 49.5t149 32t175 -7l-56 -163q-80 30 -188.5 36.5t-201 -3t-222 -21.5t-216.5 -12h-178l141 236l12 22l562 940l128 216q-118 -1 -225.5 -22t-174 -46.5t-148.5 -49.5t-149 -32t-175 7l56 163q80 -30 189 -36.5t201.5 3t222 21.5
t216.5 12h177l-153 -258zM747 1822l-221 -308h-88l134 308h175z" />
    <glyph glyph-name="zacute" unicode="&#x17a;" horiz-adv-x="942" 
d="M871 1045q-154 -257 -323.5 -541t-288.5 -484q103 1 198 17t154 35.5t135.5 45.5t124.5 38v-120q-104 5 -316.5 -15.5t-307.5 -20.5h-177q141 236 306 513t306 512q-102 -1 -197.5 -17t-155 -35t-135 -44.5t-124.5 -36.5v116q102 -4 313.5 16.5t310.5 20.5h177zM624 1434
l-219 -309h-87l131 309h175z" />
    <glyph glyph-name="Zdot" unicode="&#x17b;" horiz-adv-x="1185" 
d="M266 20q118 1 225 22t174 46.5t149 49.5t149 32t175 -7l-56 -163q-80 30 -188.5 36.5t-201 -3t-222 -21.5t-216.5 -12h-178l141 236l12 22l562 940l128 216q-118 -1 -225.5 -22t-174 -46.5t-148.5 -49.5t-149 -32t-175 7l56 163q80 -30 189 -36.5t201.5 3t222 21.5
t216.5 12h177l-153 -258zM591 1560q-62 0 -106 38t-44 93t44 93t106 38q64 0 108.5 -38t44.5 -93t-44.5 -93t-108.5 -38z" />
    <glyph glyph-name="zdot" unicode="&#x17c;" horiz-adv-x="942" 
d="M871 1045q-154 -257 -323.5 -541t-288.5 -484q103 1 198 17t154 35.5t135.5 45.5t124.5 38v-120q-104 5 -316.5 -15.5t-307.5 -20.5h-177q141 236 306 513t306 512q-102 -1 -197.5 -17t-155 -35t-135 -44.5t-124.5 -36.5v116q102 -4 313.5 16.5t310.5 20.5h177zM471 1171
q-62 0 -106.5 38t-44.5 93t44.5 93.5t106.5 38.5t106 -38.5t44 -93.5t-44 -93t-106 -38z" />
    <glyph glyph-name="zcaron" unicode="&#x17e;" horiz-adv-x="940" 
d="M869 1045q-154 -257 -323.5 -541t-288.5 -484q103 1 198 17t154 35.5t135.5 45.5t124.5 38v-120q-104 5 -316.5 -15.5t-307.5 -20.5h-175q139 236 304.5 512.5t305.5 512.5q-132 -1 -240.5 -24t-214.5 -60.5t-155 -48.5v116q101 -4 312 16.5t310 20.5h177zM541 1125h-146
l-219 309h175l117 -275l117 275h175z" />
    <glyph glyph-name="circumflex" unicode="&#x2c6;" horiz-adv-x="837" 
d="M569 1400l165 -353h-124l-192 321l-189 -321h-127l168 353h299z" />
    <glyph glyph-name="caron" unicode="&#x2c7;" horiz-adv-x="833" 
d="M606 1400h126l-168 -353h-296l-168 353h127l189 -319z" />
    <glyph glyph-name="breve" unicode="&#x2d8;" horiz-adv-x="1038" 
d="M719 1400h214q-16 -163 -137 -258t-276 -95q-157 0 -278.5 95t-137.5 258h214q23 -333 202 -333q176 0 199 333z" />
    <glyph glyph-name="dotaccent" unicode="&#x2d9;" horiz-adv-x="512" 
d="M255 1309q62 0 106.5 -38t44.5 -93t-44.5 -93.5t-106.5 -38.5q-63 0 -107 38.5t-44 93.5t43.5 93t107.5 38z" />
    <glyph glyph-name="ogonek" unicode="&#x2db;" horiz-adv-x="30" 
d="M191 -158l36 -63l-2 -5q-23 -19 -38 -46t-23 -46.5t-35.5 -42t-76.5 -38.5q-83 -29 -159.5 7.5t-93.5 121.5q-17 83 34 159t134 104q34 9 58 9h3l31 -31l-26 7q-19 5 -61 -7q-51 -15 -78.5 -60t-24.5 -97t23 -100t63.5 -73.5t96.5 -12.5q42 10 65.5 39t28.5 59.5t14 63.5
t26 47z" />
    <glyph glyph-name="hungarumlaut" unicode="&#x2dd;" horiz-adv-x="776" 
d="M270 1400h168l-209 -353h-127zM508 1400h170l-211 -353h-124z" />
    <glyph glyph-name="Sigma" unicode="&#x3a3;" horiz-adv-x="892" 
d="M29 1434h819v-19h-428l270 -697l-270 -695h428v-22h-819v22h65q58 0 129 39.5t105 93.5l184 562l-182 563q-37 53 -108.5 93.5t-127.5 40.5h-65v19z" />
    <glyph glyph-name="endash" unicode="&#x2013;" horiz-adv-x="618" 
d="M560 1h-503v31h503v-31z" />
    <glyph glyph-name="emdash" unicode="&#x2014;" horiz-adv-x="819" 
d="M756 0h-695v32h695v-32z" />
    <glyph glyph-name="quoteleft" unicode="&#x2018;" horiz-adv-x="526" 
d="M261 1327q62 0 106.5 -39.5t44.5 -92.5q0 -55 -44.5 -94t-106.5 -39q-63 0 -106.5 39t-43.5 94q0 15 4 39q20 73 100 126.5t158 53.5l36 -66q-3 0 -35 0.5t-43.5 0t-39.5 -2.5t-43 -6.5t-33 -12.5t-29 -20q37 20 75 20z" />
    <glyph glyph-name="quoteright" unicode="&#x2019;" horiz-adv-x="524" 
d="M263 1414q62 0 106.5 -38t44.5 -93q0 -22 -7 -39q-20 -73 -99 -127.5t-156 -54.5l-39 65q3 0 35.5 -0.5t44 0t40 2.5t43.5 6.5t33.5 12.5t29.5 20q-35 -16 -76 -16q-62 0 -106 38t-44 93t44 93t106 38z" />
    <glyph glyph-name="quotesinglbase" unicode="&#x201a;" horiz-adv-x="514" 
d="M258 261q62 0 106 -38t44 -93q0 -22 -7 -39q-20 -73 -99 -127.5t-156 -54.5l-39 65q4 0 29.5 -0.5t36.5 0t34.5 1.5t37.5 4t32.5 7.5t32 12t23.5 17.5q-37 -17 -75 -17q-64 0 -109 38t-45 93t45 93t109 38z" />
    <glyph glyph-name="quotedblleft" unicode="&#x201c;" horiz-adv-x="860" 
d="M412 1348q-3 0 -35.5 0.5t-44 0t-40 -2.5t-43.5 -6.5t-33.5 -12.5t-29.5 -20q37 20 75 20q62 0 106.5 -39.5t44.5 -92.5q0 -55 -44.5 -94t-106.5 -39t-106 39t-44 94q0 22 7 39q20 73 98.5 126.5t156.5 53.5zM597 1327q62 0 106 -39.5t44 -92.5q0 -55 -44 -94t-106 -39
q-64 0 -109 39t-45 94q0 20 8 39q20 73 98.5 126.5t156.5 53.5l39 -66q-3 0 -35 0.5t-43.5 0t-39.5 -2.5t-43.5 -6.5t-34 -12.5t-30.5 -20q40 20 78 20z" />
    <glyph glyph-name="quotedblright" unicode="&#x201d;" horiz-adv-x="858" 
d="M599 1414q62 0 106 -38t44 -93q0 -22 -7 -39q-20 -73 -99 -127.5t-156 -54.5l-39 65q3 0 35 -0.5t43.5 0t39.5 2.5t43.5 6.5t34 12.5t30.5 20q-35 -16 -75 -16q-64 0 -107.5 38t-43.5 93t43.5 93t107.5 38zM263 1414q62 0 106.5 -38t44.5 -93q0 -22 -7 -39
q-20 -73 -99.5 -127.5t-156.5 -54.5l-38 65q3 0 35.5 -0.5t44 0t40 2.5t43.5 6.5t33.5 12.5t29.5 20q-35 -16 -76 -16q-62 0 -106 38t-44 93t44 93t106 38z" />
    <glyph glyph-name="quotedblbase" unicode="&#x201e;" horiz-adv-x="845" 
d="M258 262q62 0 106 -39.5t44 -94.5q0 -22 -7 -39q-20 -73 -98.5 -126.5t-156.5 -53.5l-39 66q6 0 30 -0.5t35.5 0t35 1.5t37.5 3.5t32.5 6.5t32 11t23.5 17q-37 -17 -75 -17q-64 0 -109 38t-45 93t45 94.5t109 39.5zM590 262q63 0 107 -39.5t44 -94.5q0 -9 -5 -39
q-20 -73 -99.5 -126.5t-157.5 -53.5l-37 66q6 0 30 -0.5t36 0t35 1.5t37 3.5t32 6.5t31 11t23 17q-37 -17 -76 -17q-62 0 -106 38t-44 93t44 94.5t106 39.5z" />
    <glyph glyph-name="dagger" unicode="&#x2020;" horiz-adv-x="1067" 
d="M549 1064h410v-32h-410v-1441h-32v1441h-411v32h411v352h32v-352z" />
    <glyph glyph-name="bullet" unicode="&#x2022;" horiz-adv-x="509" 
d="M253 266q63 0 107 -39.5t44 -94.5t-43.5 -93t-107.5 -38q-62 0 -106.5 38t-44.5 93t44.5 94.5t106.5 39.5z" />
    <glyph glyph-name="guilsinglleft" unicode="&#x2039;" horiz-adv-x="665" 
d="M536 1082l-236 -539l236 -542h-90l-321 542l321 539h90z" />
    <glyph glyph-name="guilsinglright" unicode="&#x203a;" horiz-adv-x="665" 
d="M219 1082l321 -539l-323 -542h-88l236 542l-236 539h90z" />
    <glyph glyph-name="Euro" unicode="&#x20ac;" horiz-adv-x="1654" 
d="M1350 120q101 56 170 160v-58q-72 -72 -160 -121q-175 -99 -371 -102t-364.5 89.5t-265.5 259.5q-68 112 -88 255h-148v20h146q-10 93 5 187h-151v22h155q30 152 125 284t240 216q173 99 377 102q56 0 117 -18t106.5 -39.5t106.5 -37t117 -11.5l53 -154q-65 0 -120.5 16
t-98.5 41t-83 51.5t-92.5 51.5t-108.5 37q-195 39 -362 -58q-125 -70 -194 -198.5t-71 -282.5h836v-22h-836q0 -87 27 -187h809v-19h-804q24 -85 75 -175q71 -122 175.5 -209.5t218.5 -129t235 -35.5t224 65z" />
    <glyph glyph-name="trademark" unicode="&#x2122;" horiz-adv-x="1652" 
d="M130 1297h-21v131h658v-131h-24v39q0 28 -19.5 48t-48.5 20h-190v-726h-202v21h39q27 0 46.5 20.5t19.5 47.5v637h-190q-28 0 -48 -19.5t-20 -48.5v-39zM1413 1428h100v-7v-743h-7h-197v4v17h7h34q27 0 46.5 21t19.5 48v585q-108 -473 -151 -671l-2 -4h-5h-100l3 7
q8 44 -6.5 102t-44 121t-62 126t-63.5 137.5t-45 135.5v-629h-8h-124v4v17h8h31q29 0 48.5 20t19.5 48v569q0 28 -19.5 48t-48.5 20h-39v7v17h8h206v-7q-2 -67 18.5 -138.5t53 -135.5t65.5 -127t61 -136t35 -141l153 678v7h5z" />
    <glyph glyph-name="radical" unicode="&#x221a;" horiz-adv-x="1050" 
d="M910 1434h19l-377 -1433h-21l-418 724l17 10l408 -707z" />
    <glyph glyph-name="notequal" unicode="&#x2260;" horiz-adv-x="937" 
d="M801 766h-311l-22 -99h333v-163h-372l-117 -503h-19l116 503h-272v163h309l24 99h-333v161h370l119 507h19l-117 -507h273v-161z" />
    <glyph glyph-name="lessequal" unicode="&#x2264;" horiz-adv-x="964" 
d="M159 1v163h664v-163h-664zM823 1019l-416 -238l-111 -66l111 -63l416 -240v-188l-688 399v187l688 396v-187z" />
    <glyph glyph-name="greaterequal" unicode="&#x2265;" horiz-adv-x="964" 
d="M141 1v163h664v-163h-664zM141 1206l688 -396v-187l-688 -399v187l416 241l112 63l-112 66l-416 238v187z" />
    <glyph glyph-name="E.alt1" unicode="&#xf002;" horiz-adv-x="1419" 
d="M1176 120q104 61 170 160v-58q-75 -71 -160 -119q-175 -100 -371.5 -103t-365.5 89t-267 259q-73 125 -88 268t23.5 275t129.5 249t222 192q179 102 377 102q56 0 117 -18.5t106.5 -40t106.5 -37t117 -11.5l53 -153q-65 0 -120.5 16.5t-98 41.5t-83 51.5t-92.5 51.5
t-109 36q-194 38 -364 -56q-111 -65 -178 -176.5t-82 -248.5h500q60 0 102 41.5t42 101.5v183h19v-669h-19v178q0 60 -42 101.5t-102 41.5h-502q-16 -231 106 -440q71 -121 175.5 -209t218.5 -129t235 -34.5t224 64.5z" />
    <glyph glyph-name="V.alt1" unicode="&#xf004;" horiz-adv-x="1353" 
d="M867 206l46 -104l-133 -102l-518 1215l-14 36q-20 45 -41.5 77t-38.5 48t-39 24.5t-35 10t-33 1.5h-47v22h331l95 -219l85 -199q42 -90 88 -136.5t86 -46.5q41 1 67.5 34.5t40.5 87t25.5 117t28 127.5t41.5 116.5t73 85.5t116 33q65 0 108.5 -24t62 -62t22.5 -90.5
t-4.5 -105.5t-25.5 -111t-34.5 -102.5t-36.5 -83.5zM857 233l314 642q22 46 38.5 98t23 113t-3 109.5t-48.5 83t-105 38.5q-54 3 -91 -21.5t-57 -67t-34 -95.5t-26.5 -107.5t-29.5 -101t-49.5 -78.5t-79.5 -37q-59 -8 -119 49z" />
    <glyph glyph-name="W.alt1" unicode="&#xf005;" horiz-adv-x="1939" 
d="M1453 206l44 -104l-132 -102l-281 656l-219 -449h2l44 -105l-134 -102l-517 1215l-15 36q-20 45 -41.5 77t-38.5 48t-39 24.5t-35 10t-33 1.5h-44v22h328l95 -219q405 -950 418 -982l219 450l-226 532l-17 36q-19 45 -40.5 77t-38.5 48t-39.5 24.5t-35.5 10t-33 1.5h-44
v22h330l93 -219l85 -199q45 -90 90.5 -136.5t84.5 -46.5q41 1 67.5 34.5t40.5 87t25.5 117t28 127.5t42 116.5t73.5 85.5t116 33q75 0 121.5 -31t60 -83.5t12 -113.5t-21 -129t-39.5 -121.5t-43 -100.5zM1441 233l313 642q22 46 38.5 98t23 113t-3 109.5t-48.5 83t-105 38.5
q-54 3 -91 -21.5t-57 -67t-34 -95.5t-26.5 -107.5t-29.5 -101t-49.5 -78.5t-79.5 -37q-56 -7 -116 49z" />
    <glyph glyph-name="O.alt1" unicode="&#xf006;" 
d="M1473 1085q72 -125 87.5 -267.5t-23 -273.5t-129.5 -248t-222 -192q-175 -100 -371 -103t-365.5 89t-267.5 259q-72 125 -87 268t23.5 275t129 249t221.5 192q176 100 372 102.5t365 -90.5t267 -260zM1176 121q136 79 205.5 225.5t56.5 322.5t-107 337q-26 44 -68.5 82
t-81 61t-83 64t-73.5 91q-35 61 -102 87t-145.5 19t-155 -31.5t-143.5 -61.5q-136 -79 -205.5 -225.5t-57 -323t106.5 -338.5q33 -56 93 -108t121.5 -100t91.5 -89q42 -59 110.5 -84.5t145 -19t150.5 30t141 61.5z" />
    <glyph glyph-name="Q.alt1" unicode="&#xf007;" horiz-adv-x="1654" 
d="M1146 80q43 -104 139 -179q109 -85 279 -129v-163q-214 52 -336 172t-148 269q-134 -51 -274 -51q-191 0 -359 91.5t-263 256.5q-73 125 -88.5 268t22.5 275t128.5 249t221.5 192q176 100 372.5 102.5t365.5 -90.5t266 -260q72 -125 87.5 -267.5t-23 -273.5t-129.5 -248
t-222 -192q-6 -4 -19.5 -11t-19.5 -11zM1076 73q-9 80 11 156t65 135.5t117.5 96.5t160.5 39q21 124 -3 254t-96 249q-26 44 -68.5 82t-80.5 61.5t-82.5 64.5t-72.5 91q-35 61 -103 87t-146.5 19t-155.5 -31.5t-142 -61.5q-137 -79 -207 -226t-57 -323.5t107 -338.5
q26 -44 70 -87t84 -72t84 -66.5t68 -70.5q75 -104 229 -104q105 0 218 46zM1426 481q-82 -1 -148.5 -34.5t-102.5 -87t-48.5 -121.5t12.5 -139q6 4 18.5 10t18.5 10q198 116 250 362z" />
    <glyph glyph-name="R.alt1" unicode="&#xf00b;" horiz-adv-x="1525" 
d="M708 840q110 -33 202 -89.5t155.5 -123t118.5 -144t99.5 -154.5t88.5 -151.5t94.5 -138.5t110 -112.5t142.5 -76.5t184 -28l-146 -68q-104 37 -188 79t-141 80.5t-102.5 87t-72 86.5t-48.5 90.5t-32.5 87t-24.5 88.5q-10 40 -16 60.5t-18.5 57t-23.5 57.5t-31 53
t-42 52.5t-54.5 47t-70.5 45.5t-88 39t-109 36q-69 19 -82 64q-11 39 26 62q46 28 124 3l56 -17q99 -32 179.5 44t80.5 189q0 107 -76.5 183.5t-183.5 76.5h-401v-1411h-369v19h63q60 0 102 42.5t42 101.5v1108q0 58 -42 99t-102 41h-63v22h911q116 0 199 -82.5t83 -199.5
q0 -77 -38 -147.5t-104 -110t-140 -26.5l-206 39q-83 14 -117 -6q-27 -15 16 -36q20 -10 55 -19z" />
    <glyph glyph-name="LE.dlig" unicode="&#xf00c;" horiz-adv-x="1982" 
d="M421 19q144 0 370.5 30t408.5 62t387.5 51.5t307.5 -2.5l-55 -160q-80 29 -282.5 35.5t-402 -3t-427 -21t-307.5 -11.5h-370v19h63q60 0 102 42.5t42 101.5v1110q0 59 -42 100t-102 41h-63v22h370v-1417zM1009 318q103 0 197 14.5t157 35t132 43.5t122.5 39t128.5 21
t149 -9l-55 -163q-81 30 -189.5 36.5t-201.5 -3t-222.5 -21.5t-217.5 -12h-367v19h63q58 0 100.5 42.5t42.5 101.5v809q0 60 -42 101.5t-101 41.5h-63v22h366q88 0 217.5 -12t222.5 -21.5t201.5 -3t189.5 36.5l56 -163q-74 -15 -149 -10t-128.5 20.5t-122.5 38t-132 43
t-157 35t-197 14.5v-522h262q59 0 101 41.5t42 99.5v182h20v-666h-20v177q0 60 -42 102t-101 42h-262v-552z" />
    <glyph glyph-name="LA.dlig" unicode="&#xf00d;" horiz-adv-x="1708" 
d="M770 151h-153l450 1054l-20 46q-19 45 -40.5 77t-38.5 48t-39.5 24.5t-35.5 10t-33 1.5h-43v22h330l165 -389l338 -797h-340v22h48q58 0 72 25t-6 74l-24 56h-561q-33 -160 -69 -274zM1079 1179q-100 -216 -149.5 -382t-86.5 -352h547l-41 99l-10 22l-58 136l-146 343z
M421 19q120 0 266 20t262.5 46t252.5 50.5t236 32.5t212 -8l-56 -160q-80 29 -242.5 35.5t-316 -3t-340 -21t-270.5 -11.5h-374v19h63q60 0 102 42.5t42 101.5v1108q0 59 -42 100t-102 41h-63v22h370v-1415z" />
    <glyph glyph-name="LO.dlig" unicode="&#xf00e;" horiz-adv-x="2224" 
d="M421 19q116 4 297 29t344 53t365 53t360.5 29t329.5 -20l-56 -163q-169 46 -415 55.5t-448.5 -5t-438 -32.5t-338.5 -18h-370v19h63q60 0 102 42.5t42 101.5v1110q0 59 -42 100t-102 41h-63v22h370v-1417zM1738 323q-176 -83 -372.5 -84.5t-365 75.5t-266.5 216
q-73 105 -88 224t23 229t129.5 207.5t222.5 160.5q175 83 371 85t365 -75t267 -217q73 -105 88 -224t-23.5 -229t-129 -207.5t-221.5 -160.5zM1030 1334q-102 -48 -167.5 -131.5t-86.5 -182t3.5 -210t95.5 -212.5q71 -102 175.5 -175.5t218.5 -108t235 -29t224 54.5
q102 48 167.5 131.5t86.5 182t-3.5 210t-95.5 212.5q-71 102 -175.5 175.5t-218.5 108t-235 29t-224 -54.5z" />
    <glyph glyph-name="LI.dlig" unicode="&#xf00f;" horiz-adv-x="1171" 
d="M1011 1436v-1103h-369v19h65q58 0 99.5 42.5t41.5 101.5v777q0 59 -41 100t-100 41h-65v22h369zM421 19q62 -6 144.5 13.5t152 47.5t156.5 53t154 27l-56 -160q-75 20 -143.5 20t-184 -10t-223.5 -10h-370v19h63q60 0 102 42.5t42 101.5v1110q0 59 -42 100t-102 41h-63
v22h370v-1417z" />
    <glyph glyph-name="LU.dlig" unicode="&#xf010;" horiz-adv-x="2029" 
d="M848 1271q0 60 -42 101.5t-101 41.5h-63v22h367v-569q0 -32 0.5 -56t7.5 -82t19.5 -101.5t39.5 -98.5t64 -91t96.5 -61t134.5 -25q136 0 252.5 67.5t184.5 183.5t68 252v416q0 60 -42 101.5t-101 41.5h-66v22h229v-581q0 -66 -20 -143q-50 -166 -189.5 -272.5
t-315.5 -106.5q-102 0 -195.5 38.5t-166.5 107.5q-76 72 -118.5 169.5t-42.5 206.5v416zM421 19q144 0 370.5 30t408.5 62t387.5 51.5t307.5 -2.5l-55 -160q-80 29 -282.5 35.5t-402 -3t-427 -21t-307.5 -11.5h-370v19h63q60 0 102 42.5t42 101.5v1110q0 59 -42 100t-102 41
h-63v22h370v-1417z" />
    <glyph glyph-name="OO.dlig" unicode="&#xf011;" horiz-adv-x="2340" 
d="M2158 1085q73 -125 88 -268t-23.5 -274.5t-129 -248t-221.5 -190.5q-167 -95 -355.5 -102.5t-344.5 70.5q-3 1 -10.5 5t-11.5 5q-15 7 -24 14q-9 2 -22 12q-145 88 -236 241q-131 231 -77.5 489t262.5 425q3 -2 11 -7t11 -8q-153 -140 -172.5 -369.5t106.5 -449.5
q83 -146 221 -248q4 -1 9.5 -4.5t7.5 -4.5q4 -2 11.5 -7t10.5 -8t9.5 -6.5t9.5 -5.5q139 -82 289.5 -89.5t284.5 65.5q136 78 205.5 224t56.5 322t-107 338q-64 111 -157.5 194.5t-196.5 127t-213.5 52.5t-209.5 -29q-5 2 -13.5 6t-13.5 6q128 59 267 69t265 -26.5t235 -119
t178 -200.5zM324 429q52 -89 122 -160.5t150.5 -118.5t166 -72t172.5 -23t166 32q13 -7 25 -15q-128 -59 -266.5 -69t-264 26.5t-234.5 119t-178 200.5q-73 125 -88 268t23 275t129.5 249t222.5 192q165 95 353 101t346 -72q3 -1 11 -4.5t11 -4.5q14 -10 25 -13q3 -3 10 -7
t11 -7q145 -88 236 -241q87 -149 92.5 -320t-68 -326.5t-211.5 -266.5q-4 3 -11.5 7t-10.5 7q153 140 173.5 369.5t-105.5 449.5q-84 147 -223 248l-17 12q-3 3 -10 6.5t-10 5.5q-4 2 -10 5.5t-9 6.5q-139 82 -289.5 90t-284.5 -65q-136 -78 -205.5 -224t-56.5 -322.5
t107 -338.5z" />
    <glyph glyph-name="TT.dlig" unicode="&#xf012;" horiz-adv-x="1812" 
d="M37 1433h1737v-228h-19v63q0 60 -42 101.5t-101 41.5h-384v-1411h-370v19h66q59 0 101 41.5t42 101.5v1249h-323v-1412h-367v20h63q59 0 101.5 41.5t42.5 101.5v1249h-384q-59 0 -101.5 -41.5t-42.5 -101.5v-63h-19v228z" />
    <glyph glyph-name="GH.dlig" unicode="&#xf013;" horiz-adv-x="2899" 
d="M470 1332q173 99 376 102q56 0 117.5 -18.5t106.5 -40t105.5 -37t115.5 -11.5l53 -153q-64 0 -119.5 16t-98.5 41t-83 51.5t-93 51.5t-109 37q-193 39 -362 -58q-136 -78 -205.5 -224t-56.5 -322.5t107 -338.5q71 -122 175.5 -209.5t218.5 -129t235 -35t224 65.5l7 4v744
h-262q-59 0 -101.5 -41.5t-42.5 -101.5v-175h-19v663h19v-182q0 -58 42 -99.5t101 -41.5h766v379q0 60 -42 101.5t-101 41.5h-64v22h367v-544h724v379q0 60 -41 101.5t-100 41.5h-65v22h369v-1433h-369v19h65q59 0 100 41.5t41 101.5v705h-724v-868h-367v20h64
q59 0 101 41.5t42 101.5v705h-343v-646q-66 -66 -158 -120q-176 -100 -372 -103t-364.5 89.5t-266.5 259.5q-73 125 -88 268t23 275t129.5 249t222.5 192z" />
    <glyph glyph-name="CH.dlig" unicode="&#xf014;" horiz-adv-x="2856" 
d="M727 725v-399h-19v889h19v-182q0 -60 42 -101.5t101 -41.5h776v379q0 60 -42.5 101.5t-101.5 41.5h-65v22h369v-544h724v379q0 60 -41.5 101.5t-101.5 41.5h-63v22h369v-1433h-369v19h63q60 0 101.5 41.5t41.5 101.5v705h-724v-867h-369v19h65q59 0 101.5 41.5
t42.5 101.5v705h-776q-59 0 -101 -41.5t-42 -101.5zM470 1332q173 99 376 102q56 0 117.5 -18.5t106.5 -40t105.5 -37t115.5 -11.5l53 -153q-78 0 -146.5 25t-112 56.5t-109.5 66.5t-135 49q-193 39 -362 -58q-136 -78 -205.5 -224t-56.5 -322.5t107 -338.5
q71 -122 175.5 -209.5t218.5 -129t235 -35t224 65.5q105 60 167 160v-58q-77 -77 -158 -122q-175 -99 -371 -101.5t-365 90t-267 259.5q-73 125 -88 268t23 275t129.5 249t222.5 192z" />
    <glyph glyph-name="UN.dlig" unicode="&#xf016;" horiz-adv-x="2480" 
d="M1287 1414v-889q0 -69 -20 -146q-48 -164 -187.5 -271.5t-315.5 -107.5q-104 0 -198 39t-164 109q-77 73 -120 170.5t-43 206.5v746q0 60 -41.5 101.5t-101.5 41.5h-63v22h369v-899v-41t3.5 -57.5t9 -73.5t18 -77.5t29.5 -79.5t45 -70.5t63 -61t85 -39t109 -15.5
q136 0 252 67.5t183.5 183.5t67.5 252v746q0 60 -41.5 101.5t-101.5 41.5h-63v22h391q10 -90 54 -177t108.5 -163.5t141.5 -157t158.5 -174.5t154.5 -197.5t134 -245t92 -299.5v1249q0 60 -42 101.5t-101 41.5h-63v22h226v-1436h-185q-19 112 -71 219t-121.5 195
t-150.5 175.5t-161.5 178t-150 185t-120.5 213.5t-68 248z" />
    <glyph glyph-name="UM.dlig" unicode="&#xf017;" horiz-adv-x="2568" 
d="M402 1436v-899q0 -32 0.5 -56t7.5 -82t19.5 -101.5t39.5 -98.5t64 -91t96.5 -61t134.5 -25q136 0 252 67.5t183.5 183.5t67.5 252v746q0 60 -41 101.5t-100 41.5h-65v22h391q-3 -102 20.5 -208t63.5 -200.5t89.5 -191t99 -194t91 -194.5t67.5 -207.5t26 -218.5l318 1414
h177v-1436h-369v22h66q59 0 101 41.5t42 101.5v1249l-321 -1414h-177q14 76 -3.5 167.5t-57 185t-90.5 194t-104.5 208t-98.5 213t-74 223t-29 223.5v-889q0 -79 -22 -146q-48 -164 -187.5 -271.5t-315.5 -107.5q-209 0 -362 148q-76 72 -118 169.5t-42 207.5v746
q0 60 -42.5 101.5t-101.5 41.5h-65v22h369z" />
    <glyph glyph-name="E.alt2" unicode="&#xf018;" horiz-adv-x="1316" 
d="M402 888l260 1q60 0 101.5 41.5t41.5 101.5v182h22v-668h-22v180q0 59 -41.5 101t-101.5 42h-260v-848q121 0 230 20t177 45.5t151 50t151 32.5t178 -7l-58 -163q-80 30 -188.5 36t-201 -3t-222 -21t-217.5 -12h-369v20h63q60 0 101.5 42t41.5 101v727q0 149 107.5 317
t245.5 246q120 68 267 108t283.5 53.5t265 21t247.5 23.5t193 49l27 -77l26 -76q-89 -13 -206 -13t-220 7t-224 9t-226 -4.5t-218 -36t-206 -83.5q-54 -31 -95 -95.5t-62.5 -143.5t-31.5 -155.5t-10 -150.5z" />
    <glyph glyph-name="F.alt1" unicode="&#xf019;" horiz-adv-x="929" 
d="M400 888l262 1q59 0 101 41.5t42 101.5v182h20v-668h-20v180q0 58 -42.5 100.5t-100.5 42.5h-262v-870h-367v20h63q58 0 100.5 42.5t42.5 100.5v727q0 148 107 316.5t243 246.5q120 68 267 108t283.5 53.5t265 21t247.5 23.5t193 49l30 -77l24 -76q-89 -13 -205.5 -13
t-219.5 7t-224.5 9t-226.5 -4.5t-217 -36t-205 -83.5q-71 -41 -119 -140.5t-65 -201t-17 -203.5z" />
    <glyph glyph-name="V.alt2" unicode="&#xf01a;" horiz-adv-x="1458" 
d="M2702 1630l24 -76q-135 -20 -251.5 -16t-220 14.5t-193 26.5t-171.5 21t-154.5 -2t-142.5 -43t-135.5 -102t-133.5 -179t-136 -274l-331 -772l64 -149l-37 -80h-104l-447 1045l-88 211q-24 54 -49.5 88.5t-51.5 48.5t-43.5 17.5t-42.5 3.5h-44v20h331l165 -389l335 -790
q55 118 96 223.5t69 207t41.5 161.5t34.5 162q28 132 80 235t118.5 168.5t150.5 112.5t173 69.5t188.5 36t194.5 14.5t194 3.5t183.5 4.5t165.5 16t139 39z" />
    <glyph glyph-name="W.alt2" unicode="&#xf01b;" horiz-adv-x="2043" 
d="M3287 1630l25 -76q-135 -20 -251.5 -16t-220 14.5t-193 26.5t-171.5 21t-154.5 -2t-142.5 -43t-135.5 -102t-133.5 -179t-136 -274l-331 -772l63 -149l-36 -80h-105l-447 1045l-90 211q-23 54 -48 88.5t-51 48.5t-43 17.5t-42 3.5h-44v20h331l165 -389l335 -790
q55 118 96 223.5t69 207t41.5 161.5t34.5 162q31 146 90.5 256t139 177t174 110.5t201 62t213 26t217 8t207 2.5t188.5 15.5t156 41.5zM342 1433l503 -1179q129 278 190 520l26 -65l-204 -481l64 -149l-37 -80h-107l-534 1256q-19 44 -40 75t-38.5 47t-39 24.5t-34.5 10
t-33 1.5h-44v20h328z" />
    <glyph glyph-name="Y.alt1" unicode="&#xf01c;" horiz-adv-x="1271" 
d="M2561 1627l24 -75q-114 -16 -231 -16t-209 11t-186.5 23t-170 23t-153 9.5t-142 -17.5t-130 -58.5t-124.5 -112.5q-266 -322 -464 -601v-814h-369v20h63q60 0 101.5 42t41.5 101v574l-367 515q-4 6 -21 30t-24.5 33t-23.5 28.5t-28 28t-29.5 20t-36 16t-39.5 4.5h-29v22
h331l415 -598q78 114 147.5 247.5t117 219t97.5 131.5q87 81 210 129.5t247 63t265.5 20t261 4t236.5 12t190 45.5z" />
    <glyph glyph-name="O.alt2" unicode="&#xf01f;" 
d="M1473 1084q73 -124 88 -267t-23.5 -274.5t-129.5 -248.5t-222 -191q-176 -100 -372 -103t-364.5 89t-266.5 259q-73 125 -88 268t23 275t129.5 249t222.5 192q175 100 371 102.5t365 -90.5t267 -260zM1177 120q136 79 205.5 225t56.5 322t-107 337q-71 122 -175.5 209.5
t-218.5 129.5t-235 36t-224 -64q-136 -79 -205.5 -225.5t-56.5 -323t107 -338.5q71 -121 175.5 -209t218.5 -129t235 -34.5t224 64.5zM982 725h80v-22h-80q-60 0 -101.5 -42t-41.5 -102v-175h-22v175q0 60 -41.5 102t-101.5 42h-81v22h81q60 0 101.5 41t41.5 100v182h22
v-183q0 -59 41.5 -99.5t101.5 -40.5z" />
    <glyph glyph-name="O.alt3" unicode="&#xf020;" 
d="M1473 1084q73 -124 88 -267t-23.5 -274.5t-129.5 -248.5t-222 -191q-175 -100 -371 -103t-365 89t-267 259q-73 125 -88 268t23 275t129.5 249t222.5 192q175 100 371 102.5t365 -90.5t267 -260zM1177 120q136 79 205.5 225t56.5 322t-107 337q-21 37 -52.5 67.5t-64 53
t-65.5 46t-66.5 57t-57.5 75.5q-35 61 -102 87t-145.5 18.5t-156 -31.5t-143.5 -62q-136 -79 -205.5 -225.5t-56.5 -323t107 -338.5q26 -44 70 -87t83 -72t83 -66.5t68 -70.5q43 -59 111.5 -84.5t145.5 -19t151 30t141 61.5zM992 725h80v-22h-80q-60 0 -101.5 -42
t-41.5 -102v-175h-22v175q0 60 -41 102t-100 42h-83v22h83q58 0 99.5 41.5t41.5 99.5v182h22v-183q0 -59 41.5 -99.5t101.5 -40.5z" />
    <glyph glyph-name="Q.alt2" unicode="&#xf021;" 
d="M1226 -228q54 -30 120 -34.5t132 5.5t135 19.5t151.5 1.5t159.5 -43l-110 -122q-78 63 -150 88t-130.5 21t-113 -12.5t-119.5 -2t-128 41.5q-36 21 -73 55t-60 62.5t-60 76.5t-56 71q-222 -36 -425.5 55t-314.5 283q-73 125 -88.5 268t22.5 275t128.5 249t221.5 192
q176 100 372.5 102.5t365.5 -90.5t266 -260q73 -124 88.5 -267t-22.5 -275t-128.5 -249t-221.5 -191q-104 -60 -223 -85q11 -11 47.5 -50t52.5 -55t46.5 -44.5t57.5 -48.5t57 -37zM480 1305q-137 -79 -207 -225.5t-56.5 -323t108.5 -338.5q49 -84 117 -155
q166 -10 278.5 -66.5t208.5 -151.5q136 2 246 64q137 79 207 225.5t57 322.5t-108 337q-71 122 -175.5 209.5t-218.5 129.5t-234.5 36t-222.5 -64zM498 210q177 -151 386 -165q-3 3 -8.5 9t-8.5 9q-73 69 -176.5 110t-192.5 37z" />
    <glyph glyph-name="Q.alt3" unicode="&#xf022;" 
d="M1226 -228q54 -30 120 -34.5t132 5.5t135 19.5t151.5 1.5t159.5 -43l-110 -122q-78 63 -150 88t-130.5 21t-113 -12.5t-119.5 -2t-128 41.5q-36 21 -73 55t-60 62.5t-60 76.5t-56 71q-222 -36 -425 55t-315 283q-73 125 -88.5 268t22.5 275t128.5 249t221.5 192
q176 100 372.5 102.5t365.5 -90.5t266 -260q73 -124 88.5 -267t-22.5 -275t-129 -249t-222 -191q-104 -60 -222 -85q11 -11 47.5 -50t52.5 -55t46.5 -44.5t57.5 -48.5t57 -37zM480 1305q-137 -79 -207 -225.5t-56.5 -323t108.5 -338.5q41 -73 150 -158q111 -10 204 -47.5
t149.5 -80t119.5 -106.5q118 20 227 83q137 79 207 225.5t57 322.5t-108 337q-21 37 -52 67.5t-63.5 53t-65.5 46t-66.5 57t-56.5 75.5q-36 61 -104 87t-146 18.5t-155 -32t-142 -61.5zM629 121q87 -120 279 -101q-13 15 -41 43q-65 61 -155 101t-173 46q61 -50 90 -89z" />
    <glyph glyph-name="o.alt1" unicode="&#xf024;" horiz-adv-x="1314" 
d="M1158 804q54 -89 62.5 -193t-23.5 -201t-104.5 -184t-174.5 -144q-136 -77 -286.5 -82.5t-277.5 59t-197 184.5q-54 89 -63 193t23.5 201t104.5 184t174 144q136 77 286.5 82t278 -59t197.5 -184zM908 100q149 86 181.5 268.5t-71.5 357.5q-51 86 -126 148t-156.5 91.5
t-168 25t-159.5 -45.5q-98 -55 -148 -158t-41 -227.5t77 -238.5q104 -175 283.5 -240t328.5 19zM758 527h53v-12h-53q-38 0 -65.5 -28.5t-27.5 -66.5v-114h-14v114q0 39 -28 67t-67 28h-51v12h51q40 0 67.5 27.5t27.5 67.5v119h14v-119q0 -40 27.5 -67.5t65.5 -27.5z" />
    <glyph glyph-name="Co.dlig" unicode="&#xf025;" horiz-adv-x="2334" 
d="M1190 225q-53 90 -61.5 194.5t23.5 201.5t104 184t174 144q208 116 430.5 68.5t332.5 -229.5q53 -90 61.5 -193.5t-23.5 -200t-104 -183.5t-174 -144q-136 -76 -287 -82t-278.5 57.5t-197.5 182.5zM2052 711q-51 86 -126 148t-157 91t-169 24.5t-160 -45.5
q-98 -55 -147.5 -158t-39.5 -227t78 -239q51 -86 126 -148.5t156.5 -92t168 -25.5t159.5 45q99 55 149 159t40 228.5t-78 239.5zM1367 -308q47 25 111 64.5t106.5 63.5t98 49t117 36t133.5 9q190 -3 323 -129l-114 -114q-48 178 -182 213q-51 10 -92 10t-88.5 -14t-85 -31
t-82.5 -43t-80.5 -48t-79 -47t-78.5 -40q-181 -81 -371 -81q-185 0 -353 72.5t-289 194.5t-193 291t-72 354q0 186 72 355t193.5 291.5t289 194.5t352.5 72h97q46 0 94 -12t88.5 -29t81.5 -33.5t87.5 -26t92.5 -6.5l54 -153q-66 0 -125 19.5t-96 44t-90 60t-93 54.5
q-212 88 -422 31q-117 -32 -215 -105t-164 -175t-105.5 -228.5t-38.5 -263.5t37 -282q31 -117 86.5 -222t127 -186.5t158.5 -144.5t181.5 -96t194.5 -41t199 21q76 20 134 51zM1683 404q0 39 -27 67t-65 28h-54v12h54q38 0 65 27.5t27 67.5v119h14v-119q0 -40 27.5 -67.5
t67.5 -27.5h51v-12h-51q-39 0 -67 -28t-28 -67v-114h-14v114z" />
    <glyph glyph-name="E.alt3" unicode="&#xf028;" horiz-adv-x="1339" 
d="M49 1434h1198v-229h-19v66q0 59 -42 100t-102 41h-665v-523q16 34 39.5 55.5t46.5 32.5t57.5 11t59 -3t67 -17t66 -23t70 -28.5t65.5 -27.5q8 -3 26.5 -10.5t26.5 -11.5q130 -47 183 0q4 5 17 22v-22q-13 -27 -30.5 -46t-35.5 -31t-43 -16.5t-45.5 -5.5t-50 4.5t-51 11.5
t-54.5 18t-53.5 20.5t-55.5 23t-53 21.5q-11 4 -31 12.5t-22 9.5q-130 47 -183 0q-11 -11 -16 -21v-848h665q60 0 102 42t42 101v63h19v-226h-1198v20h63q60 0 102 42t42 101v1108q0 59 -42 100t-102 41h-63v22z" />
    <glyph glyph-name="F.alt2" unicode="&#xf029;" horiz-adv-x="1302" 
d="M51 1434h1198v-229h-19v66q0 58 -42.5 99.5t-101.5 41.5h-665v-523q16 34 39.5 55.5t46.5 32.5t57.5 11t59 -3t67 -17t66 -23t70 -28.5t65.5 -27.5q9 -3 27 -10.5t26 -11.5q130 -47 183 0q2 4 8.5 11.5t8.5 10.5v-22q-15 -30 -33.5 -50.5t-43 -30.5t-46.5 -15.5t-54.5 -1
t-55 8.5t-61 18t-59 21.5t-61.5 25t-58 24.5q-11 4 -31 12.5t-22 9.5q-132 46 -182 0q-12 -12 -17 -22v-867h-370v19h63q60 0 102 42.5t42 101.5v1108q0 59 -42 100t-102 41h-63v22z" />
    <glyph glyph-name="T.alt1" unicode="&#xf02a;" horiz-adv-x="1320" 
d="M1235 1434l58 -163q-55 -9 -106.5 -10t-92 5t-87.5 18.5t-82 24.5t-86.5 29.5t-92.5 29.5v-36v-1332h-369v19h63q60 0 101.5 42.5t41.5 101.5v1239q-76 10 -177 10h-206q-58 0 -99.5 -41t-41.5 -100v-66h-22v229h369q88 0 217.5 -12t222 -21.5t201 -3t188.5 36.5z" />
    <glyph glyph-name="ft.dlig" unicode="&#xf02b;" horiz-adv-x="1613" 
d="M988 209q0 -76 52.5 -131.5t151.5 -55.5q71 2 130.5 24.5t92.5 48t74 47t80 21.5l-59 -163q-58 20 -91 20t-92 -9t-135 -8q-107 0 -165 65.5t-58 184.5v772h-207v22h207v224q0 59 -42 100t-102 41h-347q-99 0 -151.5 -55.5t-52.5 -131.5q0 -84 38.5 -131t102.5 -47h284
v-22h-284v-1025h-370v22h66q59 0 101 41.5t42 101.5v861h-209v21h209v136q0 120 57.5 185.5t166.5 65.5h653v-387h285v-22h-285v-636q-64 0 -103.5 -48t-39.5 -132z" />
    <glyph glyph-name="WWW.dlig" unicode="&#xf02c;" horiz-adv-x="4290" 
d="M1443 228l63 -150l-36 -78h-105l-304 709l-204 -481l64 -150l-37 -78h-107l-534 1256q-19 44 -40 75t-38.5 46.5t-39 23.5t-34.5 9.5t-33 1.5h-44v22h331q253 -604 500 -1179q127 266 190 520l-204 481q-24 54 -49.5 88.5t-52 47.5t-43 16.5t-42.5 3.5h-44v22h330
q336 -788 501 -1179q118 255 180 488l-219 513q-19 44 -40 75t-38.5 46.5t-39 23.5t-34.5 9.5t-33 1.5h-43v22h330q251 -601 503 -1179q127 266 190 520l-204 481q-24 54 -50 88.5t-52.5 47.5t-43.5 16.5t-42 3.5h-43v22h330q336 -788 501 -1179q116 250 179 488l-218 513
q-19 44 -40 75t-38.5 46.5t-39 23.5t-34.5 9.5t-33 1.5h-44v22h331q215 -512 501 -1179q125 262 189 520l-204 481q-24 54 -49.5 88.5t-52 47.5t-43 16.5t-42.5 3.5h-44v22h331q239 -561 500 -1179q74 157 124 302t75.5 254.5t45.5 209t49 207t71 206.5h162
q-71 -164 -245 -574.5t-270 -631.5l63 -150l-36 -78h-104l-304 709l-204 -481l63 -150l-36 -78h-107l-307 719l17 -36q-92 -210 -194 -455l61 -150l-34 -78h-105l-303 710l-205 -482l64 -150l-39 -78h-107l-306 719l17 -36q-33 -76 -97.5 -227.5t-97.5 -227.5z" />
    <glyph glyph-name="www.dlig" unicode="&#xf02d;" horiz-adv-x="3602" 
d="M1702 0h-109q-86 208 -216 508l-156 -364l29 -69l-36 -75h-109l-212 496l-148 -352l27 -69l-32 -75h-112q-68 166 -196.5 468.5t-167.5 396.5q-20 45 -41.5 77t-39 48t-40 24.5t-35.5 10t-34 1.5h-43v21h330l374 -874v-3q95 207 141 370l-136 325q-20 45 -42 77t-39 48
t-38.5 24.5t-34.5 10t-33 1.5h-46v21h328l374 -874v-3q100 212 148 389q-73 170 -128 306q-20 45 -41.5 77t-39 48t-40 24.5t-35.5 10t-34 1.5h-44v21h328l375 -874v-3q94 196 143 370l-138 325q-20 45 -41.5 77t-38.5 48t-39 24.5t-35 10t-33 1.5h-47v21h331l374 -874v-3
q105 223 156 418q-53 118 -120 277q-24 56 -49 91t-51.5 49t-43.5 17.5t-45 3.5h-41v21h328l374 -874v-3q94 196 143 370l-138 325q-20 45 -41.5 77t-38.5 48t-39 24.5t-35 10t-33 1.5h-47v21h331l374 -874v-3q75 160 117.5 289.5t54 208.5t15 141.5t13 121.5t36.5 116h162
l-386 -904l29 -68l-36 -75h-110l-211 496l-148 -353l27 -68l-34 -75h-110q-37 88 -112.5 266t-113.5 266l-165 -389l29 -68l-36 -75h-110l-211 496l-148 -353l26 -68z" />
    <glyph glyph-name="gi.dlig" unicode="&#xf02e;" horiz-adv-x="1822" 
d="M1303 1047h369v-1047h-369v22h65q59 0 101 41.5t42 101.5v720q0 58 -42 99t-101 41h-65v22zM413 182l438 545l87 106q-112 116 -259.5 149t-272.5 -34q-98 -55 -147 -159t-39.5 -228.5t77.5 -239.5q50 -83 116 -139zM1028 948l294 364q30 38 44.5 54.5t39 36t51.5 26.5
t64 7q63 0 107 -39.5t44 -94.5t-43.5 -93t-107.5 -38q-58 0 -104 37t-46 94q0 41 22 69l-350 -435q65 -48 116 -129q53 -90 61.5 -194.5t-23.5 -201t-104 -184t-174 -144.5q-141 -77 -296 -81t-278 64l-19 -24q-188 -234 -104 -276q62 -31 237 46q82 36 161 86
q158 102 277 102q57 0 103.5 -23t73.5 -59t39.5 -80.5t7.5 -86t-28.5 -76.5t-62.5 -51q-41 -16 -93.5 -10.5t-97 19.5t-94 11.5t-84.5 -33.5q-9 27 -25 72t-26 72q50 7 113.5 -15t111.5 -51t100.5 -46t85.5 -2q41 19 63 60t19 88t-23.5 90.5t-68.5 72t-112 29.5
q-43 0 -85.5 -15t-86.5 -46t-75 -57.5t-80.5 -72.5t-73.5 -67q-129 -115 -230 -112q-41 1 -68.5 21t-37 60t0.5 93t48 124.5t100 149.5l15 17q-109 62 -170 167q-53 90 -61.5 193.5t23.5 200.5t104 184t174 144q160 88 331.5 82t300.5 -99zM950 819l-119 -148l-403 -503
q109 -89 238.5 -108t242.5 42q98 55 147 158.5t39.5 227.5t-77.5 239q-27 47 -68 92z" />
    <glyph glyph-name="A.alt1" unicode="&#xf02f;" horiz-adv-x="1220" 
d="M492 1227l-6 12l-6 12q-19 45 -40.5 77t-38.5 48t-39.5 24.5t-35.5 10t-33 1.5h-44v22h330l610 -1434h-340v20h49q20 0 34.5 2.5t22.5 9t13.5 13t5.5 17.5t-0.5 19t-5.5 23t-8.5 23t-10.5 24.5t-10 23.5l-85 197v5h-3q-46 109 -97.5 166t-96.5 57q-40 -1 -66.5 -34.5
t-40 -86.5t-25 -117t-28 -127.5t-42 -116t-73.5 -85.5t-116 -33q-65 0 -108.5 23.5t-62 62t-22.5 91t5 105.5t26 110.5t35 102t37 83.5zM502 1200l-314 -644q-22 -44 -39 -96.5t-23.5 -113t3.5 -110t49 -84t105 -38.5q54 -3 91.5 22t57 68t33.5 96t26.5 107.5t29.5 101
t49.5 78.5t79.5 37q57 7 119 -51z" />
    <glyph glyph-name="G.alt1" unicode="&#xf030;" horiz-adv-x="1480" 
d="M470 1332q178 102 376 102q56 0 117.5 -18.5t106.5 -40t105.5 -37t115.5 -11.5l53 -153q-65 0 -120.5 16.5t-98 41.5t-83 51.5t-92.5 51.5t-109 36q-194 39 -362 -56q-137 -79 -206.5 -225.5t-56.5 -323t108 -338.5q86 -148 227 -248t306 -122.5t327 67.5v743h-467v22
h467h160v-668q-71 -68 -158 -119q-176 -100 -372 -103t-364.5 89t-266.5 259q-73 125 -88 268t23 275t129.5 249t222.5 192z" />
    <glyph glyph-name="G.alt2" unicode="&#xf031;" horiz-adv-x="1468" 
d="M469 1332q179 102 377 102q56 0 117 -18.5t106.5 -40t106.5 -37t117 -11.5l53 -153q-65 0 -120.5 16.5t-98 41.5t-83 51.5t-92.5 51.5t-109 36q-194 38 -364 -56q-136 -79 -205.5 -225.5t-57 -323t106.5 -338.5q71 -121 175.5 -209t218.5 -129t235 -34.5t224 64.5l7 5
v743q-6 12 -16 22q-53 47 -183 0q-2 -1 -22 -9.5t-31 -12.5q-18 -7 -53 -21.5t-55.5 -23t-53.5 -20.5t-54.5 -18t-51 -11.5t-50 -4.5t-45.5 5.5t-43 16.5t-35.5 31t-30.5 46v22q5 -10 17 -22q53 -47 183 0q2 1 22 9.5t31 12.5q22 9 57.5 24t58.5 24.5t55.5 22t56 17t52.5 8
t52 -1.5t48 -15t47.5 -30t43.5 -49l163 -233v-435q-75 -71 -160 -119q-175 -100 -371.5 -103t-365.5 89t-267 259q-73 125 -88 268t23.5 275t129.5 249t222 192z" />
    <glyph glyph-name="g.alt1" unicode="&#xf033;" horiz-adv-x="1271" 
d="M1103 1027h21v-1045l-9 -136q0 -60 -77.5 -94.5t-195.5 -47.5t-240.5 -22.5t-230 -31t-146.5 -60.5l-131 146q24 14 87 14t140.5 -8t167 -17t173 -8t152 14.5t109 54.5t39.5 108v88q0 44 -28.5 59.5t-73.5 7t-90.5 -23t-89.5 -29t-61 -14.5q-215 5 -363 156
q-126 128 -154 308q-31 190 63 340q114 182 369 227q77 14 165 14q32 0 99.5 -14.5t122 -26t108 -4t74.5 44.5zM962 171v785q-32 3 -68.5 11.5t-58 14t-57.5 8t-67 -6.5q-94 -22 -182 -84.5t-152.5 -145.5t-100.5 -182.5t-35.5 -193.5t51.5 -180t152 -140q47 -25 90 -34
t76 -3.5t63.5 19t55.5 32.5t48.5 39t45.5 37.5t43.5 28.5t46 10.5t49.5 -15.5z" />
    <glyph glyph-name="H.alt1" unicode="&#xf034;" horiz-adv-x="1472" 
d="M938 1434h369v-1434h-369v19h63q60 0 102 42.5t42 101.5v704h-724v-867h-370v19h63q60 0 102 42.5t42 101.5v1108q0 59 -42 100t-102 41h-63v22h370v-545h724v382q0 59 -42 100t-102 41h-63v22z" />
    <glyph glyph-name="CE.dlig" unicode="&#xf035;" horiz-adv-x="2750" 
d="M184 348q-73 125 -88.5 268t22.5 275t128.5 249t221.5 192q178 102 377 102q56 0 117 -18.5t106.5 -40t106.5 -37t117 -11.5l53 -153q-65 0 -120.5 16.5t-98 41.5t-83 51.5t-92.5 51.5t-109 36q-194 39 -362 -56q-137 -79 -207 -225.5t-57 -322.5t107 -339
q71 -122 176 -209.5t219 -128.5t234.5 -34.5t222.5 64.5q104 61 170 160v-58q-67 -67 -160 -119q-175 -100 -371 -103t-364.5 89t-265.5 259zM706 868v22h938v382q0 59 -41.5 99.5t-101.5 40.5h-63v22h369q87 0 216.5 -12t222 -21t201.5 -3t189 36l56 -162q-74 -14 -149 -9
t-128.5 20.5t-123 37.5t-132 42t-156.5 34.5t-196 14.5v-522h260q60 0 101.5 41.5t41.5 101.5v183h20v-669h-20v178q0 60 -41.5 101.5t-101.5 41.5h-260v-848q102 0 196 14.5t156.5 35t132 43t123 38t128.5 20.5t149 -10l-56 -160q-80 29 -189 35t-201.5 -3t-222 -20.5
t-216.5 -11.5h-369v19h63q60 0 101.5 42.5t41.5 101.5v704h-938z" />
    <glyph glyph-name="HE.dlig" unicode="&#xf036;" horiz-adv-x="2826" 
d="M419 868v-867h-370v19h63q60 0 102 42.5t42 101.5v1108q0 58 -42 99t-102 41h-63v22h370v-544h724v382q0 58 -42.5 99t-101.5 41h-65v22h369v-544h420v382q0 59 -41.5 99.5t-101.5 40.5h-63v22h369q87 0 216.5 -12t222 -21t201.5 -3t189 36l56 -162q-74 -14 -149 -9
t-128.5 20.5t-123 37.5t-132 42t-156.5 34.5t-196 14.5v-522h260q60 0 102 41.5t42 101.5v183h19v-669h-19v178q0 60 -42 101.5t-102 41.5h-260v-848q102 0 196 14.5t156.5 35t132 43t123 38t128.5 20.5t149 -10l-56 -160q-80 29 -189 35t-201.5 -3t-222 -20.5t-216.5 -11.5
h-369v19h63q60 0 101.5 42.5t41.5 101.5v704h-420v-867h-369v19h65q59 0 101.5 43t42.5 101v704h-724z" />
    <glyph glyph-name="fi.dlig" unicode="&#xfb01;" horiz-adv-x="1298" 
d="M781 1047h370v-1047h-370v22h66q59 0 101 41.5t42 101.5v720q0 58 -42 99.5t-101 41.5h-66v21zM478 1412q-99 0 -152 -55.5t-53 -131.5q0 -84 38.5 -131t102.5 -47h285v-22h-285v-1025h-369v22h66q59 0 101 41.5t42 101.5v861h-209v21h209v136q0 120 57.5 185.5
t166.5 65.5h522q63 0 107 -39.5t44 -94.5t-43.5 -93t-107.5 -38q-62 0 -106.5 38t-44.5 93q0 72 68 112h-439z" />
    </font>
</defs>
</svg>
